<?xml version="1.0" standalone="no"?>
<!DOCTYPE svg PUBLIC "-//W3C//DTD SVG 1.1//EN" 
"http://www.w3.org/Graphics/SVG/1.1/DTD/svg11.dtd"> 
<svg
  xmlns="http://www.w3.org/2000/svg"
  version="1.1"
  width="11.7in" height="8.267in" viewBox="0 0 11700 8267 "
>
  <title>SVG Picture created as led1.svg </title>
  <desc>Picture generated by wxSVG v0101 </desc>
  <g style="fill:black; stroke:black; stroke-width:1">
</g>
<g style="fill:#0000FF; fill-opacity:0.0; 
  stroke:#0000FF; stroke-linecap:round; stroke-linejoin:round; stroke-opacity:1.0; stroke-opacity:1.0; stroke-width:6" 
   transform="translate(0 0) scale(1 1)">
<path d="M2756 3024 L2790 3024" /> 
<g style = "stroke-linecap:round;" > 
<path d="M2790 3024 L2790 3024" /> 
</g><path d="M2773 3084 L2773 3024" /> 
<g style = "stroke-linecap:round;" > 
<path d="M2773 3024 L2773 3024" /> 
</g><path d="M2819 3084 L2813 3081" /> 
<path d="M2813 3081 L2810 3079" /> 
<path d="M2810 3079 L2807 3073" /> 
<path d="M2807 3073 L2807 3056" /> 
<path d="M2807 3056 L2810 3050" /> 
<path d="M2810 3050 L2813 3047" /> 
<path d="M2813 3047 L2819 3044" /> 
<path d="M2819 3044 L2827 3044" /> 
<path d="M2827 3044 L2833 3047" /> 
<path d="M2833 3047 L2836 3050" /> 
<path d="M2836 3050 L2839 3056" /> 
<path d="M2839 3056 L2839 3073" /> 
<path d="M2839 3073 L2836 3079" /> 
<path d="M2836 3079 L2833 3081" /> 
<path d="M2833 3081 L2827 3084" /> 
<path d="M2827 3084 L2819 3084" /> 
<path d="M2864 3044 L2864 3084" /> 
<g style = "stroke-linecap:round;" > 
<path d="M2864 3084 L2864 3084" /> 
</g><path d="M2870 3061 L2887 3084" /> 
<g style = "stroke-linecap:round;" > 
<path d="M2887 3084 L2887 3084" /> 
</g><path d="M2887 3044 L2864 3067" /> 
<g style = "stroke-linecap:round;" > 
<path d="M2864 3067 L2864 3067" /> 
</g><path d="M2922 3084 L2916 3081" /> 
<path d="M2916 3081 L2913 3079" /> 
<path d="M2913 3079 L2910 3073" /> 
<path d="M2910 3073 L2910 3056" /> 
<path d="M2910 3056 L2913 3050" /> 
<path d="M2913 3050 L2916 3047" /> 
<path d="M2916 3047 L2922 3044" /> 
<path d="M2922 3044 L2930 3044" /> 
<path d="M2930 3044 L2936 3047" /> 
<path d="M2936 3047 L2939 3050" /> 
<path d="M2939 3050 L2942 3056" /> 
<path d="M2942 3056 L2942 3073" /> 
<path d="M2942 3073 L2939 3079" /> 
<path d="M2939 3079 L2936 3081" /> 
<path d="M2936 3081 L2930 3084" /> 
<path d="M2930 3084 L2922 3084" /> 
<path d="M2976 3084 L2970 3081" /> 
<path d="M2970 3081 L2967 3079" /> 
<path d="M2967 3079 L2964 3073" /> 
<path d="M2964 3073 L2964 3056" /> 
<path d="M2964 3056 L2967 3050" /> 
<path d="M2967 3050 L2970 3047" /> 
<path d="M2970 3047 L2976 3044" /> 
<path d="M2976 3044 L2984 3044" /> 
<path d="M2984 3044 L2990 3047" /> 
<path d="M2990 3047 L2993 3050" /> 
<path d="M2993 3050 L2996 3056" /> 
<path d="M2996 3056 L2996 3073" /> 
<path d="M2996 3073 L2993 3079" /> 
<path d="M2993 3079 L2990 3081" /> 
<path d="M2990 3081 L2984 3084" /> 
<path d="M2984 3084 L2976 3084" /> 
<path d="M3021 3084 L3021 3044" /> 
<path d="M3021 3044 L3044 3044" /> 
<g style = "stroke-linecap:round;" > 
<path d="M3044 3044 L3044 3044" /> 
</g><path d="M3064 3044 L3064 3104" /> 
<g style = "stroke-linecap:round;" > 
<path d="M3064 3104 L3064 3104" /> 
</g><path d="M3064 3047 L3070 3044" /> 
<path d="M3070 3044 L3081 3044" /> 
<path d="M3081 3044 L3087 3047" /> 
<path d="M3087 3047 L3090 3050" /> 
<path d="M3090 3050 L3093 3056" /> 
<path d="M3093 3056 L3093 3073" /> 
<path d="M3093 3073 L3090 3079" /> 
<path d="M3090 3079 L3087 3081" /> 
<path d="M3087 3081 L3081 3084" /> 
<path d="M3081 3084 L3070 3084" /> 
<path d="M3070 3084 L3064 3081" /> 
<g style = "stroke-linecap:round;" > 
<path d="M3064 3081 L3064 3081" /> 
</g><path d="M3144 3084 L3144 3053" /> 
<path d="M3144 3053 L3141 3047" /> 
<path d="M3141 3047 L3135 3044" /> 
<path d="M3135 3044 L3124 3044" /> 
<path d="M3124 3044 L3118 3047" /> 
<g style = "stroke-linecap:round;" > 
<path d="M3118 3047 L3118 3047" /> 
</g><path d="M3144 3081 L3138 3084" /> 
<path d="M3138 3084 L3124 3084" /> 
<path d="M3124 3084 L3118 3081" /> 
<path d="M3118 3081 L3115 3076" /> 
<path d="M3115 3076 L3115 3070" /> 
<path d="M3115 3070 L3118 3064" /> 
<path d="M3118 3064 L3124 3061" /> 
<path d="M3124 3061 L3138 3061" /> 
<path d="M3138 3061 L3144 3059" /> 
<g style = "stroke-linecap:round;" > 
<path d="M3144 3059 L3144 3059" /> 
</g><path d="M3172 3064 L3198 3064" /> 
<g style = "stroke-linecap:round;" > 
<path d="M3198 3064 L3198 3064" /> 
</g><path d="M3172 3044 L3172 3084" /> 
<g style = "stroke-linecap:round;" > 
<path d="M3172 3084 L3172 3084" /> 
</g><path d="M3198 3044 L3198 3084" /> 
<g style = "stroke-linecap:round;" > 
<path d="M3198 3084 L3198 3084" /> 
</g><path d="M3226 3044 L3226 3084" /> 
<path d="M3226 3084 L3255 3044" /> 
<path d="M3255 3044 L3255 3084" /> 
<g style = "stroke-linecap:round;" > 
<path d="M3255 3084 L3255 3084" /> 
</g><path d="M3303 3044 L3303 3084" /> 
<g style = "stroke-linecap:round;" > 
<path d="M3303 3084 L3303 3084" /> 
</g><path d="M3280 3044 L3280 3059" /> 
<path d="M3280 3059 L3283 3064" /> 
<path d="M3283 3064 L3289 3067" /> 
<path d="M3289 3067 L3303 3067" /> 
<g style = "stroke-linecap:round;" > 
<path d="M3303 3067 L3303 3067" /> 
</g><path d="M3334 3044 L3334 3084" /> 
<path d="M3334 3084 L3363 3044" /> 
<path d="M3363 3044 L3363 3084" /> 
<g style = "stroke-linecap:round;" > 
<path d="M3363 3084 L3363 3084" /> 
</g><path d="M3406 3064 L3414 3067" /> 
<path d="M3414 3067 L3417 3073" /> 
<path d="M3417 3073 L3417 3076" /> 
<path d="M3417 3076 L3414 3081" /> 
<path d="M3414 3081 L3408 3084" /> 
<path d="M3408 3084 L3391 3084" /> 
<path d="M3391 3084 L3391 3044" /> 
<path d="M3391 3044 L3406 3044" /> 
<path d="M3406 3044 L3411 3047" /> 
<path d="M3411 3047 L3414 3053" /> 
<path d="M3414 3053 L3414 3056" /> 
<path d="M3414 3056 L3411 3061" /> 
<path d="M3411 3061 L3406 3064" /> 
<path d="M3406 3064 L3391 3064" /> 
<g style = "stroke-linecap:round;" > 
<path d="M3391 3064 L3391 3064" /> 
</g><path d="M3468 3084 L3468 3053" /> 
<path d="M3468 3053 L3465 3047" /> 
<path d="M3465 3047 L3459 3044" /> 
<path d="M3459 3044 L3448 3044" /> 
<path d="M3448 3044 L3442 3047" /> 
<g style = "stroke-linecap:round;" > 
<path d="M3442 3047 L3442 3047" /> 
</g><path d="M3468 3081 L3462 3084" /> 
<path d="M3462 3084 L3448 3084" /> 
<path d="M3448 3084 L3442 3081" /> 
<path d="M3442 3081 L3439 3076" /> 
<path d="M3439 3076 L3439 3070" /> 
<path d="M3439 3070 L3442 3064" /> 
<path d="M3442 3064 L3448 3061" /> 
<path d="M3448 3061 L3462 3061" /> 
<path d="M3462 3061 L3468 3059" /> 
<g style = "stroke-linecap:round;" > 
<path d="M3468 3059 L3468 3059" /> 
</g><path d="M3496 3064 L3513 3064" /> 
<g style = "stroke-linecap:round;" > 
<path d="M3513 3064 L3513 3064" /> 
</g><path d="M3496 3044 L3496 3084" /> 
<g style = "stroke-linecap:round;" > 
<path d="M3496 3084 L3496 3084" /> 
</g><path d="M3525 3084 L3519 3081" /> 
<path d="M3519 3081 L3516 3079" /> 
<path d="M3516 3079 L3513 3073" /> 
<path d="M3513 3073 L3513 3056" /> 
<path d="M3513 3056 L3516 3050" /> 
<path d="M3516 3050 L3519 3047" /> 
<path d="M3519 3047 L3525 3044" /> 
<path d="M3525 3044 L3533 3044" /> 
<path d="M3533 3044 L3539 3047" /> 
<path d="M3539 3047 L3542 3050" /> 
<path d="M3542 3050 L3545 3056" /> 
<path d="M3545 3056 L3545 3073" /> 
<path d="M3545 3073 L3542 3079" /> 
<path d="M3542 3079 L3539 3081" /> 
<path d="M3539 3081 L3533 3084" /> 
<path d="M3533 3084 L3525 3084" /> 
<path d="M3590 3044 L3590 3084" /> 
<g style = "stroke-linecap:round;" > 
<path d="M3590 3084 L3590 3084" /> 
</g><path d="M3570 3044 L3570 3084" /> 
<path d="M3570 3084 L3610 3084" /> 
<path d="M3610 3084 L3610 3044" /> 
<g style = "stroke-linecap:round;" > 
<path d="M3610 3044 L3610 3044" /> 
</g><path d="M3610 3084 L3616 3084" /> 
<path d="M3616 3084 L3616 3099" /> 
<g style = "stroke-linecap:round;" > 
<path d="M3616 3099 L3616 3099" /> 
</g><path d="M3639 3044 L3639 3084" /> 
<path d="M3639 3084 L3668 3044" /> 
<path d="M3668 3044 L3668 3084" /> 
<g style = "stroke-linecap:round;" > 
<path d="M3668 3084 L3668 3084" /> 
</g><path d="M3696 3044 L3696 3084" /> 
<path d="M3696 3084 L3725 3044" /> 
<path d="M3725 3044 L3725 3084" /> 
<g style = "stroke-linecap:round;" > 
<path d="M3725 3084 L3725 3084" /> 
</g><path d="M3699 3021 L3702 3027" /> 
<path d="M3702 3027 L3708 3030" /> 
<path d="M3708 3030 L3713 3030" /> 
<path d="M3713 3030 L3719 3027" /> 
<path d="M3719 3027 L3722 3021" /> 
<g style = "stroke-linecap:round;" > 
<path d="M3722 3021 L3722 3021" /> 
</g><path d="M2764 3134 L2764 3194" /> 
<g style = "stroke-linecap:round;" > 
<path d="M2764 3194 L2764 3194" /> 
</g><path d="M2764 3137 L2770 3134" /> 
<path d="M2770 3134 L2781 3134" /> 
<path d="M2781 3134 L2787 3137" /> 
<path d="M2787 3137 L2790 3140" /> 
<path d="M2790 3140 L2793 3146" /> 
<path d="M2793 3146 L2793 3163" /> 
<path d="M2793 3163 L2790 3169" /> 
<path d="M2790 3169 L2787 3171" /> 
<path d="M2787 3171 L2781 3174" /> 
<path d="M2781 3174 L2770 3174" /> 
<path d="M2770 3174 L2764 3171" /> 
<g style = "stroke-linecap:round;" > 
<path d="M2764 3171 L2764 3171" /> 
</g><path d="M2841 3171 L2835 3174" /> 
<path d="M2835 3174 L2824 3174" /> 
<path d="M2824 3174 L2818 3171" /> 
<path d="M2818 3171 L2815 3166" /> 
<path d="M2815 3166 L2815 3143" /> 
<path d="M2815 3143 L2818 3137" /> 
<path d="M2818 3137 L2824 3134" /> 
<path d="M2824 3134 L2835 3134" /> 
<path d="M2835 3134 L2841 3137" /> 
<path d="M2841 3137 L2844 3143" /> 
<path d="M2844 3143 L2844 3149" /> 
<path d="M2844 3149 L2815 3154" /> 
<g style = "stroke-linecap:round;" > 
<path d="M2815 3154 L2815 3154" /> 
</g><path d="M2875 3154 L2881 3154" /> 
<g style = "stroke-linecap:round;" > 
<path d="M2881 3154 L2881 3154" /> 
</g><path d="M2864 3137 L2869 3134" /> 
<path d="M2869 3134 L2881 3134" /> 
<path d="M2881 3134 L2886 3137" /> 
<path d="M2886 3137 L2889 3143" /> 
<path d="M2889 3143 L2889 3146" /> 
<path d="M2889 3146 L2886 3151" /> 
<path d="M2886 3151 L2881 3154" /> 
<path d="M2881 3154 L2886 3157" /> 
<path d="M2886 3157 L2889 3163" /> 
<path d="M2889 3163 L2889 3166" /> 
<path d="M2889 3166 L2886 3171" /> 
<path d="M2886 3171 L2881 3174" /> 
<path d="M2881 3174 L2869 3174" /> 
<path d="M2869 3174 L2864 3171" /> 
<g style = "stroke-linecap:round;" > 
<path d="M2864 3171 L2864 3171" /> 
</g><path d="M2915 3134 L2915 3174" /> 
<path d="M2915 3174 L2944 3134" /> 
<path d="M2944 3134 L2944 3174" /> 
<g style = "stroke-linecap:round;" > 
<path d="M2944 3174 L2944 3174" /> 
</g><path d="M2998 3171 L2992 3174" /> 
<path d="M2992 3174 L2981 3174" /> 
<path d="M2981 3174 L2975 3171" /> 
<path d="M2975 3171 L2972 3169" /> 
<path d="M2972 3169 L2969 3163" /> 
<path d="M2969 3163 L2969 3146" /> 
<path d="M2969 3146 L2972 3140" /> 
<path d="M2972 3140 L2975 3137" /> 
<path d="M2975 3137 L2981 3134" /> 
<path d="M2981 3134 L2992 3134" /> 
<path d="M2992 3134 L2998 3137" /> 
<g style = "stroke-linecap:round;" > 
<path d="M2998 3137 L2998 3137" /> 
</g><path d="M3015 3134 L3043 3134" /> 
<g style = "stroke-linecap:round;" > 
<path d="M3043 3134 L3043 3134" /> 
</g><path d="M3029 3134 L3029 3174" /> 
<g style = "stroke-linecap:round;" > 
<path d="M3029 3174 L3029 3174" /> 
</g><path d="M3072 3174 L3066 3171" /> 
<path d="M3066 3171 L3063 3169" /> 
<path d="M3063 3169 L3060 3163" /> 
<path d="M3060 3163 L3060 3146" /> 
<path d="M3060 3146 L3063 3140" /> 
<path d="M3063 3140 L3066 3137" /> 
<path d="M3066 3137 L3072 3134" /> 
<path d="M3072 3134 L3080 3134" /> 
<path d="M3080 3134 L3086 3137" /> 
<path d="M3086 3137 L3089 3140" /> 
<path d="M3089 3140 L3092 3146" /> 
<path d="M3092 3146 L3092 3163" /> 
<path d="M3092 3163 L3089 3169" /> 
<path d="M3089 3169 L3086 3171" /> 
<path d="M3086 3171 L3080 3174" /> 
<path d="M3080 3174 L3072 3174" /> 
<path d="M3117 3134 L3117 3194" /> 
<g style = "stroke-linecap:round;" > 
<path d="M3117 3194 L3117 3194" /> 
</g><path d="M3117 3137 L3123 3134" /> 
<path d="M3123 3134 L3134 3134" /> 
<path d="M3134 3134 L3140 3137" /> 
<path d="M3140 3137 L3143 3140" /> 
<path d="M3143 3140 L3146 3146" /> 
<path d="M3146 3146 L3146 3163" /> 
<path d="M3146 3163 L3143 3169" /> 
<path d="M3143 3169 L3140 3171" /> 
<path d="M3140 3171 L3134 3174" /> 
<path d="M3134 3174 L3123 3174" /> 
<path d="M3123 3174 L3117 3171" /> 
<g style = "stroke-linecap:round;" > 
<path d="M3117 3171 L3117 3171" /> 
</g></g>
<g style="fill:#000000; fill-opacity:0.0; 
  stroke:#A00000; stroke-linecap:round; stroke-linejoin:round; stroke-opacity:1.0; stroke-opacity:1.0; stroke-width:6" 
   transform="translate(0 0) scale(1 1)">
<polygon style="fill-rule:evenodd; " 
points="4025,2800
4025,2800
4025,3200
3875,3200
3875,2800
" /> 
<path d="M3950 2800 L3950 2700" /> 
</g>
<g style="fill:#A00000; fill-opacity:0.0; 
  stroke:#A00000; stroke-linecap:round; stroke-linejoin:round; stroke-opacity:1.0; stroke-opacity:1.0; stroke-width:6" 
   transform="translate(0 0) scale(1 1)">
<path d="M3935 2736 L3935 2764" /> 
<g style = "stroke-linecap:round;" > 
<path d="M3935 2764 L3935 2764" /> 
</g><path d="M3935 2750 L3885 2750" /> 
<path d="M3885 2750 L3892 2755" /> 
<path d="M3892 2755 L3897 2760" /> 
<path d="M3897 2760 L3900 2764" /> 
<g style = "stroke-linecap:round;" > 
<path d="M3900 2764 L3900 2764" /> 
</g><path d="M3950 3200 L3950 3300" /> 
<path d="M3890 3264 L3888 3262" /> 
<path d="M3888 3262 L3885 3257" /> 
<path d="M3885 3257 L3885 3245" /> 
<path d="M3885 3245 L3888 3241" /> 
<path d="M3888 3241 L3890 3238" /> 
<path d="M3890 3238 L3895 3236" /> 
<path d="M3895 3236 L3900 3236" /> 
<path d="M3900 3236 L3907 3238" /> 
<path d="M3907 3238 L3935 3267" /> 
<path d="M3935 3267 L3935 3236" /> 
<g style = "stroke-linecap:round;" > 
<path d="M3935 3236 L3935 3236" /> 
</g></g>
<g style="fill:#00A0A0; fill-opacity:0.0; 
  stroke:#00A0A0; stroke-linecap:round; stroke-linejoin:round; stroke-opacity:1.0; stroke-opacity:1.0; stroke-width:6" 
   transform="translate(0 0) scale(1 1)">
<path d="M4093 2913 L4080 2894" /> 
<g style = "stroke-linecap:round;" > 
<path d="M4080 2894 L4080 2894" /> 
</g><path d="M4071 2913 L4071 2873" /> 
<path d="M4071 2873 L4086 2873" /> 
<path d="M4086 2873 L4090 2875" /> 
<path d="M4090 2875 L4091 2877" /> 
<path d="M4091 2877 L4093 2881" /> 
<path d="M4093 2881 L4093 2887" /> 
<path d="M4093 2887 L4091 2890" /> 
<path d="M4091 2890 L4090 2892" /> 
<path d="M4090 2892 L4086 2894" /> 
<path d="M4086 2894 L4071 2894" /> 
<g style = "stroke-linecap:round;" > 
<path d="M4071 2894 L4071 2894" /> 
</g><path d="M4131 2913 L4109 2913" /> 
<g style = "stroke-linecap:round;" > 
<path d="M4109 2913 L4109 2913" /> 
</g><path d="M4120 2913 L4120 2873" /> 
<path d="M4120 2873 L4116 2879" /> 
<path d="M4116 2879 L4112 2883" /> 
<path d="M4112 2883 L4109 2885" /> 
<g style = "stroke-linecap:round;" > 
<path d="M4109 2885 L4109 2885" /> 
</g><path d="M4095 3063 L4073 3063" /> 
<g style = "stroke-linecap:round;" > 
<path d="M4073 3063 L4073 3063" /> 
</g><path d="M4084 3063 L4084 3023" /> 
<path d="M4084 3023 L4080 3029" /> 
<path d="M4080 3029 L4076 3033" /> 
<path d="M4076 3033 L4073 3035" /> 
<g style = "stroke-linecap:round;" > 
<path d="M4073 3035 L4073 3035" /> 
</g><path d="M4113 3063 L4113 3023" /> 
<g style = "stroke-linecap:round;" > 
<path d="M4113 3023 L4113 3023" /> 
</g><path d="M4116 3048 L4128 3063" /> 
<g style = "stroke-linecap:round;" > 
<path d="M4128 3063 L4128 3063" /> 
</g><path d="M4128 3037 L4113 3052" /> 
<g style = "stroke-linecap:round;" > 
<path d="M4113 3052 L4113 3052" /> 
</g></g>
<g style="fill:#A00000; fill-opacity:0.0; 
  stroke:#A00000; stroke-linecap:round; stroke-linejoin:round; stroke-opacity:1.0; stroke-opacity:1.0; stroke-width:6" 
   transform="translate(0 0) scale(1 1)">
<path d="M4050 2050 L3850 2050" /> 
<g style = "stroke-linecap:round;" > 
<path d="M3850 2050 L3850 2050" /> 
</g><path d="M3840 1930 L3705 2035" /> 
<path d="M3705 2035 L3745 1975" /> 
<g style = "stroke-linecap:round;" > 
<path d="M3745 1975 L3745 1975" /> 
</g><path d="M3870 1990 L3740 2090" /> 
<path d="M3740 2090 L3785 2025" /> 
<g style = "stroke-linecap:round;" > 
<path d="M3785 2025 L3785 2025" /> 
</g><path d="M4050 1850 L3850 1850" /> 
<path d="M3850 1850 L3950 2050" /> 
<path d="M3950 2050 L4050 1850" /> 
<path d="M3950 1850 L3950 1650" /> 
<path d="M3935 1736 L3935 1764" /> 
<g style = "stroke-linecap:round;" > 
<path d="M3935 1764 L3935 1764" /> 
</g><path d="M3935 1750 L3885 1750" /> 
<path d="M3885 1750 L3892 1755" /> 
<path d="M3892 1755 L3897 1760" /> 
<path d="M3897 1760 L3900 1764" /> 
<g style = "stroke-linecap:round;" > 
<path d="M3900 1764 L3900 1764" /> 
</g><path d="M3950 2050 L3950 2250" /> 
<path d="M3890 2164 L3888 2162" /> 
<path d="M3888 2162 L3885 2157" /> 
<path d="M3885 2157 L3885 2145" /> 
<path d="M3885 2145 L3888 2141" /> 
<path d="M3888 2141 L3890 2138" /> 
<path d="M3890 2138 L3895 2136" /> 
<path d="M3895 2136 L3900 2136" /> 
<path d="M3900 2136 L3907 2138" /> 
<path d="M3907 2138 L3935 2167" /> 
<path d="M3935 2167 L3935 2136" /> 
<g style = "stroke-linecap:round;" > 
<path d="M3935 2136 L3935 2136" /> 
</g></g>
<g style="fill:#00A0A0; fill-opacity:0.0; 
  stroke:#00A0A0; stroke-linecap:round; stroke-linejoin:round; stroke-opacity:1.0; stroke-opacity:1.0; stroke-width:6" 
   transform="translate(0 0) scale(1 1)">
<path d="M4130 1871 L4130 1811" /> 
<g style = "stroke-linecap:round;" > 
<path d="M4130 1811 L4130 1811" /> 
</g><path d="M4130 1840 L4165 1840" /> 
<g style = "stroke-linecap:round;" > 
<path d="M4165 1840 L4165 1840" /> 
</g><path d="M4165 1871 L4165 1811" /> 
<g style = "stroke-linecap:round;" > 
<path d="M4165 1811 L4165 1811" /> 
</g><path d="M4222 1871 L4193 1871" /> 
<path d="M4193 1871 L4193 1811" /> 
<g style = "stroke-linecap:round;" > 
<path d="M4193 1811 L4193 1811" /> 
</g><path d="M4274 1871 L4239 1871" /> 
<g style = "stroke-linecap:round;" > 
<path d="M4239 1871 L4239 1871" /> 
</g><path d="M4257 1871 L4257 1811" /> 
<path d="M4257 1811 L4251 1820" /> 
<path d="M4251 1820 L4245 1826" /> 
<path d="M4245 1826 L4239 1828" /> 
<g style = "stroke-linecap:round;" > 
<path d="M4239 1828 L4239 1828" /> 
</g><path d="M4162 2021 L4133 2021" /> 
<path d="M4133 2021 L4133 1961" /> 
<g style = "stroke-linecap:round;" > 
<path d="M4133 1961 L4133 1961" /> 
</g><path d="M4182 1990 L4202 1990" /> 
<g style = "stroke-linecap:round;" > 
<path d="M4202 1990 L4202 1990" /> 
</g><path d="M4211 2021 L4182 2021" /> 
<path d="M4182 2021 L4182 1961" /> 
<path d="M4182 1961 L4211 1961" /> 
<g style = "stroke-linecap:round;" > 
<path d="M4211 1961 L4211 1961" /> 
</g><path d="M4236 2021 L4236 1961" /> 
<path d="M4236 1961 L4251 1961" /> 
<path d="M4251 1961 L4259 1964" /> 
<path d="M4259 1964 L4265 1970" /> 
<path d="M4265 1970 L4268 1976" /> 
<path d="M4268 1976 L4271 1987" /> 
<path d="M4271 1987 L4271 1996" /> 
<path d="M4271 1996 L4268 2007" /> 
<path d="M4268 2007 L4265 2013" /> 
<path d="M4265 2013 L4259 2018" /> 
<path d="M4259 2018 L4251 2021" /> 
<path d="M4251 2021 L4236 2021" /> 
</g>
<g style="fill:#00A0A0; fill-opacity:0.0; 
  stroke:#00A000; stroke-linecap:round; stroke-linejoin:round; stroke-opacity:1.0; stroke-opacity:1.0; stroke-width:6" 
   transform="translate(0 0) scale(1 1)">
<path d="M3950 2250 L3950 2700" /> 
</g>
<g style="fill:#0000FF; fill-opacity:0.0; 
  stroke:#0000FF; stroke-linecap:round; stroke-linejoin:round; stroke-opacity:1.0; stroke-opacity:1.0; stroke-width:6" 
   transform="translate(0 0) scale(1 1)">
<path d="M3099 2029 L3096 2031" /> 
<path d="M3096 2031 L3087 2034" /> 
<path d="M3087 2034 L3081 2034" /> 
<path d="M3081 2034 L3073 2031" /> 
<path d="M3073 2031 L3067 2026" /> 
<path d="M3067 2026 L3064 2020" /> 
<path d="M3064 2020 L3061 2009" /> 
<path d="M3061 2009 L3061 2000" /> 
<path d="M3061 2000 L3064 1989" /> 
<path d="M3064 1989 L3067 1983" /> 
<path d="M3067 1983 L3073 1977" /> 
<path d="M3073 1977 L3081 1974" /> 
<path d="M3081 1974 L3087 1974" /> 
<path d="M3087 1974 L3096 1977" /> 
<path d="M3096 1977 L3099 1980" /> 
<g style = "stroke-linecap:round;" > 
<path d="M3099 1980 L3099 1980" /> 
</g><path d="M3139 2014 L3147 2017" /> 
<path d="M3147 2017 L3150 2023" /> 
<path d="M3150 2023 L3150 2026" /> 
<path d="M3150 2026 L3147 2031" /> 
<path d="M3147 2031 L3141 2034" /> 
<path d="M3141 2034 L3124 2034" /> 
<path d="M3124 2034 L3124 1994" /> 
<path d="M3124 1994 L3139 1994" /> 
<path d="M3139 1994 L3144 1997" /> 
<path d="M3144 1997 L3147 2003" /> 
<path d="M3147 2003 L3147 2006" /> 
<path d="M3147 2006 L3144 2011" /> 
<path d="M3144 2011 L3139 2014" /> 
<path d="M3139 2014 L3124 2014" /> 
<g style = "stroke-linecap:round;" > 
<path d="M3124 2014 L3124 2014" /> 
</g><path d="M3198 2031 L3192 2034" /> 
<path d="M3192 2034 L3181 2034" /> 
<path d="M3181 2034 L3175 2031" /> 
<path d="M3175 2031 L3172 2026" /> 
<path d="M3172 2026 L3172 2003" /> 
<path d="M3172 2003 L3175 1997" /> 
<path d="M3175 1997 L3181 1994" /> 
<path d="M3181 1994 L3192 1994" /> 
<path d="M3192 1994 L3198 1997" /> 
<path d="M3198 1997 L3201 2003" /> 
<path d="M3201 2003 L3201 2009" /> 
<path d="M3201 2009 L3172 2014" /> 
<g style = "stroke-linecap:round;" > 
<path d="M3172 2014 L3172 2014" /> 
</g><path d="M3218 1994 L3246 1994" /> 
<g style = "stroke-linecap:round;" > 
<path d="M3246 1994 L3246 1994" /> 
</g><path d="M3232 1994 L3232 2034" /> 
<g style = "stroke-linecap:round;" > 
<path d="M3232 2034 L3232 2034" /> 
</g><path d="M3275 2034 L3269 2031" /> 
<path d="M3269 2031 L3266 2029" /> 
<path d="M3266 2029 L3263 2023" /> 
<path d="M3263 2023 L3263 2006" /> 
<path d="M3263 2006 L3266 2000" /> 
<path d="M3266 2000 L3269 1997" /> 
<path d="M3269 1997 L3275 1994" /> 
<path d="M3275 1994 L3283 1994" /> 
<path d="M3283 1994 L3289 1997" /> 
<path d="M3289 1997 L3292 2000" /> 
<path d="M3292 2000 L3295 2006" /> 
<path d="M3295 2006 L3295 2023" /> 
<path d="M3295 2023 L3292 2029" /> 
<path d="M3292 2029 L3289 2031" /> 
<path d="M3289 2031 L3283 2034" /> 
<path d="M3283 2034 L3275 2034" /> 
<path d="M3349 2000 L3346 1997" /> 
<path d="M3346 1997 L3340 1994" /> 
<path d="M3340 1994 L3329 1994" /> 
<path d="M3329 1994 L3323 1997" /> 
<path d="M3323 1997 L3320 2000" /> 
<path d="M3320 2000 L3317 2006" /> 
<path d="M3317 2006 L3317 2023" /> 
<path d="M3317 2023 L3320 2029" /> 
<path d="M3320 2029 L3323 2031" /> 
<path d="M3323 2031 L3329 2034" /> 
<path d="M3329 2034 L3337 2034" /> 
<path d="M3337 2034 L3343 2031" /> 
<path d="M3343 2031 L3346 2029" /> 
<path d="M3346 2029 L3349 2023" /> 
<path d="M3349 2023 L3349 1986" /> 
<path d="M3349 1986 L3346 1980" /> 
<path d="M3346 1980 L3343 1977" /> 
<path d="M3343 1977 L3337 1974" /> 
<path d="M3337 1974 L3326 1974" /> 
<path d="M3326 1974 L3320 1977" /> 
<g style = "stroke-linecap:round;" > 
<path d="M3320 1977 L3320 1977" /> 
</g><path d="M3374 1994 L3374 2034" /> 
<path d="M3374 2034 L3403 1994" /> 
<path d="M3403 1994 L3403 2034" /> 
<g style = "stroke-linecap:round;" > 
<path d="M3403 2034 L3403 2034" /> 
</g><path d="M3440 2034 L3434 2031" /> 
<path d="M3434 2031 L3431 2029" /> 
<path d="M3431 2029 L3428 2023" /> 
<path d="M3428 2023 L3428 2006" /> 
<path d="M3428 2006 L3431 2000" /> 
<path d="M3431 2000 L3434 1997" /> 
<path d="M3434 1997 L3440 1994" /> 
<path d="M3440 1994 L3448 1994" /> 
<path d="M3448 1994 L3454 1997" /> 
<path d="M3454 1997 L3457 2000" /> 
<path d="M3457 2000 L3460 2006" /> 
<path d="M3460 2006 L3460 2023" /> 
<path d="M3460 2023 L3457 2029" /> 
<path d="M3457 2029 L3454 2031" /> 
<path d="M3454 2031 L3448 2034" /> 
<path d="M3448 2034 L3440 2034" /> 
<path d="M3514 2000 L3511 1997" /> 
<path d="M3511 1997 L3505 1994" /> 
<path d="M3505 1994 L3494 1994" /> 
<path d="M3494 1994 L3488 1997" /> 
<path d="M3488 1997 L3485 2000" /> 
<path d="M3485 2000 L3482 2006" /> 
<path d="M3482 2006 L3482 2023" /> 
<path d="M3482 2023 L3485 2029" /> 
<path d="M3485 2029 L3488 2031" /> 
<path d="M3488 2031 L3494 2034" /> 
<path d="M3494 2034 L3502 2034" /> 
<path d="M3502 2034 L3508 2031" /> 
<path d="M3508 2031 L3511 2029" /> 
<path d="M3511 2029 L3514 2023" /> 
<path d="M3514 2023 L3514 1986" /> 
<path d="M3514 1986 L3511 1980" /> 
<path d="M3511 1980 L3508 1977" /> 
<path d="M3508 1977 L3502 1974" /> 
<path d="M3502 1974 L3491 1974" /> 
<path d="M3491 1974 L3485 1977" /> 
<g style = "stroke-linecap:round;" > 
<path d="M3485 1977 L3485 1977" /> 
</g></g>
<g style="fill:#A00000; fill-opacity:0.0; 
  stroke:#A00000; stroke-linecap:round; stroke-linejoin:round; stroke-opacity:1.0; stroke-opacity:1.0; stroke-width:6" 
   transform="translate(0 0) scale(1 1)">
<path d="M5380 2800 L5380 2840" /> 
<g style = "stroke-linecap:round;" > 
<path d="M5380 2840 L5380 2840" /> 
</g><path d="M5400 2820 L5360 2820" /> 
<g style = "stroke-linecap:round;" > 
<path d="M5360 2820 L5360 2820" /> 
</g><path d="M5400 2850 L5200 2850" /> 
<g style = "stroke-linecap:round;" > 
<path d="M5200 2850 L5200 2850" /> 
</g><path d="M5300 2900 L5300 2950" /> 
<g style = "stroke-linecap:round;" > 
<path d="M5300 2950 L5300 2950" /> 
</g><path d="M5350 2900 L5250 2900" /> 
<g style = "stroke-linecap:round;" > 
<path d="M5250 2900 L5250 2900" /> 
</g><path d="M5300 3000 L5300 3050" /> 
<g style = "stroke-linecap:round;" > 
<path d="M5300 3050 L5300 3050" /> 
</g><path d="M5300 3100 L5300 3150" /> 
<g style = "stroke-linecap:round;" > 
<path d="M5300 3150 L5300 3150" /> 
</g><path d="M5400 3150 L5200 3150" /> 
<g style = "stroke-linecap:round;" > 
<path d="M5200 3150 L5200 3150" /> 
</g><path d="M5350 3200 L5250 3200" /> 
<g style = "stroke-linecap:round;" > 
<path d="M5250 3200 L5250 3200" /> 
</g><path d="M5300 2850 L5300 2650" /> 
<path d="M5285 2736 L5285 2764" /> 
<g style = "stroke-linecap:round;" > 
<path d="M5285 2764 L5285 2764" /> 
</g><path d="M5285 2750 L5235 2750" /> 
<path d="M5235 2750 L5242 2755" /> 
<path d="M5242 2755 L5247 2760" /> 
<path d="M5247 2760 L5250 2764" /> 
<g style = "stroke-linecap:round;" > 
<path d="M5250 2764 L5250 2764" /> 
</g><path d="M5300 3200 L5300 3300" /> 
<path d="M5240 3264 L5238 3262" /> 
<path d="M5238 3262 L5235 3257" /> 
<path d="M5235 3257 L5235 3245" /> 
<path d="M5235 3245 L5238 3241" /> 
<path d="M5238 3241 L5240 3238" /> 
<path d="M5240 3238 L5245 3236" /> 
<path d="M5245 3236 L5250 3236" /> 
<path d="M5250 3236 L5257 3238" /> 
<path d="M5257 3238 L5285 3267" /> 
<path d="M5285 3267 L5285 3236" /> 
<g style = "stroke-linecap:round;" > 
<path d="M5285 3236 L5285 3236" /> 
</g></g>
<g style="fill:#00A0A0; fill-opacity:0.0; 
  stroke:#00A0A0; stroke-linecap:round; stroke-linejoin:round; stroke-opacity:1.0; stroke-opacity:1.0; stroke-width:6" 
   transform="translate(0 0) scale(1 1)">
<path d="M5508 2864 L5502 2861" /> 
<path d="M5502 2861 L5493 2861" /> 
<path d="M5493 2861 L5485 2864" /> 
<path d="M5485 2864 L5479 2870" /> 
<path d="M5479 2870 L5476 2876" /> 
<path d="M5476 2876 L5473 2887" /> 
<path d="M5473 2887 L5473 2896" /> 
<path d="M5473 2896 L5476 2907" /> 
<path d="M5476 2907 L5479 2913" /> 
<path d="M5479 2913 L5485 2918" /> 
<path d="M5485 2918 L5493 2921" /> 
<path d="M5493 2921 L5499 2921" /> 
<path d="M5499 2921 L5508 2918" /> 
<path d="M5508 2918 L5511 2916" /> 
<path d="M5511 2916 L5511 2896" /> 
<path d="M5511 2896 L5499 2896" /> 
<g style = "stroke-linecap:round;" > 
<path d="M5499 2896 L5499 2896" /> 
</g><path d="M5556 2890 L5565 2893" /> 
<path d="M5565 2893 L5568 2896" /> 
<path d="M5568 2896 L5571 2901" /> 
<path d="M5571 2901 L5571 2910" /> 
<path d="M5571 2910 L5568 2916" /> 
<path d="M5568 2916 L5565 2918" /> 
<path d="M5565 2918 L5559 2921" /> 
<path d="M5559 2921 L5536 2921" /> 
<path d="M5536 2921 L5536 2861" /> 
<path d="M5536 2861 L5556 2861" /> 
<path d="M5556 2861 L5562 2864" /> 
<path d="M5562 2864 L5565 2867" /> 
<path d="M5565 2867 L5568 2873" /> 
<path d="M5568 2873 L5568 2878" /> 
<path d="M5568 2878 L5565 2884" /> 
<path d="M5565 2884 L5562 2887" /> 
<path d="M5562 2887 L5556 2890" /> 
<path d="M5556 2890 L5536 2890" /> 
<g style = "stroke-linecap:round;" > 
<path d="M5536 2890 L5536 2890" /> 
</g><path d="M5628 2921 L5593 2921" /> 
<g style = "stroke-linecap:round;" > 
<path d="M5593 2921 L5593 2921" /> 
</g><path d="M5611 2921 L5611 2861" /> 
<path d="M5611 2861 L5605 2870" /> 
<path d="M5605 2870 L5599 2876" /> 
<path d="M5599 2876 L5593 2878" /> 
<g style = "stroke-linecap:round;" > 
<path d="M5593 2878 L5593 2878" /> 
</g><path d="M5513 3071 L5525 3071" /> 
<path d="M5525 3071 L5530 3068" /> 
<path d="M5530 3068 L5533 3066" /> 
<path d="M5533 3066 L5539 3057" /> 
<path d="M5539 3057 L5542 3046" /> 
<path d="M5542 3046 L5542 3023" /> 
<path d="M5542 3023 L5539 3017" /> 
<path d="M5539 3017 L5536 3014" /> 
<path d="M5536 3014 L5530 3011" /> 
<path d="M5530 3011 L5519 3011" /> 
<path d="M5519 3011 L5513 3014" /> 
<path d="M5513 3014 L5510 3017" /> 
<path d="M5510 3017 L5507 3023" /> 
<path d="M5507 3023 L5507 3037" /> 
<path d="M5507 3037 L5510 3043" /> 
<path d="M5510 3043 L5513 3046" /> 
<path d="M5513 3046 L5519 3048" /> 
<path d="M5519 3048 L5530 3048" /> 
<path d="M5530 3048 L5536 3046" /> 
<path d="M5536 3046 L5539 3043" /> 
<path d="M5539 3043 L5542 3037" /> 
<g style = "stroke-linecap:round;" > 
<path d="M5542 3037 L5542 3037" /> 
</g><path d="M5559 3011 L5579 3071" /> 
<path d="M5579 3071 L5599 3011" /> 
<g style = "stroke-linecap:round;" > 
<path d="M5599 3011 L5599 3011" /> 
</g></g>
<g style="fill:#0000FF; fill-opacity:0.0; 
  stroke:#0000FF; stroke-linecap:round; stroke-linejoin:round; stroke-opacity:1.0; stroke-opacity:1.0; stroke-width:6" 
   transform="translate(0 0) scale(1 1)">
<path d="M4793 2974 L4764 2974" /> 
<path d="M4764 2974 L4764 3034" /> 
<path d="M4764 3034 L4781 3034" /> 
<path d="M4781 3034 L4790 3031" /> 
<path d="M4790 3031 L4796 3026" /> 
<path d="M4796 3026 L4799 3020" /> 
<path d="M4799 3020 L4799 3011" /> 
<path d="M4799 3011 L4796 3006" /> 
<path d="M4796 3006 L4790 3000" /> 
<path d="M4790 3000 L4781 2997" /> 
<path d="M4781 2997 L4764 2997" /> 
<g style = "stroke-linecap:round;" > 
<path d="M4764 2997 L4764 2997" /> 
</g><path d="M4850 3034 L4850 3003" /> 
<path d="M4850 3003 L4847 2997" /> 
<path d="M4847 2997 L4841 2994" /> 
<path d="M4841 2994 L4830 2994" /> 
<path d="M4830 2994 L4824 2997" /> 
<g style = "stroke-linecap:round;" > 
<path d="M4824 2997 L4824 2997" /> 
</g><path d="M4850 3031 L4844 3034" /> 
<path d="M4844 3034 L4830 3034" /> 
<path d="M4830 3034 L4824 3031" /> 
<path d="M4824 3031 L4821 3026" /> 
<path d="M4821 3026 L4821 3020" /> 
<path d="M4821 3020 L4824 3014" /> 
<path d="M4824 3014 L4830 3011" /> 
<path d="M4830 3011 L4844 3011" /> 
<path d="M4844 3011 L4850 3009" /> 
<g style = "stroke-linecap:round;" > 
<path d="M4850 3009 L4850 3009" /> 
</g><path d="M4870 2994 L4898 2994" /> 
<g style = "stroke-linecap:round;" > 
<path d="M4898 2994 L4898 2994" /> 
</g><path d="M4884 2994 L4884 3034" /> 
<g style = "stroke-linecap:round;" > 
<path d="M4884 3034 L4884 3034" /> 
</g><path d="M4944 3034 L4944 3003" /> 
<path d="M4944 3003 L4941 2997" /> 
<path d="M4941 2997 L4935 2994" /> 
<path d="M4935 2994 L4924 2994" /> 
<path d="M4924 2994 L4918 2997" /> 
<g style = "stroke-linecap:round;" > 
<path d="M4918 2997 L4918 2997" /> 
</g><path d="M4944 3031 L4938 3034" /> 
<path d="M4938 3034 L4924 3034" /> 
<path d="M4924 3034 L4918 3031" /> 
<path d="M4918 3031 L4915 3026" /> 
<path d="M4915 3026 L4915 3020" /> 
<path d="M4915 3020 L4918 3014" /> 
<path d="M4918 3014 L4924 3011" /> 
<path d="M4924 3011 L4938 3011" /> 
<path d="M4938 3011 L4944 3009" /> 
<g style = "stroke-linecap:round;" > 
<path d="M4944 3009 L4944 3009" /> 
</g><path d="M4972 2994 L4972 3054" /> 
<g style = "stroke-linecap:round;" > 
<path d="M4972 3054 L4972 3054" /> 
</g><path d="M4972 2997 L4978 2994" /> 
<path d="M4978 2994 L4989 2994" /> 
<path d="M4989 2994 L4995 2997" /> 
<path d="M4995 2997 L4998 3000" /> 
<path d="M4998 3000 L5001 3006" /> 
<path d="M5001 3006 L5001 3023" /> 
<path d="M5001 3023 L4998 3029" /> 
<path d="M4998 3029 L4995 3031" /> 
<path d="M4995 3031 L4989 3034" /> 
<path d="M4989 3034 L4978 3034" /> 
<path d="M4978 3034 L4972 3031" /> 
<g style = "stroke-linecap:round;" > 
<path d="M4972 3031 L4972 3031" /> 
</g><path d="M5049 3031 L5043 3034" /> 
<path d="M5043 3034 L5032 3034" /> 
<path d="M5032 3034 L5026 3031" /> 
<path d="M5026 3031 L5023 3026" /> 
<path d="M5023 3026 L5023 3003" /> 
<path d="M5023 3003 L5026 2997" /> 
<path d="M5026 2997 L5032 2994" /> 
<path d="M5032 2994 L5043 2994" /> 
<path d="M5043 2994 L5049 2997" /> 
<path d="M5049 2997 L5052 3003" /> 
<path d="M5052 3003 L5052 3009" /> 
<path d="M5052 3009 L5023 3014" /> 
<g style = "stroke-linecap:round;" > 
<path d="M5023 3014 L5023 3014" /> 
</g><path d="M5089 3017 L5074 3034" /> 
<g style = "stroke-linecap:round;" > 
<path d="M5074 3034 L5074 3034" /> 
</g><path d="M5100 3034 L5100 2994" /> 
<path d="M5100 2994 L5083 2994" /> 
<path d="M5083 2994 L5077 2997" /> 
<path d="M5077 2997 L5074 3003" /> 
<path d="M5074 3003 L5074 3009" /> 
<path d="M5074 3009 L5077 3014" /> 
<path d="M5077 3014 L5083 3017" /> 
<path d="M5083 3017 L5100 3017" /> 
<g style = "stroke-linecap:round;" > 
<path d="M5100 3017 L5100 3017" /> 
</g><path d="M4767 3124 L4779 3124" /> 
<path d="M4779 3124 L4784 3121" /> 
<path d="M4784 3121 L4787 3119" /> 
<path d="M4787 3119 L4793 3110" /> 
<path d="M4793 3110 L4796 3099" /> 
<path d="M4796 3099 L4796 3076" /> 
<path d="M4796 3076 L4793 3070" /> 
<path d="M4793 3070 L4790 3067" /> 
<path d="M4790 3067 L4784 3064" /> 
<path d="M4784 3064 L4773 3064" /> 
<path d="M4773 3064 L4767 3067" /> 
<path d="M4767 3067 L4764 3070" /> 
<path d="M4764 3070 L4761 3076" /> 
<path d="M4761 3076 L4761 3090" /> 
<path d="M4761 3090 L4764 3096" /> 
<path d="M4764 3096 L4767 3099" /> 
<path d="M4767 3099 L4773 3101" /> 
<path d="M4773 3101 L4784 3101" /> 
<path d="M4784 3101 L4790 3099" /> 
<path d="M4790 3099 L4793 3096" /> 
<path d="M4793 3096 L4796 3090" /> 
<g style = "stroke-linecap:round;" > 
<path d="M4796 3090 L4796 3090" /> 
</g><path d="M4882 3104 L4890 3107" /> 
<path d="M4890 3107 L4893 3113" /> 
<path d="M4893 3113 L4893 3116" /> 
<path d="M4893 3116 L4890 3121" /> 
<path d="M4890 3121 L4884 3124" /> 
<path d="M4884 3124 L4867 3124" /> 
<path d="M4867 3124 L4867 3084" /> 
<path d="M4867 3084 L4882 3084" /> 
<path d="M4882 3084 L4887 3087" /> 
<path d="M4887 3087 L4890 3093" /> 
<path d="M4890 3093 L4890 3096" /> 
<path d="M4890 3096 L4887 3101" /> 
<path d="M4887 3101 L4882 3104" /> 
<path d="M4882 3104 L4867 3104" /> 
<g style = "stroke-linecap:round;" > 
<path d="M4867 3104 L4867 3104" /> 
</g><path d="M4927 3124 L4921 3121" /> 
<path d="M4921 3121 L4918 3119" /> 
<path d="M4918 3119 L4915 3113" /> 
<path d="M4915 3113 L4915 3096" /> 
<path d="M4915 3096 L4918 3090" /> 
<path d="M4918 3090 L4921 3087" /> 
<path d="M4921 3087 L4927 3084" /> 
<path d="M4927 3084 L4935 3084" /> 
<path d="M4935 3084 L4941 3087" /> 
<path d="M4941 3087 L4944 3090" /> 
<path d="M4944 3090 L4947 3096" /> 
<path d="M4947 3096 L4947 3113" /> 
<path d="M4947 3113 L4944 3119" /> 
<path d="M4944 3119 L4941 3121" /> 
<path d="M4941 3121 L4935 3124" /> 
<path d="M4935 3124 L4927 3124" /> 
<path d="M4995 3124 L4995 3084" /> 
<path d="M4995 3084 L4987 3084" /> 
<path d="M4987 3084 L4981 3087" /> 
<path d="M4981 3087 L4978 3093" /> 
<path d="M4978 3093 L4975 3116" /> 
<path d="M4975 3116 L4972 3121" /> 
<path d="M4972 3121 L4967 3124" /> 
<g style = "stroke-linecap:round;" > 
<path d="M4967 3124 L4967 3124" /> 
</g><path d="M5023 3084 L5023 3124" /> 
<path d="M5023 3124 L5038 3124" /> 
<path d="M5038 3124 L5043 3121" /> 
<path d="M5043 3121 L5046 3116" /> 
<path d="M5046 3116 L5046 3107" /> 
<path d="M5046 3107 L5043 3101" /> 
<path d="M5043 3101 L5038 3099" /> 
<path d="M5038 3099 L5023 3099" /> 
<g style = "stroke-linecap:round;" > 
<path d="M5023 3099 L5023 3099" /> 
</g><path d="M5064 3084 L5092 3084" /> 
<g style = "stroke-linecap:round;" > 
<path d="M5092 3084 L5092 3084" /> 
</g><path d="M5078 3084 L5078 3124" /> 
<g style = "stroke-linecap:round;" > 
<path d="M5078 3124 L5078 3124" /> 
</g></g>
<g style="fill:#A00000; fill-opacity:0.0; 
  stroke:#A00000; stroke-linecap:round; stroke-linejoin:round; stroke-opacity:1.0; stroke-opacity:1.0; stroke-width:6" 
   transform="translate(0 0) scale(1 1)">
<path d="M5300 2100 L5200 1900" /> 
<g style = "stroke-linecap:round;" > 
<path d="M5200 1900 L5200 1900" /> 
</g><path d="M5300 2100 L5300 2300" /> 
<path d="M5285 2186 L5285 2214" /> 
<g style = "stroke-linecap:round;" > 
<path d="M5285 2214 L5285 2214" /> 
</g><path d="M5285 2200 L5235 2200" /> 
<path d="M5235 2200 L5242 2205" /> 
<path d="M5242 2205 L5247 2210" /> 
<path d="M5247 2210 L5250 2214" /> 
<g style = "stroke-linecap:round;" > 
<path d="M5250 2214 L5250 2214" /> 
</g><path d="M5300 1900 L5300 1700" /> 
<path d="M5240 1814 L5238 1812" /> 
<path d="M5238 1812 L5235 1807" /> 
<path d="M5235 1807 L5235 1795" /> 
<path d="M5235 1795 L5238 1791" /> 
<path d="M5238 1791 L5240 1788" /> 
<path d="M5240 1788 L5245 1786" /> 
<path d="M5245 1786 L5250 1786" /> 
<path d="M5250 1786 L5257 1788" /> 
<path d="M5257 1788 L5285 1817" /> 
<path d="M5285 1817 L5285 1786" /> 
<g style = "stroke-linecap:round;" > 
<path d="M5285 1786 L5285 1786" /> 
</g></g>
<g style="fill:#00A0A0; fill-opacity:0.0; 
  stroke:#00A0A0; stroke-linecap:round; stroke-linejoin:round; stroke-opacity:1.0; stroke-opacity:1.0; stroke-width:6" 
   transform="translate(0 0) scale(1 1)">
<path d="M5428 1924 L5437 1927" /> 
<path d="M5437 1927 L5451 1927" /> 
<path d="M5451 1927 L5457 1924" /> 
<path d="M5457 1924 L5460 1922" /> 
<path d="M5460 1922 L5463 1916" /> 
<path d="M5463 1916 L5463 1910" /> 
<path d="M5463 1910 L5460 1904" /> 
<path d="M5460 1904 L5457 1902" /> 
<path d="M5457 1902 L5451 1899" /> 
<path d="M5451 1899 L5440 1896" /> 
<path d="M5440 1896 L5434 1893" /> 
<path d="M5434 1893 L5431 1890" /> 
<path d="M5431 1890 L5428 1884" /> 
<path d="M5428 1884 L5428 1879" /> 
<path d="M5428 1879 L5431 1873" /> 
<path d="M5431 1873 L5434 1870" /> 
<path d="M5434 1870 L5440 1867" /> 
<path d="M5440 1867 L5454 1867" /> 
<path d="M5454 1867 L5463 1870" /> 
<g style = "stroke-linecap:round;" > 
<path d="M5463 1870 L5463 1870" /> 
</g><path d="M5485 1910 L5514 1910" /> 
<g style = "stroke-linecap:round;" > 
<path d="M5514 1910 L5514 1910" /> 
</g><path d="M5480 1927 L5500 1867" /> 
<path d="M5500 1867 L5520 1927" /> 
<g style = "stroke-linecap:round;" > 
<path d="M5520 1927 L5520 1927" /> 
</g><path d="M5571 1927 L5536 1927" /> 
<g style = "stroke-linecap:round;" > 
<path d="M5536 1927 L5536 1927" /> 
</g><path d="M5554 1927 L5554 1867" /> 
<path d="M5554 1867 L5548 1876" /> 
<path d="M5548 1876 L5542 1882" /> 
<path d="M5542 1882 L5536 1884" /> 
<g style = "stroke-linecap:round;" > 
<path d="M5536 1884 L5536 1884" /> 
</g><path d="M5457 2124 L5466 2127" /> 
<path d="M5466 2127 L5480 2127" /> 
<path d="M5480 2127 L5486 2124" /> 
<path d="M5486 2124 L5489 2122" /> 
<path d="M5489 2122 L5492 2116" /> 
<path d="M5492 2116 L5492 2110" /> 
<path d="M5492 2110 L5489 2104" /> 
<path d="M5489 2104 L5486 2102" /> 
<path d="M5486 2102 L5480 2099" /> 
<path d="M5480 2099 L5469 2096" /> 
<path d="M5469 2096 L5463 2093" /> 
<path d="M5463 2093 L5460 2090" /> 
<path d="M5460 2090 L5457 2084" /> 
<path d="M5457 2084 L5457 2079" /> 
<path d="M5457 2079 L5460 2073" /> 
<path d="M5460 2073 L5463 2070" /> 
<path d="M5463 2070 L5469 2067" /> 
<path d="M5469 2067 L5483 2067" /> 
<path d="M5483 2067 L5492 2070" /> 
<g style = "stroke-linecap:round;" > 
<path d="M5492 2070 L5492 2070" /> 
</g><path d="M5514 2110 L5543 2110" /> 
<g style = "stroke-linecap:round;" > 
<path d="M5543 2110 L5543 2110" /> 
</g><path d="M5509 2127 L5529 2067" /> 
<path d="M5529 2067 L5549 2127" /> 
<g style = "stroke-linecap:round;" > 
<path d="M5549 2127 L5549 2127" /> 
</g></g>
<g style="fill:#0000FF; fill-opacity:0.0; 
  stroke:#0000FF; stroke-linecap:round; stroke-linejoin:round; stroke-opacity:1.0; stroke-opacity:1.0; stroke-width:6" 
   transform="translate(0 0) scale(1 1)">
<path d="M4534 2003 L4543 2006" /> 
<path d="M4543 2006 L4546 2009" /> 
<path d="M4546 2009 L4549 2014" /> 
<path d="M4549 2014 L4549 2023" /> 
<path d="M4549 2023 L4546 2029" /> 
<path d="M4546 2029 L4543 2031" /> 
<path d="M4543 2031 L4537 2034" /> 
<path d="M4537 2034 L4514 2034" /> 
<path d="M4514 2034 L4514 1974" /> 
<path d="M4514 1974 L4534 1974" /> 
<path d="M4534 1974 L4540 1977" /> 
<path d="M4540 1977 L4543 1980" /> 
<path d="M4543 1980 L4546 1986" /> 
<path d="M4546 1986 L4546 1991" /> 
<path d="M4546 1991 L4543 1997" /> 
<path d="M4543 1997 L4540 2000" /> 
<path d="M4540 2000 L4534 2003" /> 
<path d="M4534 2003 L4514 2003" /> 
<g style = "stroke-linecap:round;" > 
<path d="M4514 2003 L4514 2003" /> 
</g><path d="M4614 1994 L4614 2034" /> 
<g style = "stroke-linecap:round;" > 
<path d="M4614 2034 L4614 2034" /> 
</g><path d="M4574 1994 L4574 2034" /> 
<path d="M4574 2034 L4589 2034" /> 
<path d="M4589 2034 L4594 2031" /> 
<path d="M4594 2031 L4597 2026" /> 
<path d="M4597 2026 L4597 2017" /> 
<path d="M4597 2017 L4594 2011" /> 
<path d="M4594 2011 L4589 2009" /> 
<path d="M4589 2009 L4574 2009" /> 
<g style = "stroke-linecap:round;" > 
<path d="M4574 2009 L4574 2009" /> 
</g><path d="M4643 1994 L4643 2034" /> 
<g style = "stroke-linecap:round;" > 
<path d="M4643 2034 L4643 2034" /> 
</g><path d="M4649 2011 L4666 2034" /> 
<g style = "stroke-linecap:round;" > 
<path d="M4666 2034 L4666 2034" /> 
</g><path d="M4666 1994 L4643 2017" /> 
<g style = "stroke-linecap:round;" > 
<path d="M4643 2017 L4643 2017" /> 
</g><path d="M4715 2034 L4715 1994" /> 
<path d="M4715 1994 L4707 1994" /> 
<path d="M4707 1994 L4701 1997" /> 
<path d="M4701 1997 L4698 2003" /> 
<path d="M4698 2003 L4695 2026" /> 
<path d="M4695 2026 L4692 2031" /> 
<path d="M4692 2031 L4687 2034" /> 
<g style = "stroke-linecap:round;" > 
<path d="M4687 2034 L4687 2034" /> 
</g><path d="M4743 2014 L4760 2014" /> 
<g style = "stroke-linecap:round;" > 
<path d="M4760 2014 L4760 2014" /> 
</g><path d="M4743 1994 L4743 2034" /> 
<g style = "stroke-linecap:round;" > 
<path d="M4743 2034 L4743 2034" /> 
</g><path d="M4772 2034 L4766 2031" /> 
<path d="M4766 2031 L4763 2029" /> 
<path d="M4763 2029 L4760 2023" /> 
<path d="M4760 2023 L4760 2006" /> 
<path d="M4760 2006 L4763 2000" /> 
<path d="M4763 2000 L4766 1997" /> 
<path d="M4766 1997 L4772 1994" /> 
<path d="M4772 1994 L4780 1994" /> 
<path d="M4780 1994 L4786 1997" /> 
<path d="M4786 1997 L4789 2000" /> 
<path d="M4789 2000 L4792 2006" /> 
<path d="M4792 2006 L4792 2023" /> 
<path d="M4792 2023 L4789 2029" /> 
<path d="M4789 2029 L4786 2031" /> 
<path d="M4786 2031 L4780 2034" /> 
<path d="M4780 2034 L4772 2034" /> 
<path d="M4837 1994 L4837 2034" /> 
<g style = "stroke-linecap:round;" > 
<path d="M4837 2034 L4837 2034" /> 
</g><path d="M4814 1994 L4814 2009" /> 
<path d="M4814 2009 L4817 2014" /> 
<path d="M4817 2014 L4823 2017" /> 
<path d="M4823 2017 L4837 2017" /> 
<g style = "stroke-linecap:round;" > 
<path d="M4837 2017 L4837 2017" /> 
</g><path d="M4894 2034 L4894 2003" /> 
<path d="M4894 2003 L4891 1997" /> 
<path d="M4891 1997 L4885 1994" /> 
<path d="M4885 1994 L4874 1994" /> 
<path d="M4874 1994 L4868 1997" /> 
<g style = "stroke-linecap:round;" > 
<path d="M4868 1997 L4868 1997" /> 
</g><path d="M4894 2031 L4888 2034" /> 
<path d="M4888 2034 L4874 2034" /> 
<path d="M4874 2034 L4868 2031" /> 
<path d="M4868 2031 L4865 2026" /> 
<path d="M4865 2026 L4865 2020" /> 
<path d="M4865 2020 L4868 2014" /> 
<path d="M4868 2014 L4874 2011" /> 
<path d="M4874 2011 L4888 2011" /> 
<path d="M4888 2011 L4894 2009" /> 
<g style = "stroke-linecap:round;" > 
<path d="M4894 2009 L4894 2009" /> 
</g><path d="M4914 1994 L4942 1994" /> 
<g style = "stroke-linecap:round;" > 
<path d="M4942 1994 L4942 1994" /> 
</g><path d="M4928 1994 L4928 2034" /> 
<g style = "stroke-linecap:round;" > 
<path d="M4928 2034 L4928 2034" /> 
</g><path d="M4985 2031 L4979 2034" /> 
<path d="M4979 2034 L4968 2034" /> 
<path d="M4968 2034 L4962 2031" /> 
<path d="M4962 2031 L4959 2026" /> 
<path d="M4959 2026 L4959 2003" /> 
<path d="M4959 2003 L4962 1997" /> 
<path d="M4962 1997 L4968 1994" /> 
<path d="M4968 1994 L4979 1994" /> 
<path d="M4979 1994 L4985 1997" /> 
<path d="M4985 1997 L4988 2003" /> 
<path d="M4988 2003 L4988 2009" /> 
<path d="M4988 2009 L4959 2014" /> 
<g style = "stroke-linecap:round;" > 
<path d="M4959 2014 L4959 2014" /> 
</g><path d="M5036 2034 L5036 1994" /> 
<path d="M5036 1994 L5028 1994" /> 
<path d="M5028 1994 L5022 1997" /> 
<path d="M5022 1997 L5019 2003" /> 
<path d="M5019 2003 L5016 2026" /> 
<path d="M5016 2026 L5013 2031" /> 
<path d="M5013 2031 L5008 2034" /> 
<g style = "stroke-linecap:round;" > 
<path d="M5008 2034 L5008 2034" /> 
</g><path d="M5064 1994 L5064 2034" /> 
<path d="M5064 2034 L5079 2034" /> 
<path d="M5079 2034 L5084 2031" /> 
<path d="M5084 2031 L5087 2026" /> 
<path d="M5087 2026 L5087 2017" /> 
<path d="M5087 2017 L5084 2011" /> 
<path d="M5084 2011 L5079 2009" /> 
<path d="M5079 2009 L5064 2009" /> 
<g style = "stroke-linecap:round;" > 
<path d="M5064 2009 L5064 2009" /> 
</g></g>
<g style="fill:#0000FF; fill-opacity:0.0; 
  stroke:#00A000; stroke-linecap:round; stroke-linejoin:round; stroke-opacity:1.0; stroke-opacity:1.0; stroke-width:6" 
   transform="translate(0 0) scale(1 1)">
<path d="M5300 1700 L5300 1400" /> 
<path d="M5300 1400 L2550 1400" /> 
<path d="M5300 3300 L5300 3550" /> 
<path d="M5300 3550 L2550 3550" /> 
<path d="M3950 1650 L3950 1400" /> 
</g>
<g style="fill:#00A000; fill-opacity:1.0; 
  stroke:#00A000; stroke-linecap:round; stroke-linejoin:round; stroke-opacity:1.0; stroke-opacity:1.0; stroke-width:0" 
   transform="translate(0 0) scale(1 1)">
<ellipse cx="3950" cy="1400" rx="16" ry="16"  /> 
</g>
<g style="fill:#00A000; fill-opacity:1.0; 
  stroke:#00A000; stroke-linecap:round; stroke-linejoin:round; stroke-opacity:1.0; stroke-opacity:1.0; stroke-width:6" 
   transform="translate(0 0) scale(1 1)">
<path d="M3950 3300 L3950 3550" /> 
</g>
<g style="fill:#00A000; fill-opacity:1.0; 
  stroke:#00A000; stroke-linecap:round; stroke-linejoin:round; stroke-opacity:1.0; stroke-opacity:1.0; stroke-width:0" 
   transform="translate(0 0) scale(1 1)">
<ellipse cx="3950" cy="3550" rx="16" ry="16"  /> 
</g>
<g style="fill:#00A000; fill-opacity:1.0; 
  stroke:#00A000; stroke-linecap:round; stroke-linejoin:round; stroke-opacity:1.0; stroke-opacity:1.0; stroke-width:6" 
   transform="translate(0 0) scale(1 1)">
<path d="M5300 2300 L5300 2650" /> 
</g> 
</svg> 
