<?xml version="1.0" standalone="no"?>
<!DOCTYPE svg PUBLIC "-//W3C//DTD SVG 1.1//EN" 
"http://www.w3.org/Graphics/SVG/1.1/DTD/svg11.dtd"> 
<svg
  xmlns="http://www.w3.org/2000/svg"
  version="1.1"
  width="11.7in" height="8.267in" viewBox="0 0 11700 8267 "
>
  <title>SVG Picture created as fet.svg </title>
  <desc>Picture generated by wxSVG v0101 </desc>
  <g style="fill:black; stroke:black; stroke-width:1">
</g>
<g style="fill:#000000; fill-opacity:0.0; 
  stroke:#00A000; stroke-linecap:round; stroke-linejoin:round; stroke-opacity:1.0; stroke-opacity:1.0; stroke-width:6" 
   transform="translate(0 0) scale(1 1)">
<path d="M4750 3400 L4750 3600" /> 
<path d="M3800 3000 L3800 2600" /> 
<path d="M4250 4100 L3800 4100" /> 
<path d="M5650 3250 L5650 2900" /> 
<path d="M4750 4200 L4750 4350" /> 
<path d="M4750 4350 L5650 4350" /> 
<path d="M5650 4350 L5650 3900" /> 
<path d="M4750 2000 L4750 1800" /> 
<path d="M5650 2300 L5650 1800" /> 
<path d="M3800 4100 L3800 3600" /> 
<path d="M3800 2000 L3800 1800" /> 
<path d="M3800 1800 L5650 1800" /> 
</g>
<g style="fill:#00A000; fill-opacity:1.0; 
  stroke:#00A000; stroke-linecap:round; stroke-linejoin:round; stroke-opacity:1.0; stroke-opacity:1.0; stroke-width:0" 
   transform="translate(0 0) scale(1 1)">
<ellipse cx="4750" cy="1800" rx="16" ry="16"  /> 
</g>
<g style="fill:#00A000; fill-opacity:1.0; 
  stroke:#00A000; stroke-linecap:round; stroke-linejoin:round; stroke-opacity:1.0; stroke-opacity:1.0; stroke-width:6" 
   transform="translate(0 0) scale(1 1)">
<path d="M4750 2800 L4750 2600" /> 
</g>
<g style="fill:#000000; fill-opacity:0.0; 
  stroke:#A00000; stroke-linecap:round; stroke-linejoin:round; stroke-opacity:1.0; stroke-opacity:1.0; stroke-width:6" 
   transform="translate(0 0) scale(1 1)">
<polygon style="fill-rule:evenodd; " 
points="3725,2500
3725,2500
3725,2100
3875,2100
3875,2500
" /> 
<path d="M3800 2500 L3800 2600" /> 
</g>
<g style="fill:#A00000; fill-opacity:0.0; 
  stroke:#A00000; stroke-linecap:round; stroke-linejoin:round; stroke-opacity:1.0; stroke-opacity:1.0; stroke-width:6" 
   transform="translate(0 0) scale(1 1)">
<path d="M3785 2536 L3785 2564" /> 
<g style = "stroke-linecap:round;" > 
<path d="M3785 2564 L3785 2564" /> 
</g><path d="M3785 2550 L3735 2550" /> 
<path d="M3735 2550 L3742 2555" /> 
<path d="M3742 2555 L3747 2560" /> 
<path d="M3747 2560 L3750 2564" /> 
<g style = "stroke-linecap:round;" > 
<path d="M3750 2564 L3750 2564" /> 
</g><path d="M3800 2100 L3800 2000" /> 
<path d="M3740 2064 L3738 2062" /> 
<path d="M3738 2062 L3735 2057" /> 
<path d="M3735 2057 L3735 2045" /> 
<path d="M3735 2045 L3738 2041" /> 
<path d="M3738 2041 L3740 2038" /> 
<path d="M3740 2038 L3745 2036" /> 
<path d="M3745 2036 L3750 2036" /> 
<path d="M3750 2036 L3757 2038" /> 
<path d="M3757 2038 L3785 2067" /> 
<path d="M3785 2067 L3785 2036" /> 
<g style = "stroke-linecap:round;" > 
<path d="M3785 2036 L3785 2036" /> 
</g></g>
<g style="fill:#00A0A0; fill-opacity:0.0; 
  stroke:#00A0A0; stroke-linecap:round; stroke-linejoin:round; stroke-opacity:1.0; stroke-opacity:1.0; stroke-width:6" 
   transform="translate(0 0) scale(1 1)">
<path d="M4040 2227 L4020 2199" /> 
<g style = "stroke-linecap:round;" > 
<path d="M4020 2199 L4020 2199" /> 
</g><path d="M4005 2227 L4005 2167" /> 
<path d="M4005 2167 L4028 2167" /> 
<path d="M4028 2167 L4034 2170" /> 
<path d="M4034 2170 L4037 2173" /> 
<path d="M4037 2173 L4040 2179" /> 
<path d="M4040 2179 L4040 2187" /> 
<path d="M4040 2187 L4037 2193" /> 
<path d="M4037 2193 L4034 2196" /> 
<path d="M4034 2196 L4028 2199" /> 
<path d="M4028 2199 L4005 2199" /> 
<g style = "stroke-linecap:round;" > 
<path d="M4005 2199 L4005 2199" /> 
</g><path d="M4097 2227 L4062 2227" /> 
<g style = "stroke-linecap:round;" > 
<path d="M4062 2227 L4062 2227" /> 
</g><path d="M4080 2227 L4080 2167" /> 
<path d="M4080 2167 L4074 2176" /> 
<path d="M4074 2176 L4068 2182" /> 
<path d="M4068 2182 L4062 2184" /> 
<g style = "stroke-linecap:round;" > 
<path d="M4062 2184 L4062 2184" /> 
</g><path d="M4014 2377 L3979 2377" /> 
<g style = "stroke-linecap:round;" > 
<path d="M3979 2377 L3979 2377" /> 
</g><path d="M3997 2377 L3997 2317" /> 
<path d="M3997 2317 L3991 2326" /> 
<path d="M3991 2326 L3985 2332" /> 
<path d="M3985 2332 L3979 2334" /> 
<g style = "stroke-linecap:round;" > 
<path d="M3979 2334 L3979 2334" /> 
</g><path d="M4051 2317 L4056 2317" /> 
<path d="M4056 2317 L4062 2320" /> 
<path d="M4062 2320 L4065 2323" /> 
<path d="M4065 2323 L4068 2329" /> 
<path d="M4068 2329 L4071 2340" /> 
<path d="M4071 2340 L4071 2354" /> 
<path d="M4071 2354 L4068 2366" /> 
<path d="M4068 2366 L4065 2372" /> 
<path d="M4065 2372 L4062 2374" /> 
<path d="M4062 2374 L4056 2377" /> 
<path d="M4056 2377 L4051 2377" /> 
<path d="M4051 2377 L4045 2374" /> 
<path d="M4045 2374 L4042 2372" /> 
<path d="M4042 2372 L4039 2366" /> 
<path d="M4039 2366 L4036 2354" /> 
<path d="M4036 2354 L4036 2340" /> 
<path d="M4036 2340 L4039 2329" /> 
<path d="M4039 2329 L4042 2323" /> 
<path d="M4042 2323 L4045 2320" /> 
<path d="M4045 2320 L4051 2317" /> 
<path d="M4096 2377 L4096 2317" /> 
<g style = "stroke-linecap:round;" > 
<path d="M4096 2317 L4096 2317" /> 
</g><path d="M4102 2354 L4119 2377" /> 
<g style = "stroke-linecap:round;" > 
<path d="M4119 2377 L4119 2377" /> 
</g><path d="M4119 2337 L4096 2360" /> 
<g style = "stroke-linecap:round;" > 
<path d="M4096 2360 L4096 2360" /> 
</g></g>
<g style="fill:#A00000; fill-opacity:0.0; 
  stroke:#A00000; stroke-linecap:round; stroke-linejoin:round; stroke-opacity:1.0; stroke-opacity:1.0; stroke-width:6" 
   transform="translate(0 0) scale(1 1)">
<path d="M3800 3400 L3700 3200" /> 
<g style = "stroke-linecap:round;" > 
<path d="M3700 3200 L3700 3200" /> 
</g><path d="M3800 3400 L3800 3600" /> 
<path d="M3785 3486 L3785 3514" /> 
<g style = "stroke-linecap:round;" > 
<path d="M3785 3514 L3785 3514" /> 
</g><path d="M3785 3500 L3735 3500" /> 
<path d="M3735 3500 L3742 3505" /> 
<path d="M3742 3505 L3747 3510" /> 
<path d="M3747 3510 L3750 3514" /> 
<g style = "stroke-linecap:round;" > 
<path d="M3750 3514 L3750 3514" /> 
</g><path d="M3800 3200 L3800 3000" /> 
<path d="M3740 3114 L3738 3112" /> 
<path d="M3738 3112 L3735 3107" /> 
<path d="M3735 3107 L3735 3095" /> 
<path d="M3735 3095 L3738 3091" /> 
<path d="M3738 3091 L3740 3088" /> 
<path d="M3740 3088 L3745 3086" /> 
<path d="M3745 3086 L3750 3086" /> 
<path d="M3750 3086 L3757 3088" /> 
<path d="M3757 3088 L3785 3117" /> 
<path d="M3785 3117 L3785 3086" /> 
<g style = "stroke-linecap:round;" > 
<path d="M3785 3086 L3785 3086" /> 
</g></g>
<g style="fill:#00A0A0; fill-opacity:0.0; 
  stroke:#00A0A0; stroke-linecap:round; stroke-linejoin:round; stroke-opacity:1.0; stroke-opacity:1.0; stroke-width:6" 
   transform="translate(0 0) scale(1 1)">
<path d="M3928 3324 L3937 3327" /> 
<path d="M3937 3327 L3951 3327" /> 
<path d="M3951 3327 L3957 3324" /> 
<path d="M3957 3324 L3960 3322" /> 
<path d="M3960 3322 L3963 3316" /> 
<path d="M3963 3316 L3963 3310" /> 
<path d="M3963 3310 L3960 3304" /> 
<path d="M3960 3304 L3957 3302" /> 
<path d="M3957 3302 L3951 3299" /> 
<path d="M3951 3299 L3940 3296" /> 
<path d="M3940 3296 L3934 3293" /> 
<path d="M3934 3293 L3931 3290" /> 
<path d="M3931 3290 L3928 3284" /> 
<path d="M3928 3284 L3928 3279" /> 
<path d="M3928 3279 L3931 3273" /> 
<path d="M3931 3273 L3934 3270" /> 
<path d="M3934 3270 L3940 3267" /> 
<path d="M3940 3267 L3954 3267" /> 
<path d="M3954 3267 L3963 3270" /> 
<g style = "stroke-linecap:round;" > 
<path d="M3963 3270 L3963 3270" /> 
</g><path d="M3985 3310 L4014 3310" /> 
<g style = "stroke-linecap:round;" > 
<path d="M4014 3310 L4014 3310" /> 
</g><path d="M3980 3327 L4000 3267" /> 
<path d="M4000 3267 L4020 3327" /> 
<g style = "stroke-linecap:round;" > 
<path d="M4020 3327 L4020 3327" /> 
</g><path d="M4071 3327 L4036 3327" /> 
<g style = "stroke-linecap:round;" > 
<path d="M4036 3327 L4036 3327" /> 
</g><path d="M4054 3327 L4054 3267" /> 
<path d="M4054 3267 L4048 3276" /> 
<path d="M4048 3276 L4042 3282" /> 
<path d="M4042 3282 L4036 3284" /> 
<g style = "stroke-linecap:round;" > 
<path d="M4036 3284 L4036 3284" /> 
</g></g>
<g style="fill:#A00000; fill-opacity:0.0; 
  stroke:#A00000; stroke-linecap:round; stroke-linejoin:round; stroke-opacity:1.0; stroke-opacity:1.0; stroke-width:6" 
   transform="translate(0 0) scale(1 1)">
<path d="M4850 2400 L4650 2400" /> 
<g style = "stroke-linecap:round;" > 
<path d="M4650 2400 L4650 2400" /> 
</g><path d="M4640 2280 L4505 2385" /> 
<path d="M4505 2385 L4545 2325" /> 
<g style = "stroke-linecap:round;" > 
<path d="M4545 2325 L4545 2325" /> 
</g><path d="M4670 2340 L4540 2440" /> 
<path d="M4540 2440 L4585 2375" /> 
<g style = "stroke-linecap:round;" > 
<path d="M4585 2375 L4585 2375" /> 
</g><path d="M4850 2200 L4650 2200" /> 
<path d="M4650 2200 L4750 2400" /> 
<path d="M4750 2400 L4850 2200" /> 
<path d="M4750 2200 L4750 2000" /> 
<path d="M4735 2086 L4735 2114" /> 
<g style = "stroke-linecap:round;" > 
<path d="M4735 2114 L4735 2114" /> 
</g><path d="M4735 2100 L4685 2100" /> 
<path d="M4685 2100 L4692 2105" /> 
<path d="M4692 2105 L4697 2110" /> 
<path d="M4697 2110 L4700 2114" /> 
<g style = "stroke-linecap:round;" > 
<path d="M4700 2114 L4700 2114" /> 
</g><path d="M4750 2400 L4750 2600" /> 
<path d="M4690 2514 L4688 2512" /> 
<path d="M4688 2512 L4685 2507" /> 
<path d="M4685 2507 L4685 2495" /> 
<path d="M4685 2495 L4688 2491" /> 
<path d="M4688 2491 L4690 2488" /> 
<path d="M4690 2488 L4695 2486" /> 
<path d="M4695 2486 L4700 2486" /> 
<path d="M4700 2486 L4707 2488" /> 
<path d="M4707 2488 L4735 2517" /> 
<path d="M4735 2517 L4735 2486" /> 
<g style = "stroke-linecap:round;" > 
<path d="M4735 2486 L4735 2486" /> 
</g></g>
<g style="fill:#00A0A0; fill-opacity:0.0; 
  stroke:#00A0A0; stroke-linecap:round; stroke-linejoin:round; stroke-opacity:1.0; stroke-opacity:1.0; stroke-width:6" 
   transform="translate(0 0) scale(1 1)">
<path d="M4972 2211 L4992 2271" /> 
<path d="M4992 2271 L5012 2211" /> 
<g style = "stroke-linecap:round;" > 
<path d="M5012 2211 L5012 2211" /> 
</g><path d="M5031 2271 L5031 2211" /> 
<path d="M5031 2211 L5046 2211" /> 
<path d="M5046 2211 L5054 2214" /> 
<path d="M5054 2214 L5060 2220" /> 
<path d="M5060 2220 L5063 2226" /> 
<path d="M5063 2226 L5066 2237" /> 
<path d="M5066 2237 L5066 2246" /> 
<path d="M5066 2246 L5063 2257" /> 
<path d="M5063 2257 L5060 2263" /> 
<path d="M5060 2263 L5054 2268" /> 
<path d="M5054 2268 L5046 2271" /> 
<path d="M5046 2271 L5031 2271" /> 
<path d="M5123 2271 L5088 2271" /> 
<g style = "stroke-linecap:round;" > 
<path d="M5088 2271 L5088 2271" /> 
</g><path d="M5106 2271 L5106 2211" /> 
<path d="M5106 2211 L5100 2220" /> 
<path d="M5100 2220 L5094 2226" /> 
<path d="M5094 2226 L5088 2228" /> 
<g style = "stroke-linecap:round;" > 
<path d="M5088 2228 L5088 2228" /> 
</g><path d="M5012 2421 L4983 2421" /> 
<path d="M4983 2421 L4983 2361" /> 
<g style = "stroke-linecap:round;" > 
<path d="M4983 2361 L4983 2361" /> 
</g><path d="M5032 2390 L5052 2390" /> 
<g style = "stroke-linecap:round;" > 
<path d="M5052 2390 L5052 2390" /> 
</g><path d="M5061 2421 L5032 2421" /> 
<path d="M5032 2421 L5032 2361" /> 
<path d="M5032 2361 L5061 2361" /> 
<g style = "stroke-linecap:round;" > 
<path d="M5061 2361 L5061 2361" /> 
</g><path d="M5086 2421 L5086 2361" /> 
<path d="M5086 2361 L5101 2361" /> 
<path d="M5101 2361 L5109 2364" /> 
<path d="M5109 2364 L5115 2370" /> 
<path d="M5115 2370 L5118 2376" /> 
<path d="M5118 2376 L5121 2387" /> 
<path d="M5121 2387 L5121 2396" /> 
<path d="M5121 2396 L5118 2407" /> 
<path d="M5118 2407 L5115 2413" /> 
<path d="M5115 2413 L5109 2418" /> 
<path d="M5109 2418 L5101 2421" /> 
<path d="M5101 2421 L5086 2421" /> 
</g>
<g style="fill:#000000; fill-opacity:0.0; 
  stroke:#A00000; stroke-linecap:round; stroke-linejoin:round; stroke-opacity:1.0; stroke-opacity:1.0; stroke-width:6" 
   transform="translate(0 0) scale(1 1)">
<polygon style="fill-rule:evenodd; " 
points="4675,3300
4675,3300
4675,2900
4825,2900
4825,3300
" /> 
<path d="M4750 3300 L4750 3400" /> 
</g>
<g style="fill:#A00000; fill-opacity:0.0; 
  stroke:#A00000; stroke-linecap:round; stroke-linejoin:round; stroke-opacity:1.0; stroke-opacity:1.0; stroke-width:6" 
   transform="translate(0 0) scale(1 1)">
<path d="M4735 3336 L4735 3364" /> 
<g style = "stroke-linecap:round;" > 
<path d="M4735 3364 L4735 3364" /> 
</g><path d="M4735 3350 L4685 3350" /> 
<path d="M4685 3350 L4692 3355" /> 
<path d="M4692 3355 L4697 3360" /> 
<path d="M4697 3360 L4700 3364" /> 
<g style = "stroke-linecap:round;" > 
<path d="M4700 3364 L4700 3364" /> 
</g><path d="M4750 2900 L4750 2800" /> 
<path d="M4690 2864 L4688 2862" /> 
<path d="M4688 2862 L4685 2857" /> 
<path d="M4685 2857 L4685 2845" /> 
<path d="M4685 2845 L4688 2841" /> 
<path d="M4688 2841 L4690 2838" /> 
<path d="M4690 2838 L4695 2836" /> 
<path d="M4695 2836 L4700 2836" /> 
<path d="M4700 2836 L4707 2838" /> 
<path d="M4707 2838 L4735 2867" /> 
<path d="M4735 2867 L4735 2836" /> 
<g style = "stroke-linecap:round;" > 
<path d="M4735 2836 L4735 2836" /> 
</g></g>
<g style="fill:#00A0A0; fill-opacity:0.0; 
  stroke:#00A0A0; stroke-linecap:round; stroke-linejoin:round; stroke-opacity:1.0; stroke-opacity:1.0; stroke-width:6" 
   transform="translate(0 0) scale(1 1)">
<path d="M4990 3027 L4970 2999" /> 
<g style = "stroke-linecap:round;" > 
<path d="M4970 2999 L4970 2999" /> 
</g><path d="M4955 3027 L4955 2967" /> 
<path d="M4955 2967 L4978 2967" /> 
<path d="M4978 2967 L4984 2970" /> 
<path d="M4984 2970 L4987 2973" /> 
<path d="M4987 2973 L4990 2979" /> 
<path d="M4990 2979 L4990 2987" /> 
<path d="M4990 2987 L4987 2993" /> 
<path d="M4987 2993 L4984 2996" /> 
<path d="M4984 2996 L4978 2999" /> 
<path d="M4978 2999 L4955 2999" /> 
<g style = "stroke-linecap:round;" > 
<path d="M4955 2999 L4955 2999" /> 
</g><path d="M5012 2973 L5015 2970" /> 
<path d="M5015 2970 L5021 2967" /> 
<path d="M5021 2967 L5035 2967" /> 
<path d="M5035 2967 L5041 2970" /> 
<path d="M5041 2970 L5044 2973" /> 
<path d="M5044 2973 L5047 2979" /> 
<path d="M5047 2979 L5047 2984" /> 
<path d="M5047 2984 L5044 2993" /> 
<path d="M5044 2993 L5010 3027" /> 
<path d="M5010 3027 L5047 3027" /> 
<g style = "stroke-linecap:round;" > 
<path d="M5047 3027 L5047 3027" /> 
</g><path d="M4943 3117 L4980 3117" /> 
<path d="M4980 3117 L4960 3140" /> 
<path d="M4960 3140 L4968 3140" /> 
<path d="M4968 3140 L4974 3143" /> 
<path d="M4974 3143 L4977 3146" /> 
<path d="M4977 3146 L4980 3152" /> 
<path d="M4980 3152 L4980 3166" /> 
<path d="M4980 3166 L4977 3172" /> 
<path d="M4977 3172 L4974 3174" /> 
<path d="M4974 3174 L4968 3177" /> 
<path d="M4968 3177 L4951 3177" /> 
<path d="M4951 3177 L4945 3174" /> 
<path d="M4945 3174 L4943 3172" /> 
<g style = "stroke-linecap:round;" > 
<path d="M4943 3172 L4943 3172" /> 
</g><path d="M5008 3177 L5020 3177" /> 
<path d="M5020 3177 L5025 3174" /> 
<path d="M5025 3174 L5028 3172" /> 
<path d="M5028 3172 L5034 3163" /> 
<path d="M5034 3163 L5037 3152" /> 
<path d="M5037 3152 L5037 3129" /> 
<path d="M5037 3129 L5034 3123" /> 
<path d="M5034 3123 L5031 3120" /> 
<path d="M5031 3120 L5025 3117" /> 
<path d="M5025 3117 L5014 3117" /> 
<path d="M5014 3117 L5008 3120" /> 
<path d="M5008 3120 L5005 3123" /> 
<path d="M5005 3123 L5002 3129" /> 
<path d="M5002 3129 L5002 3143" /> 
<path d="M5002 3143 L5005 3149" /> 
<path d="M5005 3149 L5008 3152" /> 
<path d="M5008 3152 L5014 3154" /> 
<path d="M5014 3154 L5025 3154" /> 
<path d="M5025 3154 L5031 3152" /> 
<path d="M5031 3152 L5034 3149" /> 
<path d="M5034 3149 L5037 3143" /> 
<g style = "stroke-linecap:round;" > 
<path d="M5037 3143 L5037 3143" /> 
</g><path d="M5074 3117 L5079 3117" /> 
<path d="M5079 3117 L5085 3120" /> 
<path d="M5085 3120 L5088 3123" /> 
<path d="M5088 3123 L5091 3129" /> 
<path d="M5091 3129 L5094 3140" /> 
<path d="M5094 3140 L5094 3154" /> 
<path d="M5094 3154 L5091 3166" /> 
<path d="M5091 3166 L5088 3172" /> 
<path d="M5088 3172 L5085 3174" /> 
<path d="M5085 3174 L5079 3177" /> 
<path d="M5079 3177 L5074 3177" /> 
<path d="M5074 3177 L5068 3174" /> 
<path d="M5068 3174 L5065 3172" /> 
<path d="M5065 3172 L5062 3166" /> 
<path d="M5062 3166 L5059 3154" /> 
<path d="M5059 3154 L5059 3140" /> 
<path d="M5059 3140 L5062 3129" /> 
<path d="M5062 3129 L5065 3123" /> 
<path d="M5065 3123 L5068 3120" /> 
<path d="M5068 3120 L5074 3117" /> 
<path d="M5154 3177 L5134 3149" /> 
<g style = "stroke-linecap:round;" > 
<path d="M5134 3149 L5134 3149" /> 
</g><path d="M5119 3177 L5119 3117" /> 
<path d="M5119 3117 L5142 3117" /> 
<path d="M5142 3117 L5148 3120" /> 
<path d="M5148 3120 L5151 3123" /> 
<path d="M5151 3123 L5154 3129" /> 
<path d="M5154 3129 L5154 3137" /> 
<path d="M5154 3137 L5151 3143" /> 
<path d="M5151 3143 L5148 3146" /> 
<path d="M5148 3146 L5142 3149" /> 
<path d="M5142 3149 L5119 3149" /> 
<g style = "stroke-linecap:round;" > 
<path d="M5119 3149 L5119 3149" /> 
</g></g>
<g style="fill:#A00000; fill-opacity:0.0; 
  stroke:#A00000; stroke-linecap:round; stroke-linejoin:round; stroke-opacity:1.0; stroke-opacity:1.0; stroke-width:6" 
   transform="translate(0 0) scale(1 1)">
<path d="M5650 2700 L5550 2500" /> 
<g style = "stroke-linecap:round;" > 
<path d="M5550 2500 L5550 2500" /> 
</g><path d="M5650 2700 L5650 2900" /> 
<path d="M5635 2786 L5635 2814" /> 
<g style = "stroke-linecap:round;" > 
<path d="M5635 2814 L5635 2814" /> 
</g><path d="M5635 2800 L5585 2800" /> 
<path d="M5585 2800 L5592 2805" /> 
<path d="M5592 2805 L5597 2810" /> 
<path d="M5597 2810 L5600 2814" /> 
<g style = "stroke-linecap:round;" > 
<path d="M5600 2814 L5600 2814" /> 
</g><path d="M5650 2500 L5650 2300" /> 
<path d="M5590 2414 L5588 2412" /> 
<path d="M5588 2412 L5585 2407" /> 
<path d="M5585 2407 L5585 2395" /> 
<path d="M5585 2395 L5588 2391" /> 
<path d="M5588 2391 L5590 2388" /> 
<path d="M5590 2388 L5595 2386" /> 
<path d="M5595 2386 L5600 2386" /> 
<path d="M5600 2386 L5607 2388" /> 
<path d="M5607 2388 L5635 2417" /> 
<path d="M5635 2417 L5635 2386" /> 
<g style = "stroke-linecap:round;" > 
<path d="M5635 2386 L5635 2386" /> 
</g></g>
<g style="fill:#00A0A0; fill-opacity:0.0; 
  stroke:#00A0A0; stroke-linecap:round; stroke-linejoin:round; stroke-opacity:1.0; stroke-opacity:1.0; stroke-width:6" 
   transform="translate(0 0) scale(1 1)">
<path d="M5778 2624 L5787 2627" /> 
<path d="M5787 2627 L5801 2627" /> 
<path d="M5801 2627 L5807 2624" /> 
<path d="M5807 2624 L5810 2622" /> 
<path d="M5810 2622 L5813 2616" /> 
<path d="M5813 2616 L5813 2610" /> 
<path d="M5813 2610 L5810 2604" /> 
<path d="M5810 2604 L5807 2602" /> 
<path d="M5807 2602 L5801 2599" /> 
<path d="M5801 2599 L5790 2596" /> 
<path d="M5790 2596 L5784 2593" /> 
<path d="M5784 2593 L5781 2590" /> 
<path d="M5781 2590 L5778 2584" /> 
<path d="M5778 2584 L5778 2579" /> 
<path d="M5778 2579 L5781 2573" /> 
<path d="M5781 2573 L5784 2570" /> 
<path d="M5784 2570 L5790 2567" /> 
<path d="M5790 2567 L5804 2567" /> 
<path d="M5804 2567 L5813 2570" /> 
<g style = "stroke-linecap:round;" > 
<path d="M5813 2570 L5813 2570" /> 
</g><path d="M5835 2610 L5864 2610" /> 
<g style = "stroke-linecap:round;" > 
<path d="M5864 2610 L5864 2610" /> 
</g><path d="M5830 2627 L5850 2567" /> 
<path d="M5850 2567 L5870 2627" /> 
<g style = "stroke-linecap:round;" > 
<path d="M5870 2627 L5870 2627" /> 
</g><path d="M5886 2573 L5889 2570" /> 
<path d="M5889 2570 L5895 2567" /> 
<path d="M5895 2567 L5909 2567" /> 
<path d="M5909 2567 L5915 2570" /> 
<path d="M5915 2570 L5918 2573" /> 
<path d="M5918 2573 L5921 2579" /> 
<path d="M5921 2579 L5921 2584" /> 
<path d="M5921 2584 L5918 2593" /> 
<path d="M5918 2593 L5884 2627" /> 
<path d="M5884 2627 L5921 2627" /> 
<g style = "stroke-linecap:round;" > 
<path d="M5921 2627 L5921 2627" /> 
</g></g>
<g style="fill:#A00000; fill-opacity:0.0; 
  stroke:#A00000; stroke-linecap:round; stroke-linejoin:round; stroke-opacity:1.0; stroke-opacity:1.0; stroke-width:6" 
   transform="translate(0 0) scale(1 1)">
<path d="M5730 3400 L5730 3440" /> 
<g style = "stroke-linecap:round;" > 
<path d="M5730 3440 L5730 3440" /> 
</g><path d="M5750 3420 L5710 3420" /> 
<g style = "stroke-linecap:round;" > 
<path d="M5710 3420 L5710 3420" /> 
</g><path d="M5750 3450 L5550 3450" /> 
<g style = "stroke-linecap:round;" > 
<path d="M5550 3450 L5550 3450" /> 
</g><path d="M5650 3500 L5650 3550" /> 
<g style = "stroke-linecap:round;" > 
<path d="M5650 3550 L5650 3550" /> 
</g><path d="M5700 3500 L5600 3500" /> 
<g style = "stroke-linecap:round;" > 
<path d="M5600 3500 L5600 3500" /> 
</g><path d="M5650 3600 L5650 3650" /> 
<g style = "stroke-linecap:round;" > 
<path d="M5650 3650 L5650 3650" /> 
</g><path d="M5650 3700 L5650 3750" /> 
<g style = "stroke-linecap:round;" > 
<path d="M5650 3750 L5650 3750" /> 
</g><path d="M5750 3750 L5550 3750" /> 
<g style = "stroke-linecap:round;" > 
<path d="M5550 3750 L5550 3750" /> 
</g><path d="M5700 3800 L5600 3800" /> 
<g style = "stroke-linecap:round;" > 
<path d="M5600 3800 L5600 3800" /> 
</g><path d="M5650 3450 L5650 3250" /> 
<path d="M5635 3336 L5635 3364" /> 
<g style = "stroke-linecap:round;" > 
<path d="M5635 3364 L5635 3364" /> 
</g><path d="M5635 3350 L5585 3350" /> 
<path d="M5585 3350 L5592 3355" /> 
<path d="M5592 3355 L5597 3360" /> 
<path d="M5597 3360 L5600 3364" /> 
<g style = "stroke-linecap:round;" > 
<path d="M5600 3364 L5600 3364" /> 
</g><path d="M5650 3800 L5650 3900" /> 
<path d="M5590 3864 L5588 3862" /> 
<path d="M5588 3862 L5585 3857" /> 
<path d="M5585 3857 L5585 3845" /> 
<path d="M5585 3845 L5588 3841" /> 
<path d="M5588 3841 L5590 3838" /> 
<path d="M5590 3838 L5595 3836" /> 
<path d="M5595 3836 L5600 3836" /> 
<path d="M5600 3836 L5607 3838" /> 
<path d="M5607 3838 L5635 3867" /> 
<path d="M5635 3867 L5635 3836" /> 
<g style = "stroke-linecap:round;" > 
<path d="M5635 3836 L5635 3836" /> 
</g></g>
<g style="fill:#00A0A0; fill-opacity:0.0; 
  stroke:#00A0A0; stroke-linecap:round; stroke-linejoin:round; stroke-opacity:1.0; stroke-opacity:1.0; stroke-width:6" 
   transform="translate(0 0) scale(1 1)">
<path d="M5808 3564 L5802 3561" /> 
<path d="M5802 3561 L5793 3561" /> 
<path d="M5793 3561 L5785 3564" /> 
<path d="M5785 3564 L5779 3570" /> 
<path d="M5779 3570 L5776 3576" /> 
<path d="M5776 3576 L5773 3587" /> 
<path d="M5773 3587 L5773 3596" /> 
<path d="M5773 3596 L5776 3607" /> 
<path d="M5776 3607 L5779 3613" /> 
<path d="M5779 3613 L5785 3618" /> 
<path d="M5785 3618 L5793 3621" /> 
<path d="M5793 3621 L5799 3621" /> 
<path d="M5799 3621 L5808 3618" /> 
<path d="M5808 3618 L5811 3616" /> 
<path d="M5811 3616 L5811 3596" /> 
<path d="M5811 3596 L5799 3596" /> 
<g style = "stroke-linecap:round;" > 
<path d="M5799 3596 L5799 3596" /> 
</g><path d="M5856 3590 L5865 3593" /> 
<path d="M5865 3593 L5868 3596" /> 
<path d="M5868 3596 L5871 3601" /> 
<path d="M5871 3601 L5871 3610" /> 
<path d="M5871 3610 L5868 3616" /> 
<path d="M5868 3616 L5865 3618" /> 
<path d="M5865 3618 L5859 3621" /> 
<path d="M5859 3621 L5836 3621" /> 
<path d="M5836 3621 L5836 3561" /> 
<path d="M5836 3561 L5856 3561" /> 
<path d="M5856 3561 L5862 3564" /> 
<path d="M5862 3564 L5865 3567" /> 
<path d="M5865 3567 L5868 3573" /> 
<path d="M5868 3573 L5868 3578" /> 
<path d="M5868 3578 L5865 3584" /> 
<path d="M5865 3584 L5862 3587" /> 
<path d="M5862 3587 L5856 3590" /> 
<path d="M5856 3590 L5836 3590" /> 
<g style = "stroke-linecap:round;" > 
<path d="M5836 3590 L5836 3590" /> 
</g><path d="M5928 3621 L5893 3621" /> 
<g style = "stroke-linecap:round;" > 
<path d="M5893 3621 L5893 3621" /> 
</g><path d="M5911 3621 L5911 3561" /> 
<path d="M5911 3561 L5905 3570" /> 
<path d="M5905 3570 L5899 3576" /> 
<path d="M5899 3576 L5893 3578" /> 
<g style = "stroke-linecap:round;" > 
<path d="M5893 3578 L5893 3578" /> 
</g></g>
<g style="fill:#A00000; fill-opacity:0.0; 
  stroke:#A00000; stroke-linecap:round; stroke-linejoin:round; stroke-opacity:1.0; stroke-opacity:1.0; stroke-width:6" 
   transform="translate(0 0) scale(1 1)">
<ellipse cx="4600" cy="3900" rx="250" ry="250"  /> 
<path d="M4550 4100 L4450 4100" /> 
<g style = "stroke-linecap:round;" > 
<path d="M4450 4100 L4450 4100" /> 
</g><path d="M4550 3700 L4550 4100" /> 
<g style = "stroke-linecap:round;" > 
<path d="M4550 4100 L4550 4100" /> 
</g><path d="M4650 4050 L4750 4050" /> 
<g style = "stroke-linecap:round;" > 
<path d="M4750 4050 L4750 4050" /> 
</g><path d="M4650 4000 L4650 4100" /> 
<g style = "stroke-linecap:round;" > 
<path d="M4650 4100 L4650 4100" /> 
</g><path d="M4650 3850 L4650 3950" /> 
<g style = "stroke-linecap:round;" > 
<path d="M4650 3950 L4650 3950" /> 
</g><path d="M4650 3800 L4650 3700" /> 
<g style = "stroke-linecap:round;" > 
<path d="M4650 3700 L4650 3700" /> 
</g><path d="M4650 3900 L4750 3900" /> 
<path d="M4750 3900 L4750 4100" /> 
<g style = "stroke-linecap:round;" > 
<path d="M4750 4100 L4750 4100" /> 
</g><path d="M4650 3750 L4750 3750" /> 
<path d="M4750 3750 L4750 3700" /> 
<g style = "stroke-linecap:round;" > 
<path d="M4750 3700 L4750 3700" /> 
</g><path d="M4725 3950 L4650 3900" /> 
<path d="M4650 3900 L4725 3850" /> 
<g style = "stroke-linecap:round;" > 
<path d="M4725 3850 L4725 3850" /> 
</g><path d="M4750 3700 L4750 3600" /> 
</g>
<g style="fill:#00A0A0; fill-opacity:0.0; 
  stroke:#00A0A0; stroke-linecap:round; stroke-linejoin:round; stroke-opacity:1.0; stroke-opacity:1.0; stroke-width:6" 
   transform="translate(0 0) scale(1 1)">
<path d="M4770 3752 L4720 3752" /> 
<g style = "stroke-linecap:round;" > 
<path d="M4720 3752 L4720 3752" /> 
</g><path d="M4768 3752 L4770 3756" /> 
<path d="M4770 3756 L4770 3766" /> 
<path d="M4770 3766 L4768 3771" /> 
<path d="M4768 3771 L4765 3773" /> 
<path d="M4765 3773 L4761 3775" /> 
<path d="M4761 3775 L4746 3775" /> 
<path d="M4746 3775 L4742 3773" /> 
<path d="M4742 3773 L4739 3771" /> 
<path d="M4739 3771 L4737 3766" /> 
<path d="M4737 3766 L4737 3756" /> 
<path d="M4737 3756 L4739 3752" /> 
<g style = "stroke-linecap:round;" > 
<path d="M4739 3752 L4739 3752" /> 
</g></g>
<g style="fill:#00A0A0; fill-opacity:0.0; 
  stroke:#A00000; stroke-linecap:round; stroke-linejoin:round; stroke-opacity:1.0; stroke-opacity:1.0; stroke-width:6" 
   transform="translate(0 0) scale(1 1)">
<path d="M4450 4100 L4250 4100" /> 
</g>
<g style="fill:#00A0A0; fill-opacity:0.0; 
  stroke:#00A0A0; stroke-linecap:round; stroke-linejoin:round; stroke-opacity:1.0; stroke-opacity:1.0; stroke-width:6" 
   transform="translate(0 0) scale(1 1)">
<path d="M4523 4087 L4523 4127" /> 
<path d="M4523 4127 L4521 4132" /> 
<path d="M4521 4132 L4519 4135" /> 
<path d="M4519 4135 L4514 4137" /> 
<path d="M4514 4137 L4507 4137" /> 
<path d="M4507 4137 L4502 4135" /> 
<g style = "stroke-linecap:round;" > 
<path d="M4502 4135 L4502 4135" /> 
</g><path d="M4523 4118 L4519 4120" /> 
<path d="M4519 4120 L4509 4120" /> 
<path d="M4509 4120 L4504 4118" /> 
<path d="M4504 4118 L4502 4115" /> 
<path d="M4502 4115 L4500 4111" /> 
<path d="M4500 4111 L4500 4096" /> 
<path d="M4500 4096 L4502 4092" /> 
<path d="M4502 4092 L4504 4089" /> 
<path d="M4504 4089 L4509 4087" /> 
<path d="M4509 4087 L4519 4087" /> 
<path d="M4519 4087 L4523 4089" /> 
<g style = "stroke-linecap:round;" > 
<path d="M4523 4089 L4523 4089" /> 
</g></g>
<g style="fill:#00A0A0; fill-opacity:0.0; 
  stroke:#A00000; stroke-linecap:round; stroke-linejoin:round; stroke-opacity:1.0; stroke-opacity:1.0; stroke-width:6" 
   transform="translate(0 0) scale(1 1)">
<path d="M4750 4100 L4750 4200" /> 
</g>
<g style="fill:#00A0A0; fill-opacity:0.0; 
  stroke:#00A0A0; stroke-linecap:round; stroke-linejoin:round; stroke-opacity:1.0; stroke-opacity:1.0; stroke-width:6" 
   transform="translate(0 0) scale(1 1)">
<path d="M4768 4050 L4770 4046" /> 
<path d="M4770 4046 L4770 4036" /> 
<path d="M4770 4036 L4768 4031" /> 
<path d="M4768 4031 L4763 4029" /> 
<path d="M4763 4029 L4761 4029" /> 
<path d="M4761 4029 L4756 4031" /> 
<path d="M4756 4031 L4754 4036" /> 
<path d="M4754 4036 L4754 4043" /> 
<path d="M4754 4043 L4751 4048" /> 
<path d="M4751 4048 L4746 4050" /> 
<path d="M4746 4050 L4744 4050" /> 
<path d="M4744 4050 L4739 4048" /> 
<path d="M4739 4048 L4737 4043" /> 
<path d="M4737 4043 L4737 4036" /> 
<path d="M4737 4036 L4739 4031" /> 
<g style = "stroke-linecap:round;" > 
<path d="M4739 4031 L4739 4031" /> 
</g><path d="M4980 3790 L4960 3790" /> 
<g style = "stroke-linecap:round;" > 
<path d="M4960 3790 L4960 3790" /> 
</g><path d="M4960 3821 L4960 3761" /> 
<path d="M4960 3761 L4989 3761" /> 
<g style = "stroke-linecap:round;" > 
<path d="M4989 3761 L4989 3761" /> 
</g><path d="M5011 3790 L5031 3790" /> 
<g style = "stroke-linecap:round;" > 
<path d="M5031 3790 L5031 3790" /> 
</g><path d="M5040 3821 L5011 3821" /> 
<path d="M5011 3821 L5011 3761" /> 
<path d="M5011 3761 L5040 3761" /> 
<g style = "stroke-linecap:round;" > 
<path d="M5040 3761 L5040 3761" /> 
</g><path d="M5057 3761 L5091 3761" /> 
<g style = "stroke-linecap:round;" > 
<path d="M5091 3761 L5091 3761" /> 
</g><path d="M5074 3821 L5074 3761" /> 
<g style = "stroke-linecap:round;" > 
<path d="M5074 3761 L5074 3761" /> 
</g><path d="M5143 3821 L5108 3821" /> 
<g style = "stroke-linecap:round;" > 
<path d="M5108 3821 L5108 3821" /> 
</g><path d="M5126 3821 L5126 3761" /> 
<path d="M5126 3761 L5120 3770" /> 
<path d="M5120 3770 L5114 3776" /> 
<path d="M5114 3776 L5108 3778" /> 
<g style = "stroke-linecap:round;" > 
<path d="M5108 3778 L5108 3778" /> 
</g><path d="M4937 3917 L4940 3914" /> 
<path d="M4940 3914 L4946 3911" /> 
<path d="M4946 3911 L4960 3911" /> 
<path d="M4960 3911 L4966 3914" /> 
<path d="M4966 3914 L4969 3917" /> 
<path d="M4969 3917 L4972 3923" /> 
<path d="M4972 3923 L4972 3928" /> 
<path d="M4972 3928 L4969 3937" /> 
<path d="M4969 3937 L4935 3971" /> 
<path d="M4935 3971 L4972 3971" /> 
<g style = "stroke-linecap:round;" > 
<path d="M4972 3971 L4972 3971" /> 
</g><path d="M4997 3971 L4997 3911" /> 
<path d="M4997 3911 L5032 3971" /> 
<path d="M5032 3971 L5032 3911" /> 
<g style = "stroke-linecap:round;" > 
<path d="M5032 3911 L5032 3911" /> 
</g><path d="M5055 3911 L5095 3911" /> 
<path d="M5095 3911 L5069 3971" /> 
<g style = "stroke-linecap:round;" > 
<path d="M5069 3971 L5069 3971" /> 
</g><path d="M5129 3911 L5134 3911" /> 
<path d="M5134 3911 L5140 3914" /> 
<path d="M5140 3914 L5143 3917" /> 
<path d="M5143 3917 L5146 3923" /> 
<path d="M5146 3923 L5149 3934" /> 
<path d="M5149 3934 L5149 3948" /> 
<path d="M5149 3948 L5146 3960" /> 
<path d="M5146 3960 L5143 3966" /> 
<path d="M5143 3966 L5140 3968" /> 
<path d="M5140 3968 L5134 3971" /> 
<path d="M5134 3971 L5129 3971" /> 
<path d="M5129 3971 L5123 3968" /> 
<path d="M5123 3968 L5120 3966" /> 
<path d="M5120 3966 L5117 3960" /> 
<path d="M5117 3960 L5114 3948" /> 
<path d="M5114 3948 L5114 3934" /> 
<path d="M5114 3934 L5117 3923" /> 
<path d="M5117 3923 L5120 3917" /> 
<path d="M5120 3917 L5123 3914" /> 
<path d="M5123 3914 L5129 3911" /> 
<path d="M5186 3911 L5191 3911" /> 
<path d="M5191 3911 L5197 3914" /> 
<path d="M5197 3914 L5200 3917" /> 
<path d="M5200 3917 L5203 3923" /> 
<path d="M5203 3923 L5206 3934" /> 
<path d="M5206 3934 L5206 3948" /> 
<path d="M5206 3948 L5203 3960" /> 
<path d="M5203 3960 L5200 3966" /> 
<path d="M5200 3966 L5197 3968" /> 
<path d="M5197 3968 L5191 3971" /> 
<path d="M5191 3971 L5186 3971" /> 
<path d="M5186 3971 L5180 3968" /> 
<path d="M5180 3968 L5177 3966" /> 
<path d="M5177 3966 L5174 3960" /> 
<path d="M5174 3960 L5171 3948" /> 
<path d="M5171 3948 L5171 3934" /> 
<path d="M5171 3934 L5174 3923" /> 
<path d="M5174 3923 L5177 3917" /> 
<path d="M5177 3917 L5180 3914" /> 
<path d="M5180 3914 L5186 3911" /> 
<path d="M5243 3911 L5248 3911" /> 
<path d="M5248 3911 L5254 3914" /> 
<path d="M5254 3914 L5257 3917" /> 
<path d="M5257 3917 L5260 3923" /> 
<path d="M5260 3923 L5263 3934" /> 
<path d="M5263 3934 L5263 3948" /> 
<path d="M5263 3948 L5260 3960" /> 
<path d="M5260 3960 L5257 3966" /> 
<path d="M5257 3966 L5254 3968" /> 
<path d="M5254 3968 L5248 3971" /> 
<path d="M5248 3971 L5243 3971" /> 
<path d="M5243 3971 L5237 3968" /> 
<path d="M5237 3968 L5234 3966" /> 
<path d="M5234 3966 L5231 3960" /> 
<path d="M5231 3960 L5228 3948" /> 
<path d="M5228 3948 L5228 3934" /> 
<path d="M5228 3934 L5231 3923" /> 
<path d="M5231 3923 L5234 3917" /> 
<path d="M5234 3917 L5237 3914" /> 
<path d="M5237 3914 L5243 3911" /> 
</g> 
</svg> 
