<?xml version="1.0" standalone="no"?>
 <!DOCTYPE svg PUBLIC "-//W3C//DTD SVG 1.1//EN" 
 "http://www.w3.org/Graphics/SVG/1.1/DTD/svg11.dtd"> 
<svg xmlns="http://www.w3.org/2000/svg" version="1.1" 
    width="29.7002cm" height="21.0007cm" viewBox="0 0 116929 82679 ">
<title>SVG Picture created as ACanaliz.sch.svg date 2014/12/26 19:01:10 </title>
  <desc>Picture generated by Eeschema-SVG </desc>
<g style="fill:#000000; fill-opacity:1;stroke:#000000; stroke-opacity:1;
stroke-linecap:round; stroke-linejoin:round; "
 transform="translate(0 0) scale(1 1)">
</g>
<g style="fill:#000000; fill-opacity:0.0; 
stroke:#000000; stroke-width:0; stroke-opacity:1; 
stroke-linecap:round; stroke-linejoin:round;">
</g>
<g style="fill:#840000; fill-opacity:0.0; 
stroke:#840000; stroke-width:60; stroke-opacity:1; 
stroke-linecap:round; stroke-linejoin:round;">
<rect x="45750" y="35500" width="1500" height="4000" rx="0" />
<path d="M46500 39500
L46500 40500
" />
</g>
<g style="fill:#008484; fill-opacity:0.0; 
stroke:#008484; stroke-width:60; stroke-opacity:1; 
stroke-linecap:round; stroke-linejoin:round;">
</g>
<g style="fill:#840000; fill-opacity:0.0; 
stroke:#840000; stroke-width:60; stroke-opacity:1; 
stroke-linecap:round; stroke-linejoin:round;">
<path d="M46380 39860
L46380 40140
" />
<path d="M46380 40000
L45880 40000
L45950 40050
L46000 40100
L46020 40140
" />
<path d="M46500 35500
L46500 34500
" />
</g>
<g style="fill:#008484; fill-opacity:0.0; 
stroke:#008484; stroke-width:60; stroke-opacity:1; 
stroke-linecap:round; stroke-linejoin:round;">
</g>
<g style="fill:#840000; fill-opacity:0.0; 
stroke:#840000; stroke-width:60; stroke-opacity:1; 
stroke-linecap:round; stroke-linejoin:round;">
<path d="M45920 35140
L45900 35120
L45880 35070
L45880 34950
L45900 34910
L45920 34880
L45970 34860
L46020 34860
L46090 34880
L46380 35170
L46380 34860
" />
</g>
<g style="fill:#008484; fill-opacity:0.0; 
stroke:#008484; stroke-width:60; stroke-opacity:1; 
stroke-linecap:round; stroke-linejoin:round;">
<path d="M48400 36800
L48200 36520
" />
<path d="M48050 36800
L48050 36200
L48280 36200
L48340 36230
L48370 36260
L48400 36320
L48400 36400
L48370 36460
L48340 36490
L48280 36520
L48050 36520
" />
<path d="M48970 36800
L48620 36800
" />
<path d="M48800 36800
L48800 36200
L48740 36290
L48680 36340
L48620 36370
" />
<path d="M48430 38300
L48080 38300
" />
<path d="M48260 38300
L48260 37700
L48200 37790
L48140 37840
L48080 37870
" />
<path d="M48680 38300
L48680 37700
" />
<path d="M48740 38070
L48910 38300
" />
<path d="M48910 37900
L48680 38130
" />
</g>
<g style="fill:#008484; fill-opacity:0.0; 
stroke:#008484; stroke-width:0; stroke-opacity:1; 
stroke-linecap:round; stroke-linejoin:round;">
</g>
<g style="fill:#840000; fill-opacity:0.0; 
stroke:#840000; stroke-width:60; stroke-opacity:1; 
stroke-linecap:round; stroke-linejoin:round;">
<polyline fill="none;"
points="39750,32500
39500,32500
" /> 
<polyline fill="none;"
points="39750,31000
39750,34000
" /> 
<polyline fill="none;"
points="40250,32500
40500,32500
" /> 
<polyline fill="none;"
points="40250,31000
40250,34000
" /> 
<path d="M39500 32500
L38500 32500
" />
</g>
<g style="fill:#008484; fill-opacity:0.0; 
stroke:#008484; stroke-width:60; stroke-opacity:1; 
stroke-linecap:round; stroke-linejoin:round;">
</g>
<g style="fill:#840000; fill-opacity:0.0; 
stroke:#840000; stroke-width:60; stroke-opacity:1; 
stroke-linecap:round; stroke-linejoin:round;">
<path d="M39140 32380
L38860 32380
" />
<path d="M39000 32380
L39000 31880
L38950 31950
L38900 32000
L38860 32020
" />
<path d="M40500 32500
L41500 32500
" />
</g>
<g style="fill:#008484; fill-opacity:0.0; 
stroke:#008484; stroke-width:60; stroke-opacity:1; 
stroke-linecap:round; stroke-linejoin:round;">
</g>
<g style="fill:#840000; fill-opacity:0.0; 
stroke:#840000; stroke-width:60; stroke-opacity:1; 
stroke-linecap:round; stroke-linejoin:round;">
<path d="M40860 31920
L40880 31900
L40930 31880
L41050 31880
L41090 31900
L41120 31920
L41140 31970
L41140 32020
L41120 32090
L40830 32380
L41140 32380
" />
</g>
<g style="fill:#008484; fill-opacity:0.0; 
stroke:#008484; stroke-width:60; stroke-opacity:1; 
stroke-linecap:round; stroke-linejoin:round;">
<path d="M39910 30180
L39880 30210
L39790 30240
L39730 30240
L39650 30210
L39590 30160
L39560 30100
L39530 29980
L39530 29900
L39560 29780
L39590 29730
L39650 29670
L39730 29640
L39790 29640
L39880 29670
L39910 29700
" />
<path d="M40480 30240
L40130 30240
" />
<path d="M40310 30240
L40310 29640
L40250 29730
L40190 29780
L40130 29810
" />
<path d="M38850 34640
L39220 34640
L39020 34870
L39100 34870
L39160 34900
L39190 34930
L39220 34980
L39220 35130
L39190 35180
L39160 35210
L39100 35240
L38930 35240
L38870 35210
L38850 35180
" />
<path d="M39470 35180
L39500 35210
L39470 35240
L39440 35210
L39470 35180
L39470 35240
" />
<path d="M39710 34640
L40080 34640
L39880 34870
L39960 34870
L40020 34900
L40050 34930
L40080 34980
L40080 35130
L40050 35180
L40020 35210
L39960 35240
L39790 35240
L39730 35210
L39710 35180
" />
<path d="M40330 34840
L40330 35240
" />
<path d="M40330 34900
L40360 34870
L40420 34840
L40500 34840
L40560 34870
L40590 34930
L40590 35240
" />
<path d="M41070 34930
L40870 34930
" />
<path d="M40870 35240
L40870 34640
L41160 34640
" />
</g>
<g style="fill:#008400; fill-opacity:0.0; 
stroke:#008400; stroke-width:60; stroke-opacity:1; 
stroke-linecap:round; stroke-linejoin:round;">
<path d="M41500 32500
L46500 32500
" />
<path d="M46500 32500
L46500 34500
" />
<path d="M46500 42000
L46500 40500
" />
<path d="M33500 42000
L46500 42000
" />
<path d="M38500 32500
L33500 32500
" />
</g>
<g style="fill:#000000; fill-opacity:0.0; 
stroke:#000000; stroke-width:60; stroke-opacity:1; 
stroke-linecap:round; stroke-linejoin:round;">
<path d="M35140 31970
L35140 32370
" />
<path d="M35140 32030
L35170 32000
L35230 31970
L35310 31970
L35370 32000
L35400 32060
L35400 32370
" />
<path d="M35800 31770
L35850 31770
L35910 31800
L35940 31830
L35970 31890
L36000 32000
L36000 32140
L35970 32260
L35940 32310
L35910 32340
L35850 32370
L35800 32370
L35740 32340
L35710 32310
L35680 32260
L35650 32140
L35650 32000
L35680 31890
L35710 31830
L35740 31800
L35800 31770
" />
<path d="M44640 31970
L44640 32370
" />
<path d="M44640 32030
L44670 32000
L44730 31970
L44810 31970
L44870 32000
L44900 32060
L44900 32370
" />
<path d="M45500 32370
L45150 32370
" />
<path d="M45330 32370
L45330 31770
L45270 31860
L45210 31910
L45150 31940
" />
</g>
<g style="fill:#000000; fill-opacity:0.0; 
stroke:#000000; stroke-width:0; stroke-opacity:1; 
stroke-linecap:round; stroke-linejoin:round;">
</g>
<g style="fill:#840000; fill-opacity:0.0; 
stroke:#840000; stroke-width:60; stroke-opacity:1; 
stroke-linecap:round; stroke-linejoin:round;">
<circle cx="33500" cy="37000" r="1580" /> 
<polyline fill="none;"
points="33500,35500
34000,37250
" /> 
<polyline fill="none;"
points="33800,38800
34300,38800
" /> 
<polyline fill="none;"
points="33800,35100
34200,35100
" /> 
<polyline fill="none;"
points="34000,35300
34000,34900
" /> 
<polyline fill="none;"
points="33500,38500
33500,35500
33000,37250
" /> 
<path d="M33500 35500
L33500 34500
" />
</g>
<g style="fill:#008484; fill-opacity:0.0; 
stroke:#008484; stroke-width:60; stroke-opacity:1; 
stroke-linecap:round; stroke-linejoin:round;">
</g>
<g style="fill:#840000; fill-opacity:0.0; 
stroke:#840000; stroke-width:60; stroke-opacity:1; 
stroke-linecap:round; stroke-linejoin:round;">
<path d="M33380 34860
L33380 35140
" />
<path d="M33380 35000
L32880 35000
L32950 35050
L33000 35100
L33020 35140
" />
<path d="M33500 38500
L33500 39500
" />
</g>
<g style="fill:#008484; fill-opacity:0.0; 
stroke:#008484; stroke-width:60; stroke-opacity:1; 
stroke-linecap:round; stroke-linejoin:round;">
</g>
<g style="fill:#840000; fill-opacity:0.0; 
stroke:#840000; stroke-width:60; stroke-opacity:1; 
stroke-linecap:round; stroke-linejoin:round;">
<path d="M32920 39140
L32900 39120
L32880 39070
L32880 38950
L32900 38910
L32920 38880
L32970 38860
L33020 38860
L33090 38880
L33380 39170
L33380 38860
" />
</g>
<g style="fill:#008484; fill-opacity:0.0; 
stroke:#008484; stroke-width:60; stroke-opacity:1; 
stroke-linecap:round; stroke-linejoin:round;">
<path d="M35020 35140
L35220 35740
L35420 35140
" />
<path d="M35930 35740
L35580 35740
" />
<path d="M35760 35740
L35760 35140
L35700 35230
L35640 35280
L35580 35310
" />
<path d="M35060 38570
L35350 38570
" />
<path d="M35010 38740
L35210 38140
L35410 38740
" />
<path d="M35950 38680
L35920 38710
L35830 38740
L35770 38740
L35690 38710
L35630 38660
L35600 38600
L35570 38480
L35570 38400
L35600 38280
L35630 38230
L35690 38170
L35770 38140
L35830 38140
L35920 38170
L35950 38200
" />
</g>
<g style="fill:#008400; fill-opacity:0.0; 
stroke:#008400; stroke-width:60; stroke-opacity:1; 
stroke-linecap:round; stroke-linejoin:round;">
<path d="M33500 32500
L33500 34500
" />
<path d="M33500 39500
L33500 42000
" />
</g>
<g style="fill:#008400; fill-opacity:0.0; 
stroke:#008400; stroke-width:0; stroke-opacity:1; 
stroke-linecap:round; stroke-linejoin:round;">
</g>
<g style="fill:#840000; fill-opacity:0.0; 
stroke:#840000; stroke-width:60; stroke-opacity:1; 
stroke-linecap:round; stroke-linejoin:round;">
<polyline fill="none;"
points="39500,43500
40500,43500
" /> 
<polyline fill="none;"
points="40000,43500
40000,43000
" /> 
</g>
<g style="fill:#008484; fill-opacity:0.0; 
stroke:#008484; stroke-width:60; stroke-opacity:1; 
stroke-linecap:round; stroke-linejoin:round;">
<path d="M39980 43950
L40020 43950
L40060 43970
L40080 43990
L40100 44030
L40110 44100
L40110 44200
L40100 44270
L40080 44310
L40060 44330
L40020 44350
L39980 44350
L39940 44330
L39920 44310
L39910 44270
L39890 44200
L39890 44100
L39910 44030
L39920 43990
L39940 43970
L39980 43950
" />
</g>
<g style="fill:#008400; fill-opacity:0.0; 
stroke:#008400; stroke-width:60; stroke-opacity:1; 
stroke-linecap:round; stroke-linejoin:round;">
<path d="M40000 43000
L40000 42000
" />
</g>
<g style="fill:#008400; fill-opacity:0.0; 
stroke:#008400; stroke-width:0; stroke-opacity:1; 
stroke-linecap:round; stroke-linejoin:round;">
</g>
<g style="fill:#008400; fill-opacity:1.0; 
stroke:#008400; stroke-width:100; stroke-opacity:1; 
stroke-linecap:round; stroke-linejoin:round;">
<circle cx="40000" cy="42000" r="200" /> 
</g> 
</svg>
