<?xml version="1.0" standalone="no"?>
<!DOCTYPE svg PUBLIC "-//W3C//DTD SVG 1.1//EN" 
"http://www.w3.org/Graphics/SVG/1.1/DTD/svg11.dtd"> 
<svg
  xmlns="http://www.w3.org/2000/svg"
  version="1.1"
  width="11.7in" height="8.267in" viewBox="0 0 11700 8267 "
>
  <title>SVG Picture created as vd.svg </title>
  <desc>Picture generated by wxSVG v0101 </desc>
  <g style="fill:black; stroke:black; stroke-width:1">
</g>
<g style="fill:#000000; fill-opacity:0.0; 
  stroke:#0000FF; stroke-linecap:round; stroke-linejoin:round; stroke-opacity:1.0; stroke-opacity:1.0; stroke-width:6" 
   transform="translate(0 0) scale(1 1)">
<path d="M6550 2050 L6550 1600" /> 
</g>
<g style="fill:#000000; fill-opacity:0.0; 
  stroke:#0000FF; stroke-linecap:round; stroke-linejoin:round; stroke-opacity:1.0; stroke-opacity:1.0; stroke-width:6" 
   transform="translate(0 0) scale(1 1)">
<path d="M6550 2050 L7400 2050" /> 
</g>
<g style="fill:#000000; fill-opacity:0.0; 
  stroke:#0000FF; stroke-linecap:round; stroke-linejoin:round; stroke-opacity:1.0; stroke-opacity:1.0; stroke-width:6" 
   transform="translate(0 0) scale(1 1)">
<path d="M7400 2050 L7400 1600" /> 
</g>
<g style="fill:#000000; fill-opacity:0.0; 
  stroke:#0000FF; stroke-linecap:round; stroke-linejoin:round; stroke-opacity:1.0; stroke-opacity:1.0; stroke-width:6" 
   transform="translate(0 0) scale(1 1)">
<path d="M7400 1600 L6550 1600" /> 
</g>
<g style="fill:#000000; fill-opacity:0.0; 
  stroke:#00A000; stroke-linecap:round; stroke-linejoin:round; stroke-opacity:1.0; stroke-opacity:1.0; stroke-width:6" 
   transform="translate(0 0) scale(1 1)">
<path d="M5200 4100 L5000 4100" /> 
<path d="M5800 4100 L5950 4100" /> 
<path d="M6400 3500 L6400 3400" /> 
<path d="M5000 3400 L5000 4200" /> 
<path d="M5000 2800 L5000 1800" /> 
</g>
<g style="fill:#00A000; fill-opacity:1.0; 
  stroke:#00A000; stroke-linecap:round; stroke-linejoin:round; stroke-opacity:1.0; stroke-opacity:1.0; stroke-width:0" 
   transform="translate(0 0) scale(1 1)">
<ellipse cx="5000" cy="4100" rx="16" ry="16"  /> 
</g>
<g style="fill:#00A000; fill-opacity:1.0; 
  stroke:#00A000; stroke-linecap:round; stroke-linejoin:round; stroke-opacity:1.0; stroke-opacity:1.0; stroke-width:6" 
   transform="translate(0 0) scale(1 1)">
<path d="M7500 3250 L7500 2900" /> 
<path d="M7500 3900 L7500 5050" /> 
<path d="M6400 1800 L6400 2000" /> 
<path d="M7500 2300 L7500 1800" /> 
</g>
<g style="fill:#00A000; fill-opacity:1.0; 
  stroke:#00A000; stroke-linecap:round; stroke-linejoin:round; stroke-opacity:1.0; stroke-opacity:1.0; stroke-width:0" 
   transform="translate(0 0) scale(1 1)">
<ellipse cx="6400" cy="1800" rx="16" ry="16"  /> 
</g>
<g style="fill:#00A000; fill-opacity:1.0; 
  stroke:#00A000; stroke-linecap:round; stroke-linejoin:round; stroke-opacity:1.0; stroke-opacity:1.0; stroke-width:6" 
   transform="translate(0 0) scale(1 1)">
<path d="M6400 2800 L6400 2600" /> 
<path d="M5000 4900 L5000 5050" /> 
<path d="M5000 5050 L7500 5050" /> 
</g>
<g style="fill:#00A000; fill-opacity:1.0; 
  stroke:#00A000; stroke-linecap:round; stroke-linejoin:round; stroke-opacity:1.0; stroke-opacity:1.0; stroke-width:0" 
   transform="translate(0 0) scale(1 1)">
<ellipse cx="6400" cy="5050" rx="16" ry="16"  /> 
</g>
<g style="fill:#00A000; fill-opacity:1.0; 
  stroke:#00A000; stroke-linecap:round; stroke-linejoin:round; stroke-opacity:1.0; stroke-opacity:1.0; stroke-width:6" 
   transform="translate(0 0) scale(1 1)">
<path d="M6400 4300 L6400 5050" /> 
<path d="M7500 1800 L7300 1800" /> 
<path d="M5000 1800 L6700 1800" /> 
</g>
<g style="fill:#A00000; fill-opacity:0.0; 
  stroke:#A00000; stroke-linecap:round; stroke-linejoin:round; stroke-opacity:1.0; stroke-opacity:1.0; stroke-width:6" 
   transform="translate(0 0) scale(1 1)">
<path d="M6900 1700 L6900 1900" /> 
<g style = "stroke-linecap:round;" > 
<path d="M6900 1900 L6900 1900" /> 
</g><path d="M7100 1700 L7100 1900" /> 
<path d="M7100 1900 L6900 1800" /> 
<path d="M6900 1800 L7100 1700" /> 
<path d="M7100 1800 L7300 1800" /> 
<path d="M7214 1785 L7186 1785" /> 
<g style = "stroke-linecap:round;" > 
<path d="M7186 1785 L7186 1785" /> 
</g><path d="M7200 1785 L7200 1735" /> 
<path d="M7200 1735 L7195 1742" /> 
<path d="M7195 1742 L7190 1747" /> 
<path d="M7190 1747 L7186 1750" /> 
<g style = "stroke-linecap:round;" > 
<path d="M7186 1750 L7186 1750" /> 
</g><path d="M6900 1800 L6700 1800" /> 
<path d="M6786 1740 L6788 1738" /> 
<path d="M6788 1738 L6793 1735" /> 
<path d="M6793 1735 L6805 1735" /> 
<path d="M6805 1735 L6809 1738" /> 
<path d="M6809 1738 L6812 1740" /> 
<path d="M6812 1740 L6814 1745" /> 
<path d="M6814 1745 L6814 1750" /> 
<path d="M6814 1750 L6812 1757" /> 
<path d="M6812 1757 L6783 1785" /> 
<path d="M6783 1785 L6814 1785" /> 
<g style = "stroke-linecap:round;" > 
<path d="M6814 1785 L6814 1785" /> 
</g></g>
<g style="fill:#00A0A0; fill-opacity:0.0; 
  stroke:#00A0A0; stroke-linecap:round; stroke-linejoin:round; stroke-opacity:1.0; stroke-opacity:1.0; stroke-width:6" 
   transform="translate(0 0) scale(1 1)">
<path d="M6922 1611 L6942 1671" /> 
<path d="M6942 1671 L6962 1611" /> 
<g style = "stroke-linecap:round;" > 
<path d="M6962 1611 L6962 1611" /> 
</g><path d="M6981 1671 L6981 1611" /> 
<path d="M6981 1611 L6996 1611" /> 
<path d="M6996 1611 L7004 1614" /> 
<path d="M7004 1614 L7010 1620" /> 
<path d="M7010 1620 L7013 1626" /> 
<path d="M7013 1626 L7016 1637" /> 
<path d="M7016 1637 L7016 1646" /> 
<path d="M7016 1646 L7013 1657" /> 
<path d="M7013 1657 L7010 1663" /> 
<path d="M7010 1663 L7004 1668" /> 
<path d="M7004 1668 L6996 1671" /> 
<path d="M6996 1671 L6981 1671" /> 
<path d="M7038 1617 L7041 1614" /> 
<path d="M7041 1614 L7047 1611" /> 
<path d="M7047 1611 L7061 1611" /> 
<path d="M7061 1611 L7067 1614" /> 
<path d="M7067 1614 L7070 1617" /> 
<path d="M7070 1617 L7073 1623" /> 
<path d="M7073 1623 L7073 1628" /> 
<path d="M7073 1628 L7070 1637" /> 
<path d="M7070 1637 L7036 1671" /> 
<path d="M7036 1671 L7073 1671" /> 
<g style = "stroke-linecap:round;" > 
<path d="M7073 1671 L7073 1671" /> 
</g><path d="M6872 2021 L6837 2021" /> 
<g style = "stroke-linecap:round;" > 
<path d="M6837 2021 L6837 2021" /> 
</g><path d="M6855 2021 L6855 1961" /> 
<path d="M6855 1961 L6849 1970" /> 
<path d="M6849 1970 L6843 1976" /> 
<path d="M6843 1976 L6837 1978" /> 
<g style = "stroke-linecap:round;" > 
<path d="M6837 1978 L6837 1978" /> 
</g><path d="M6897 2021 L6897 1961" /> 
<path d="M6897 1961 L6932 2021" /> 
<path d="M6932 2021 L6932 1961" /> 
<g style = "stroke-linecap:round;" > 
<path d="M6932 1961 L6932 1961" /> 
</g><path d="M6986 1981 L6986 2021" /> 
<g style = "stroke-linecap:round;" > 
<path d="M6986 2021 L6986 2021" /> 
</g><path d="M6972 1958 L6957 2001" /> 
<path d="M6957 2001 L6995 2001" /> 
<g style = "stroke-linecap:round;" > 
<path d="M6995 2001 L6995 2001" /> 
</g><path d="M7029 1961 L7034 1961" /> 
<path d="M7034 1961 L7040 1964" /> 
<path d="M7040 1964 L7043 1967" /> 
<path d="M7043 1967 L7046 1973" /> 
<path d="M7046 1973 L7049 1984" /> 
<path d="M7049 1984 L7049 1998" /> 
<path d="M7049 1998 L7046 2010" /> 
<path d="M7046 2010 L7043 2016" /> 
<path d="M7043 2016 L7040 2018" /> 
<path d="M7040 2018 L7034 2021" /> 
<path d="M7034 2021 L7029 2021" /> 
<path d="M7029 2021 L7023 2018" /> 
<path d="M7023 2018 L7020 2016" /> 
<path d="M7020 2016 L7017 2010" /> 
<path d="M7017 2010 L7014 1998" /> 
<path d="M7014 1998 L7014 1984" /> 
<path d="M7014 1984 L7017 1973" /> 
<path d="M7017 1973 L7020 1967" /> 
<path d="M7020 1967 L7023 1964" /> 
<path d="M7023 1964 L7029 1961" /> 
<path d="M7086 1961 L7091 1961" /> 
<path d="M7091 1961 L7097 1964" /> 
<path d="M7097 1964 L7100 1967" /> 
<path d="M7100 1967 L7103 1973" /> 
<path d="M7103 1973 L7106 1984" /> 
<path d="M7106 1984 L7106 1998" /> 
<path d="M7106 1998 L7103 2010" /> 
<path d="M7103 2010 L7100 2016" /> 
<path d="M7100 2016 L7097 2018" /> 
<path d="M7097 2018 L7091 2021" /> 
<path d="M7091 2021 L7086 2021" /> 
<path d="M7086 2021 L7080 2018" /> 
<path d="M7080 2018 L7077 2016" /> 
<path d="M7077 2016 L7074 2010" /> 
<path d="M7074 2010 L7071 1998" /> 
<path d="M7071 1998 L7071 1984" /> 
<path d="M7071 1984 L7074 1973" /> 
<path d="M7074 1973 L7077 1967" /> 
<path d="M7077 1967 L7080 1964" /> 
<path d="M7080 1964 L7086 1961" /> 
<path d="M7126 1961 L7166 1961" /> 
<path d="M7166 1961 L7140 2021" /> 
<g style = "stroke-linecap:round;" > 
<path d="M7140 2021 L7140 2021" /> 
</g></g>
<g style="fill:#000000; fill-opacity:0.0; 
  stroke:#A00000; stroke-linecap:round; stroke-linejoin:round; stroke-opacity:1.0; stroke-opacity:1.0; stroke-width:6" 
   transform="translate(0 0) scale(1 1)">
<polygon style="fill-rule:evenodd; " 
points="5300,4025
5300,4025
5300,4175
5700,4175
5700,4025
" /> 
<path d="M5300 4100 L5200 4100" /> 
</g>
<g style="fill:#A00000; fill-opacity:0.0; 
  stroke:#A00000; stroke-linecap:round; stroke-linejoin:round; stroke-opacity:1.0; stroke-opacity:1.0; stroke-width:6" 
   transform="translate(0 0) scale(1 1)">
<path d="M5264 4085 L5236 4085" /> 
<g style = "stroke-linecap:round;" > 
<path d="M5236 4085 L5236 4085" /> 
</g><path d="M5250 4085 L5250 4035" /> 
<path d="M5250 4035 L5245 4042" /> 
<path d="M5245 4042 L5240 4047" /> 
<path d="M5240 4047 L5236 4050" /> 
<g style = "stroke-linecap:round;" > 
<path d="M5236 4050 L5236 4050" /> 
</g><path d="M5700 4100 L5800 4100" /> 
<path d="M5736 4040 L5738 4038" /> 
<path d="M5738 4038 L5743 4035" /> 
<path d="M5743 4035 L5755 4035" /> 
<path d="M5755 4035 L5759 4038" /> 
<path d="M5759 4038 L5762 4040" /> 
<path d="M5762 4040 L5764 4045" /> 
<path d="M5764 4045 L5764 4050" /> 
<path d="M5764 4050 L5762 4057" /> 
<path d="M5762 4057 L5733 4085" /> 
<path d="M5733 4085 L5764 4085" /> 
<g style = "stroke-linecap:round;" > 
<path d="M5764 4085 L5764 4085" /> 
</g></g>
<g style="fill:#00A0A0; fill-opacity:0.0; 
  stroke:#00A0A0; stroke-linecap:round; stroke-linejoin:round; stroke-opacity:1.0; stroke-opacity:1.0; stroke-width:6" 
   transform="translate(0 0) scale(1 1)">
<path d="M5491 3971 L5471 3943" /> 
<g style = "stroke-linecap:round;" > 
<path d="M5471 3943 L5471 3943" /> 
</g><path d="M5456 3971 L5456 3911" /> 
<path d="M5456 3911 L5479 3911" /> 
<path d="M5479 3911 L5485 3914" /> 
<path d="M5485 3914 L5488 3917" /> 
<path d="M5488 3917 L5491 3923" /> 
<path d="M5491 3923 L5491 3931" /> 
<path d="M5491 3931 L5488 3937" /> 
<path d="M5488 3937 L5485 3940" /> 
<path d="M5485 3940 L5479 3943" /> 
<path d="M5479 3943 L5456 3943" /> 
<g style = "stroke-linecap:round;" > 
<path d="M5456 3943 L5456 3943" /> 
</g><path d="M5542 3931 L5542 3971" /> 
<g style = "stroke-linecap:round;" > 
<path d="M5542 3971 L5542 3971" /> 
</g><path d="M5528 3908 L5513 3951" /> 
<path d="M5513 3951 L5551 3951" /> 
<g style = "stroke-linecap:round;" > 
<path d="M5551 3951 L5551 3951" /> 
</g><path d="M5493 4271 L5458 4271" /> 
<g style = "stroke-linecap:round;" > 
<path d="M5458 4271 L5458 4271" /> 
</g><path d="M5476 4271 L5476 4211" /> 
<path d="M5476 4211 L5470 4220" /> 
<path d="M5470 4220 L5464 4226" /> 
<path d="M5464 4226 L5458 4228" /> 
<g style = "stroke-linecap:round;" > 
<path d="M5458 4228 L5458 4228" /> 
</g><path d="M5518 4271 L5518 4211" /> 
<g style = "stroke-linecap:round;" > 
<path d="M5518 4211 L5518 4211" /> 
</g><path d="M5524 4248 L5541 4271" /> 
<g style = "stroke-linecap:round;" > 
<path d="M5541 4271 L5541 4271" /> 
</g><path d="M5541 4231 L5518 4254" /> 
<g style = "stroke-linecap:round;" > 
<path d="M5518 4254 L5518 4254" /> 
</g></g>
<g style="fill:#A00000; fill-opacity:0.0; 
  stroke:#A00000; stroke-linecap:round; stroke-linejoin:round; stroke-opacity:1.0; stroke-opacity:1.0; stroke-width:6" 
   transform="translate(0 0) scale(1 1)">
<ellipse cx="5000" cy="4550" rx="250" ry="250"  /> 
</g>
<g style="fill:#000000; fill-opacity:0.0; 
  stroke:#A00000; stroke-linecap:round; stroke-linejoin:round; stroke-opacity:1.0; stroke-opacity:1.0; stroke-width:6" 
   transform="translate(0 0) scale(1 1)">
<polygon style="fill-rule:evenodd; " 
points="4925,4750
4925,4750
4925,4350
5075,4350
5075,4750
" /> 
</g>
<g style="fill:#A00000; fill-opacity:0.0; 
  stroke:#A00000; stroke-linecap:round; stroke-linejoin:round; stroke-opacity:1.0; stroke-opacity:1.0; stroke-width:6" 
   transform="translate(0 0) scale(1 1)">
<path d="M4900 4575 L4775 4625" /> 
<g style = "stroke-linecap:round;" > 
<path d="M4775 4625 L4775 4625" /> 
</g><path d="M4900 4475 L4850 4525" /> 
<g style = "stroke-linecap:round;" > 
<path d="M4850 4525 L4850 4525" /> 
</g><path d="M4825 4575 L4900 4575" /> 
<path d="M4900 4575 L4850 4625" /> 
<g style = "stroke-linecap:round;" > 
<path d="M4850 4625 L4850 4625" /> 
</g><path d="M4775 4525 L4900 4475" /> 
<path d="M4900 4475 L4825 4475" /> 
<g style = "stroke-linecap:round;" > 
<path d="M4825 4475 L4825 4475" /> 
</g><path d="M5000 4750 L5000 4900" /> 
<path d="M4985 4811 L4985 4839" /> 
<g style = "stroke-linecap:round;" > 
<path d="M4985 4839 L4985 4839" /> 
</g><path d="M4985 4825 L4935 4825" /> 
<path d="M4935 4825 L4942 4830" /> 
<path d="M4942 4830 L4947 4835" /> 
<path d="M4947 4835 L4950 4839" /> 
<g style = "stroke-linecap:round;" > 
<path d="M4950 4839 L4950 4839" /> 
</g><path d="M5000 4350 L5000 4200" /> 
<path d="M4940 4289 L4938 4287" /> 
<path d="M4938 4287 L4935 4282" /> 
<path d="M4935 4282 L4935 4270" /> 
<path d="M4935 4270 L4938 4266" /> 
<path d="M4938 4266 L4940 4263" /> 
<path d="M4940 4263 L4945 4261" /> 
<path d="M4945 4261 L4950 4261" /> 
<path d="M4950 4261 L4957 4263" /> 
<path d="M4957 4263 L4985 4292" /> 
<path d="M4985 4292 L4985 4261" /> 
<g style = "stroke-linecap:round;" > 
<path d="M4985 4261 L4985 4261" /> 
</g></g>
<g style="fill:#00A0A0; fill-opacity:0.0; 
  stroke:#00A0A0; stroke-linecap:round; stroke-linejoin:round; stroke-opacity:1.0; stroke-opacity:1.0; stroke-width:6" 
   transform="translate(0 0) scale(1 1)">
<path d="M5390 4527 L5370 4499" /> 
<g style = "stroke-linecap:round;" > 
<path d="M5370 4499 L5370 4499" /> 
</g><path d="M5355 4527 L5355 4467" /> 
<path d="M5355 4467 L5378 4467" /> 
<path d="M5378 4467 L5384 4470" /> 
<path d="M5384 4470 L5387 4473" /> 
<path d="M5387 4473 L5390 4479" /> 
<path d="M5390 4479 L5390 4487" /> 
<path d="M5390 4487 L5387 4493" /> 
<path d="M5387 4493 L5384 4496" /> 
<path d="M5384 4496 L5378 4499" /> 
<path d="M5378 4499 L5355 4499" /> 
<g style = "stroke-linecap:round;" > 
<path d="M5355 4499 L5355 4499" /> 
</g><path d="M5410 4467 L5447 4467" /> 
<path d="M5447 4467 L5427 4490" /> 
<path d="M5427 4490 L5435 4490" /> 
<path d="M5435 4490 L5441 4493" /> 
<path d="M5441 4493 L5444 4496" /> 
<path d="M5444 4496 L5447 4502" /> 
<path d="M5447 4502 L5447 4516" /> 
<path d="M5447 4516 L5444 4522" /> 
<path d="M5444 4522 L5441 4524" /> 
<path d="M5441 4524 L5435 4527" /> 
<path d="M5435 4527 L5418 4527" /> 
<path d="M5418 4527 L5412 4524" /> 
<path d="M5412 4524 L5410 4522" /> 
<g style = "stroke-linecap:round;" > 
<path d="M5410 4522 L5410 4522" /> 
</g><path d="M5358 4677 L5329 4677" /> 
<path d="M5329 4677 L5329 4617" /> 
<g style = "stroke-linecap:round;" > 
<path d="M5329 4617 L5329 4617" /> 
</g><path d="M5378 4677 L5378 4617" /> 
<path d="M5378 4617 L5393 4617" /> 
<path d="M5393 4617 L5401 4620" /> 
<path d="M5401 4620 L5407 4626" /> 
<path d="M5407 4626 L5410 4632" /> 
<path d="M5410 4632 L5413 4643" /> 
<path d="M5413 4643 L5413 4652" /> 
<path d="M5413 4652 L5410 4663" /> 
<path d="M5410 4663 L5407 4669" /> 
<path d="M5407 4669 L5401 4674" /> 
<path d="M5401 4674 L5393 4677" /> 
<path d="M5393 4677 L5378 4677" /> 
<path d="M5473 4677 L5453 4649" /> 
<g style = "stroke-linecap:round;" > 
<path d="M5453 4649 L5453 4649" /> 
</g><path d="M5438 4677 L5438 4617" /> 
<path d="M5438 4617 L5461 4617" /> 
<path d="M5461 4617 L5467 4620" /> 
<path d="M5467 4620 L5470 4623" /> 
<path d="M5470 4623 L5473 4629" /> 
<path d="M5473 4629 L5473 4637" /> 
<path d="M5473 4637 L5470 4643" /> 
<path d="M5470 4643 L5467 4646" /> 
<path d="M5467 4646 L5461 4649" /> 
<path d="M5461 4649 L5438 4649" /> 
<g style = "stroke-linecap:round;" > 
<path d="M5438 4649 L5438 4649" /> 
</g></g>
<g style="fill:#000000; fill-opacity:0.0; 
  stroke:#A00000; stroke-linecap:round; stroke-linejoin:round; stroke-opacity:1.0; stroke-opacity:1.0; stroke-width:6" 
   transform="translate(0 0) scale(1 1)">
<polygon style="fill-rule:evenodd; " 
points="4925,3300
4925,3300
4925,2900
5075,2900
5075,3300
" /> 
<path d="M5000 3300 L5000 3400" /> 
</g>
<g style="fill:#A00000; fill-opacity:0.0; 
  stroke:#A00000; stroke-linecap:round; stroke-linejoin:round; stroke-opacity:1.0; stroke-opacity:1.0; stroke-width:6" 
   transform="translate(0 0) scale(1 1)">
<path d="M4985 3336 L4985 3364" /> 
<g style = "stroke-linecap:round;" > 
<path d="M4985 3364 L4985 3364" /> 
</g><path d="M4985 3350 L4935 3350" /> 
<path d="M4935 3350 L4942 3355" /> 
<path d="M4942 3355 L4947 3360" /> 
<path d="M4947 3360 L4950 3364" /> 
<g style = "stroke-linecap:round;" > 
<path d="M4950 3364 L4950 3364" /> 
</g><path d="M5000 2900 L5000 2800" /> 
<path d="M4940 2864 L4938 2862" /> 
<path d="M4938 2862 L4935 2857" /> 
<path d="M4935 2857 L4935 2845" /> 
<path d="M4935 2845 L4938 2841" /> 
<path d="M4938 2841 L4940 2838" /> 
<path d="M4940 2838 L4945 2836" /> 
<path d="M4945 2836 L4950 2836" /> 
<path d="M4950 2836 L4957 2838" /> 
<path d="M4957 2838 L4985 2867" /> 
<path d="M4985 2867 L4985 2836" /> 
<g style = "stroke-linecap:round;" > 
<path d="M4985 2836 L4985 2836" /> 
</g></g>
<g style="fill:#00A0A0; fill-opacity:0.0; 
  stroke:#00A0A0; stroke-linecap:round; stroke-linejoin:round; stroke-opacity:1.0; stroke-opacity:1.0; stroke-width:6" 
   transform="translate(0 0) scale(1 1)">
<path d="M5240 3027 L5220 2999" /> 
<g style = "stroke-linecap:round;" > 
<path d="M5220 2999 L5220 2999" /> 
</g><path d="M5205 3027 L5205 2967" /> 
<path d="M5205 2967 L5228 2967" /> 
<path d="M5228 2967 L5234 2970" /> 
<path d="M5234 2970 L5237 2973" /> 
<path d="M5237 2973 L5240 2979" /> 
<path d="M5240 2979 L5240 2987" /> 
<path d="M5240 2987 L5237 2993" /> 
<path d="M5237 2993 L5234 2996" /> 
<path d="M5234 2996 L5228 2999" /> 
<path d="M5228 2999 L5205 2999" /> 
<g style = "stroke-linecap:round;" > 
<path d="M5205 2999 L5205 2999" /> 
</g><path d="M5297 3027 L5262 3027" /> 
<g style = "stroke-linecap:round;" > 
<path d="M5262 3027 L5262 3027" /> 
</g><path d="M5280 3027 L5280 2967" /> 
<path d="M5280 2967 L5274 2976" /> 
<path d="M5274 2976 L5268 2982" /> 
<path d="M5268 2982 L5262 2984" /> 
<g style = "stroke-linecap:round;" > 
<path d="M5262 2984 L5262 2984" /> 
</g><path d="M5214 3177 L5179 3177" /> 
<g style = "stroke-linecap:round;" > 
<path d="M5179 3177 L5179 3177" /> 
</g><path d="M5197 3177 L5197 3117" /> 
<path d="M5197 3117 L5191 3126" /> 
<path d="M5191 3126 L5185 3132" /> 
<path d="M5185 3132 L5179 3134" /> 
<g style = "stroke-linecap:round;" > 
<path d="M5179 3134 L5179 3134" /> 
</g><path d="M5251 3117 L5256 3117" /> 
<path d="M5256 3117 L5262 3120" /> 
<path d="M5262 3120 L5265 3123" /> 
<path d="M5265 3123 L5268 3129" /> 
<path d="M5268 3129 L5271 3140" /> 
<path d="M5271 3140 L5271 3154" /> 
<path d="M5271 3154 L5268 3166" /> 
<path d="M5268 3166 L5265 3172" /> 
<path d="M5265 3172 L5262 3174" /> 
<path d="M5262 3174 L5256 3177" /> 
<path d="M5256 3177 L5251 3177" /> 
<path d="M5251 3177 L5245 3174" /> 
<path d="M5245 3174 L5242 3172" /> 
<path d="M5242 3172 L5239 3166" /> 
<path d="M5239 3166 L5236 3154" /> 
<path d="M5236 3154 L5236 3140" /> 
<path d="M5236 3140 L5239 3129" /> 
<path d="M5239 3129 L5242 3123" /> 
<path d="M5242 3123 L5245 3120" /> 
<path d="M5245 3120 L5251 3117" /> 
<path d="M5296 3177 L5296 3117" /> 
<g style = "stroke-linecap:round;" > 
<path d="M5296 3117 L5296 3117" /> 
</g><path d="M5302 3154 L5319 3177" /> 
<g style = "stroke-linecap:round;" > 
<path d="M5319 3177 L5319 3177" /> 
</g><path d="M5319 3137 L5296 3160" /> 
<g style = "stroke-linecap:round;" > 
<path d="M5296 3160 L5296 3160" /> 
</g></g>
<g style="fill:#A00000; fill-opacity:0.0; 
  stroke:#A00000; stroke-linecap:round; stroke-linejoin:round; stroke-opacity:1.0; stroke-opacity:1.0; stroke-width:6" 
   transform="translate(0 0) scale(1 1)">
<path d="M6500 2400 L6300 2400" /> 
<g style = "stroke-linecap:round;" > 
<path d="M6300 2400 L6300 2400" /> 
</g><path d="M6290 2280 L6155 2385" /> 
<path d="M6155 2385 L6195 2325" /> 
<g style = "stroke-linecap:round;" > 
<path d="M6195 2325 L6195 2325" /> 
</g><path d="M6320 2340 L6190 2440" /> 
<path d="M6190 2440 L6235 2375" /> 
<g style = "stroke-linecap:round;" > 
<path d="M6235 2375 L6235 2375" /> 
</g><path d="M6500 2200 L6300 2200" /> 
<path d="M6300 2200 L6400 2400" /> 
<path d="M6400 2400 L6500 2200" /> 
<path d="M6400 2200 L6400 2000" /> 
<path d="M6385 2086 L6385 2114" /> 
<g style = "stroke-linecap:round;" > 
<path d="M6385 2114 L6385 2114" /> 
</g><path d="M6385 2100 L6335 2100" /> 
<path d="M6335 2100 L6342 2105" /> 
<path d="M6342 2105 L6347 2110" /> 
<path d="M6347 2110 L6350 2114" /> 
<g style = "stroke-linecap:round;" > 
<path d="M6350 2114 L6350 2114" /> 
</g><path d="M6400 2400 L6400 2600" /> 
<path d="M6340 2514 L6338 2512" /> 
<path d="M6338 2512 L6335 2507" /> 
<path d="M6335 2507 L6335 2495" /> 
<path d="M6335 2495 L6338 2491" /> 
<path d="M6338 2491 L6340 2488" /> 
<path d="M6340 2488 L6345 2486" /> 
<path d="M6345 2486 L6350 2486" /> 
<path d="M6350 2486 L6357 2488" /> 
<path d="M6357 2488 L6385 2517" /> 
<path d="M6385 2517 L6385 2486" /> 
<g style = "stroke-linecap:round;" > 
<path d="M6385 2486 L6385 2486" /> 
</g></g>
<g style="fill:#00A0A0; fill-opacity:0.0; 
  stroke:#00A0A0; stroke-linecap:round; stroke-linejoin:round; stroke-opacity:1.0; stroke-opacity:1.0; stroke-width:6" 
   transform="translate(0 0) scale(1 1)">
<path d="M6622 2211 L6642 2271" /> 
<path d="M6642 2271 L6662 2211" /> 
<g style = "stroke-linecap:round;" > 
<path d="M6662 2211 L6662 2211" /> 
</g><path d="M6681 2271 L6681 2211" /> 
<path d="M6681 2211 L6696 2211" /> 
<path d="M6696 2211 L6704 2214" /> 
<path d="M6704 2214 L6710 2220" /> 
<path d="M6710 2220 L6713 2226" /> 
<path d="M6713 2226 L6716 2237" /> 
<path d="M6716 2237 L6716 2246" /> 
<path d="M6716 2246 L6713 2257" /> 
<path d="M6713 2257 L6710 2263" /> 
<path d="M6710 2263 L6704 2268" /> 
<path d="M6704 2268 L6696 2271" /> 
<path d="M6696 2271 L6681 2271" /> 
<path d="M6773 2271 L6738 2271" /> 
<g style = "stroke-linecap:round;" > 
<path d="M6738 2271 L6738 2271" /> 
</g><path d="M6756 2271 L6756 2211" /> 
<path d="M6756 2211 L6750 2220" /> 
<path d="M6750 2220 L6744 2226" /> 
<path d="M6744 2226 L6738 2228" /> 
<g style = "stroke-linecap:round;" > 
<path d="M6738 2228 L6738 2228" /> 
</g><path d="M6662 2421 L6633 2421" /> 
<path d="M6633 2421 L6633 2361" /> 
<g style = "stroke-linecap:round;" > 
<path d="M6633 2361 L6633 2361" /> 
</g><path d="M6682 2390 L6702 2390" /> 
<g style = "stroke-linecap:round;" > 
<path d="M6702 2390 L6702 2390" /> 
</g><path d="M6711 2421 L6682 2421" /> 
<path d="M6682 2421 L6682 2361" /> 
<path d="M6682 2361 L6711 2361" /> 
<g style = "stroke-linecap:round;" > 
<path d="M6711 2361 L6711 2361" /> 
</g><path d="M6736 2421 L6736 2361" /> 
<path d="M6736 2361 L6751 2361" /> 
<path d="M6751 2361 L6759 2364" /> 
<path d="M6759 2364 L6765 2370" /> 
<path d="M6765 2370 L6768 2376" /> 
<path d="M6768 2376 L6771 2387" /> 
<path d="M6771 2387 L6771 2396" /> 
<path d="M6771 2396 L6768 2407" /> 
<path d="M6768 2407 L6765 2413" /> 
<path d="M6765 2413 L6759 2418" /> 
<path d="M6759 2418 L6751 2421" /> 
<path d="M6751 2421 L6736 2421" /> 
</g>
<g style="fill:#000000; fill-opacity:0.0; 
  stroke:#A00000; stroke-linecap:round; stroke-linejoin:round; stroke-opacity:1.0; stroke-opacity:1.0; stroke-width:6" 
   transform="translate(0 0) scale(1 1)">
<polygon style="fill-rule:evenodd; " 
points="6325,3300
6325,3300
6325,2900
6475,2900
6475,3300
" /> 
<path d="M6400 3300 L6400 3400" /> 
</g>
<g style="fill:#A00000; fill-opacity:0.0; 
  stroke:#A00000; stroke-linecap:round; stroke-linejoin:round; stroke-opacity:1.0; stroke-opacity:1.0; stroke-width:6" 
   transform="translate(0 0) scale(1 1)">
<path d="M6385 3336 L6385 3364" /> 
<g style = "stroke-linecap:round;" > 
<path d="M6385 3364 L6385 3364" /> 
</g><path d="M6385 3350 L6335 3350" /> 
<path d="M6335 3350 L6342 3355" /> 
<path d="M6342 3355 L6347 3360" /> 
<path d="M6347 3360 L6350 3364" /> 
<g style = "stroke-linecap:round;" > 
<path d="M6350 3364 L6350 3364" /> 
</g><path d="M6400 2900 L6400 2800" /> 
<path d="M6340 2864 L6338 2862" /> 
<path d="M6338 2862 L6335 2857" /> 
<path d="M6335 2857 L6335 2845" /> 
<path d="M6335 2845 L6338 2841" /> 
<path d="M6338 2841 L6340 2838" /> 
<path d="M6340 2838 L6345 2836" /> 
<path d="M6345 2836 L6350 2836" /> 
<path d="M6350 2836 L6357 2838" /> 
<path d="M6357 2838 L6385 2867" /> 
<path d="M6385 2867 L6385 2836" /> 
<g style = "stroke-linecap:round;" > 
<path d="M6385 2836 L6385 2836" /> 
</g></g>
<g style="fill:#00A0A0; fill-opacity:0.0; 
  stroke:#00A0A0; stroke-linecap:round; stroke-linejoin:round; stroke-opacity:1.0; stroke-opacity:1.0; stroke-width:6" 
   transform="translate(0 0) scale(1 1)">
<path d="M6640 3027 L6620 2999" /> 
<g style = "stroke-linecap:round;" > 
<path d="M6620 2999 L6620 2999" /> 
</g><path d="M6605 3027 L6605 2967" /> 
<path d="M6605 2967 L6628 2967" /> 
<path d="M6628 2967 L6634 2970" /> 
<path d="M6634 2970 L6637 2973" /> 
<path d="M6637 2973 L6640 2979" /> 
<path d="M6640 2979 L6640 2987" /> 
<path d="M6640 2987 L6637 2993" /> 
<path d="M6637 2993 L6634 2996" /> 
<path d="M6634 2996 L6628 2999" /> 
<path d="M6628 2999 L6605 2999" /> 
<g style = "stroke-linecap:round;" > 
<path d="M6605 2999 L6605 2999" /> 
</g><path d="M6662 2973 L6665 2970" /> 
<path d="M6665 2970 L6671 2967" /> 
<path d="M6671 2967 L6685 2967" /> 
<path d="M6685 2967 L6691 2970" /> 
<path d="M6691 2970 L6694 2973" /> 
<path d="M6694 2973 L6697 2979" /> 
<path d="M6697 2979 L6697 2984" /> 
<path d="M6697 2984 L6694 2993" /> 
<path d="M6694 2993 L6660 3027" /> 
<path d="M6660 3027 L6697 3027" /> 
<g style = "stroke-linecap:round;" > 
<path d="M6697 3027 L6697 3027" /> 
</g><path d="M6593 3117 L6630 3117" /> 
<path d="M6630 3117 L6610 3140" /> 
<path d="M6610 3140 L6618 3140" /> 
<path d="M6618 3140 L6624 3143" /> 
<path d="M6624 3143 L6627 3146" /> 
<path d="M6627 3146 L6630 3152" /> 
<path d="M6630 3152 L6630 3166" /> 
<path d="M6630 3166 L6627 3172" /> 
<path d="M6627 3172 L6624 3174" /> 
<path d="M6624 3174 L6618 3177" /> 
<path d="M6618 3177 L6601 3177" /> 
<path d="M6601 3177 L6595 3174" /> 
<path d="M6595 3174 L6593 3172" /> 
<g style = "stroke-linecap:round;" > 
<path d="M6593 3172 L6593 3172" /> 
</g><path d="M6658 3177 L6670 3177" /> 
<path d="M6670 3177 L6675 3174" /> 
<path d="M6675 3174 L6678 3172" /> 
<path d="M6678 3172 L6684 3163" /> 
<path d="M6684 3163 L6687 3152" /> 
<path d="M6687 3152 L6687 3129" /> 
<path d="M6687 3129 L6684 3123" /> 
<path d="M6684 3123 L6681 3120" /> 
<path d="M6681 3120 L6675 3117" /> 
<path d="M6675 3117 L6664 3117" /> 
<path d="M6664 3117 L6658 3120" /> 
<path d="M6658 3120 L6655 3123" /> 
<path d="M6655 3123 L6652 3129" /> 
<path d="M6652 3129 L6652 3143" /> 
<path d="M6652 3143 L6655 3149" /> 
<path d="M6655 3149 L6658 3152" /> 
<path d="M6658 3152 L6664 3154" /> 
<path d="M6664 3154 L6675 3154" /> 
<path d="M6675 3154 L6681 3152" /> 
<path d="M6681 3152 L6684 3149" /> 
<path d="M6684 3149 L6687 3143" /> 
<g style = "stroke-linecap:round;" > 
<path d="M6687 3143 L6687 3143" /> 
</g><path d="M6724 3117 L6729 3117" /> 
<path d="M6729 3117 L6735 3120" /> 
<path d="M6735 3120 L6738 3123" /> 
<path d="M6738 3123 L6741 3129" /> 
<path d="M6741 3129 L6744 3140" /> 
<path d="M6744 3140 L6744 3154" /> 
<path d="M6744 3154 L6741 3166" /> 
<path d="M6741 3166 L6738 3172" /> 
<path d="M6738 3172 L6735 3174" /> 
<path d="M6735 3174 L6729 3177" /> 
<path d="M6729 3177 L6724 3177" /> 
<path d="M6724 3177 L6718 3174" /> 
<path d="M6718 3174 L6715 3172" /> 
<path d="M6715 3172 L6712 3166" /> 
<path d="M6712 3166 L6709 3154" /> 
<path d="M6709 3154 L6709 3140" /> 
<path d="M6709 3140 L6712 3129" /> 
<path d="M6712 3129 L6715 3123" /> 
<path d="M6715 3123 L6718 3120" /> 
<path d="M6718 3120 L6724 3117" /> 
<path d="M6804 3177 L6784 3149" /> 
<g style = "stroke-linecap:round;" > 
<path d="M6784 3149 L6784 3149" /> 
</g><path d="M6769 3177 L6769 3117" /> 
<path d="M6769 3117 L6792 3117" /> 
<path d="M6792 3117 L6798 3120" /> 
<path d="M6798 3120 L6801 3123" /> 
<path d="M6801 3123 L6804 3129" /> 
<path d="M6804 3129 L6804 3137" /> 
<path d="M6804 3137 L6801 3143" /> 
<path d="M6801 3143 L6798 3146" /> 
<path d="M6798 3146 L6792 3149" /> 
<path d="M6792 3149 L6769 3149" /> 
<g style = "stroke-linecap:round;" > 
<path d="M6769 3149 L6769 3149" /> 
</g></g>
<g style="fill:#A00000; fill-opacity:0.0; 
  stroke:#A00000; stroke-linecap:round; stroke-linejoin:round; stroke-opacity:1.0; stroke-opacity:1.0; stroke-width:6" 
   transform="translate(0 0) scale(1 1)">
<path d="M7500 2700 L7400 2500" /> 
<g style = "stroke-linecap:round;" > 
<path d="M7400 2500 L7400 2500" /> 
</g><path d="M7500 2700 L7500 2900" /> 
<path d="M7485 2786 L7485 2814" /> 
<g style = "stroke-linecap:round;" > 
<path d="M7485 2814 L7485 2814" /> 
</g><path d="M7485 2800 L7435 2800" /> 
<path d="M7435 2800 L7442 2805" /> 
<path d="M7442 2805 L7447 2810" /> 
<path d="M7447 2810 L7450 2814" /> 
<g style = "stroke-linecap:round;" > 
<path d="M7450 2814 L7450 2814" /> 
</g><path d="M7500 2500 L7500 2300" /> 
<path d="M7440 2414 L7438 2412" /> 
<path d="M7438 2412 L7435 2407" /> 
<path d="M7435 2407 L7435 2395" /> 
<path d="M7435 2395 L7438 2391" /> 
<path d="M7438 2391 L7440 2388" /> 
<path d="M7440 2388 L7445 2386" /> 
<path d="M7445 2386 L7450 2386" /> 
<path d="M7450 2386 L7457 2388" /> 
<path d="M7457 2388 L7485 2417" /> 
<path d="M7485 2417 L7485 2386" /> 
<g style = "stroke-linecap:round;" > 
<path d="M7485 2386 L7485 2386" /> 
</g></g>
<g style="fill:#00A0A0; fill-opacity:0.0; 
  stroke:#00A0A0; stroke-linecap:round; stroke-linejoin:round; stroke-opacity:1.0; stroke-opacity:1.0; stroke-width:6" 
   transform="translate(0 0) scale(1 1)">
<path d="M7628 2624 L7637 2627" /> 
<path d="M7637 2627 L7651 2627" /> 
<path d="M7651 2627 L7657 2624" /> 
<path d="M7657 2624 L7660 2622" /> 
<path d="M7660 2622 L7663 2616" /> 
<path d="M7663 2616 L7663 2610" /> 
<path d="M7663 2610 L7660 2604" /> 
<path d="M7660 2604 L7657 2602" /> 
<path d="M7657 2602 L7651 2599" /> 
<path d="M7651 2599 L7640 2596" /> 
<path d="M7640 2596 L7634 2593" /> 
<path d="M7634 2593 L7631 2590" /> 
<path d="M7631 2590 L7628 2584" /> 
<path d="M7628 2584 L7628 2579" /> 
<path d="M7628 2579 L7631 2573" /> 
<path d="M7631 2573 L7634 2570" /> 
<path d="M7634 2570 L7640 2567" /> 
<path d="M7640 2567 L7654 2567" /> 
<path d="M7654 2567 L7663 2570" /> 
<g style = "stroke-linecap:round;" > 
<path d="M7663 2570 L7663 2570" /> 
</g><path d="M7685 2610 L7714 2610" /> 
<g style = "stroke-linecap:round;" > 
<path d="M7714 2610 L7714 2610" /> 
</g><path d="M7680 2627 L7700 2567" /> 
<path d="M7700 2567 L7720 2627" /> 
<g style = "stroke-linecap:round;" > 
<path d="M7720 2627 L7720 2627" /> 
</g><path d="M7771 2627 L7736 2627" /> 
<g style = "stroke-linecap:round;" > 
<path d="M7736 2627 L7736 2627" /> 
</g><path d="M7754 2627 L7754 2567" /> 
<path d="M7754 2567 L7748 2576" /> 
<path d="M7748 2576 L7742 2582" /> 
<path d="M7742 2582 L7736 2584" /> 
<g style = "stroke-linecap:round;" > 
<path d="M7736 2584 L7736 2584" /> 
</g></g>
<g style="fill:#A00000; fill-opacity:0.0; 
  stroke:#A00000; stroke-linecap:round; stroke-linejoin:round; stroke-opacity:1.0; stroke-opacity:1.0; stroke-width:6" 
   transform="translate(0 0) scale(1 1)">
<path d="M7580 3400 L7580 3440" /> 
<g style = "stroke-linecap:round;" > 
<path d="M7580 3440 L7580 3440" /> 
</g><path d="M7600 3420 L7560 3420" /> 
<g style = "stroke-linecap:round;" > 
<path d="M7560 3420 L7560 3420" /> 
</g><path d="M7600 3450 L7400 3450" /> 
<g style = "stroke-linecap:round;" > 
<path d="M7400 3450 L7400 3450" /> 
</g><path d="M7500 3500 L7500 3550" /> 
<g style = "stroke-linecap:round;" > 
<path d="M7500 3550 L7500 3550" /> 
</g><path d="M7550 3500 L7450 3500" /> 
<g style = "stroke-linecap:round;" > 
<path d="M7450 3500 L7450 3500" /> 
</g><path d="M7500 3600 L7500 3650" /> 
<g style = "stroke-linecap:round;" > 
<path d="M7500 3650 L7500 3650" /> 
</g><path d="M7500 3700 L7500 3750" /> 
<g style = "stroke-linecap:round;" > 
<path d="M7500 3750 L7500 3750" /> 
</g><path d="M7600 3750 L7400 3750" /> 
<g style = "stroke-linecap:round;" > 
<path d="M7400 3750 L7400 3750" /> 
</g><path d="M7550 3800 L7450 3800" /> 
<g style = "stroke-linecap:round;" > 
<path d="M7450 3800 L7450 3800" /> 
</g><path d="M7500 3450 L7500 3250" /> 
<path d="M7485 3336 L7485 3364" /> 
<g style = "stroke-linecap:round;" > 
<path d="M7485 3364 L7485 3364" /> 
</g><path d="M7485 3350 L7435 3350" /> 
<path d="M7435 3350 L7442 3355" /> 
<path d="M7442 3355 L7447 3360" /> 
<path d="M7447 3360 L7450 3364" /> 
<g style = "stroke-linecap:round;" > 
<path d="M7450 3364 L7450 3364" /> 
</g><path d="M7500 3800 L7500 3900" /> 
<path d="M7440 3864 L7438 3862" /> 
<path d="M7438 3862 L7435 3857" /> 
<path d="M7435 3857 L7435 3845" /> 
<path d="M7435 3845 L7438 3841" /> 
<path d="M7438 3841 L7440 3838" /> 
<path d="M7440 3838 L7445 3836" /> 
<path d="M7445 3836 L7450 3836" /> 
<path d="M7450 3836 L7457 3838" /> 
<path d="M7457 3838 L7485 3867" /> 
<path d="M7485 3867 L7485 3836" /> 
<g style = "stroke-linecap:round;" > 
<path d="M7485 3836 L7485 3836" /> 
</g></g>
<g style="fill:#00A0A0; fill-opacity:0.0; 
  stroke:#00A0A0; stroke-linecap:round; stroke-linejoin:round; stroke-opacity:1.0; stroke-opacity:1.0; stroke-width:6" 
   transform="translate(0 0) scale(1 1)">
<path d="M7658 3564 L7652 3561" /> 
<path d="M7652 3561 L7643 3561" /> 
<path d="M7643 3561 L7635 3564" /> 
<path d="M7635 3564 L7629 3570" /> 
<path d="M7629 3570 L7626 3576" /> 
<path d="M7626 3576 L7623 3587" /> 
<path d="M7623 3587 L7623 3596" /> 
<path d="M7623 3596 L7626 3607" /> 
<path d="M7626 3607 L7629 3613" /> 
<path d="M7629 3613 L7635 3618" /> 
<path d="M7635 3618 L7643 3621" /> 
<path d="M7643 3621 L7649 3621" /> 
<path d="M7649 3621 L7658 3618" /> 
<path d="M7658 3618 L7661 3616" /> 
<path d="M7661 3616 L7661 3596" /> 
<path d="M7661 3596 L7649 3596" /> 
<g style = "stroke-linecap:round;" > 
<path d="M7649 3596 L7649 3596" /> 
</g><path d="M7706 3590 L7715 3593" /> 
<path d="M7715 3593 L7718 3596" /> 
<path d="M7718 3596 L7721 3601" /> 
<path d="M7721 3601 L7721 3610" /> 
<path d="M7721 3610 L7718 3616" /> 
<path d="M7718 3616 L7715 3618" /> 
<path d="M7715 3618 L7709 3621" /> 
<path d="M7709 3621 L7686 3621" /> 
<path d="M7686 3621 L7686 3561" /> 
<path d="M7686 3561 L7706 3561" /> 
<path d="M7706 3561 L7712 3564" /> 
<path d="M7712 3564 L7715 3567" /> 
<path d="M7715 3567 L7718 3573" /> 
<path d="M7718 3573 L7718 3578" /> 
<path d="M7718 3578 L7715 3584" /> 
<path d="M7715 3584 L7712 3587" /> 
<path d="M7712 3587 L7706 3590" /> 
<path d="M7706 3590 L7686 3590" /> 
<g style = "stroke-linecap:round;" > 
<path d="M7686 3590 L7686 3590" /> 
</g><path d="M7778 3621 L7743 3621" /> 
<g style = "stroke-linecap:round;" > 
<path d="M7743 3621 L7743 3621" /> 
</g><path d="M7761 3621 L7761 3561" /> 
<path d="M7761 3561 L7755 3570" /> 
<path d="M7755 3570 L7749 3576" /> 
<path d="M7749 3576 L7743 3578" /> 
<g style = "stroke-linecap:round;" > 
<path d="M7743 3578 L7743 3578" /> 
</g></g>
<g style="fill:#A00000; fill-opacity:0.0; 
  stroke:#A00000; stroke-linecap:round; stroke-linejoin:round; stroke-opacity:1.0; stroke-opacity:1.0; stroke-width:6" 
   transform="translate(0 0) scale(1 1)">
<ellipse cx="6300" cy="3900" rx="250" ry="250"  /> 
<path d="M6250 4100 L6150 4100" /> 
<g style = "stroke-linecap:round;" > 
<path d="M6150 4100 L6150 4100" /> 
</g><path d="M6250 3700 L6250 4100" /> 
<g style = "stroke-linecap:round;" > 
<path d="M6250 4100 L6250 4100" /> 
</g><path d="M6300 4050 L6400 4050" /> 
<g style = "stroke-linecap:round;" > 
<path d="M6400 4050 L6400 4050" /> 
</g><path d="M6300 4000 L6300 4100" /> 
<g style = "stroke-linecap:round;" > 
<path d="M6300 4100 L6300 4100" /> 
</g><path d="M6300 3850 L6300 3950" /> 
<g style = "stroke-linecap:round;" > 
<path d="M6300 3950 L6300 3950" /> 
</g><path d="M6300 3800 L6300 3700" /> 
<g style = "stroke-linecap:round;" > 
<path d="M6300 3700 L6300 3700" /> 
</g><path d="M6450 3825 L6500 3825" /> 
<g style = "stroke-linecap:round;" > 
<path d="M6500 3825 L6500 3825" /> 
</g><path d="M6300 3900 L6400 3900" /> 
<path d="M6400 3900 L6400 4125" /> 
<g style = "stroke-linecap:round;" > 
<path d="M6400 4125 L6400 4125" /> 
</g><path d="M6375 3925 L6300 3900" /> 
<path d="M6300 3900 L6375 3875" /> 
<g style = "stroke-linecap:round;" > 
<path d="M6375 3875 L6375 3875" /> 
</g><path d="M6400 3750 L6475 3750" /> 
<path d="M6475 3750 L6475 3825" /> 
<g style = "stroke-linecap:round;" > 
<path d="M6475 3825 L6475 3825" /> 
</g><path d="M6400 3700 L6400 3750" /> 
<path d="M6400 3750 L6300 3750" /> 
<g style = "stroke-linecap:round;" > 
<path d="M6300 3750 L6300 3750" /> 
</g><path d="M6475 3875 L6475 4050" /> 
<path d="M6475 4050 L6400 4050" /> 
<g style = "stroke-linecap:round;" > 
<path d="M6400 4050 L6400 4050" /> 
</g><path d="M6475 3825 L6450 3875" /> 
<path d="M6450 3875 L6500 3875" /> 
<path d="M6500 3875 L6475 3825" /> 
<path d="M6400 3700 L6400 3500" /> 
<path d="M6385 3613 L6335 3613" /> 
<path d="M6335 3613 L6335 3601" /> 
<path d="M6335 3601 L6338 3594" /> 
<path d="M6338 3594 L6342 3589" /> 
<path d="M6342 3589 L6347 3587" /> 
<path d="M6347 3587 L6357 3585" /> 
<path d="M6357 3585 L6364 3585" /> 
<path d="M6364 3585 L6373 3587" /> 
<path d="M6373 3587 L6378 3589" /> 
<path d="M6378 3589 L6383 3594" /> 
<path d="M6383 3594 L6385 3601" /> 
<path d="M6385 3601 L6385 3613" /> 
<path d="M6150 4100 L5950 4100" /> 
<path d="M6063 4038 L6058 4035" /> 
<path d="M6058 4035 L6051 4035" /> 
<path d="M6051 4035 L6044 4038" /> 
<path d="M6044 4038 L6039 4042" /> 
<path d="M6039 4042 L6037 4047" /> 
<path d="M6037 4047 L6035 4057" /> 
<path d="M6035 4057 L6035 4064" /> 
<path d="M6035 4064 L6037 4073" /> 
<path d="M6037 4073 L6039 4078" /> 
<path d="M6039 4078 L6044 4083" /> 
<path d="M6044 4083 L6051 4085" /> 
<path d="M6051 4085 L6056 4085" /> 
<path d="M6056 4085 L6063 4083" /> 
<path d="M6063 4083 L6065 4080" /> 
<path d="M6065 4080 L6065 4064" /> 
<path d="M6065 4064 L6056 4064" /> 
<g style = "stroke-linecap:round;" > 
<path d="M6056 4064 L6056 4064" /> 
</g><path d="M6400 4100 L6400 4300" /> 
<path d="M6383 4214 L6385 4207" /> 
<path d="M6385 4207 L6385 4195" /> 
<path d="M6385 4195 L6383 4191" /> 
<path d="M6383 4191 L6380 4188" /> 
<path d="M6380 4188 L6376 4186" /> 
<path d="M6376 4186 L6371 4186" /> 
<path d="M6371 4186 L6366 4188" /> 
<path d="M6366 4188 L6364 4191" /> 
<path d="M6364 4191 L6361 4195" /> 
<path d="M6361 4195 L6359 4205" /> 
<path d="M6359 4205 L6357 4210" /> 
<path d="M6357 4210 L6354 4212" /> 
<path d="M6354 4212 L6350 4214" /> 
<path d="M6350 4214 L6345 4214" /> 
<path d="M6345 4214 L6340 4212" /> 
<path d="M6340 4212 L6338 4210" /> 
<path d="M6338 4210 L6335 4205" /> 
<path d="M6335 4205 L6335 4193" /> 
<path d="M6335 4193 L6338 4186" /> 
<g style = "stroke-linecap:round;" > 
<path d="M6338 4186 L6338 4186" /> 
</g></g>
<g style="fill:#00A0A0; fill-opacity:0.0; 
  stroke:#00A0A0; stroke-linecap:round; stroke-linejoin:round; stroke-opacity:1.0; stroke-opacity:1.0; stroke-width:6" 
   transform="translate(0 0) scale(1 1)">
<path d="M6680 3790 L6660 3790" /> 
<g style = "stroke-linecap:round;" > 
<path d="M6660 3790 L6660 3790" /> 
</g><path d="M6660 3821 L6660 3761" /> 
<path d="M6660 3761 L6689 3761" /> 
<g style = "stroke-linecap:round;" > 
<path d="M6689 3761 L6689 3761" /> 
</g><path d="M6711 3790 L6731 3790" /> 
<g style = "stroke-linecap:round;" > 
<path d="M6731 3790 L6731 3790" /> 
</g><path d="M6740 3821 L6711 3821" /> 
<path d="M6711 3821 L6711 3761" /> 
<path d="M6711 3761 L6740 3761" /> 
<g style = "stroke-linecap:round;" > 
<path d="M6740 3761 L6740 3761" /> 
</g><path d="M6757 3761 L6791 3761" /> 
<g style = "stroke-linecap:round;" > 
<path d="M6791 3761 L6791 3761" /> 
</g><path d="M6774 3821 L6774 3761" /> 
<g style = "stroke-linecap:round;" > 
<path d="M6774 3761 L6774 3761" /> 
</g><path d="M6843 3821 L6808 3821" /> 
<g style = "stroke-linecap:round;" > 
<path d="M6808 3821 L6808 3821" /> 
</g><path d="M6826 3821 L6826 3761" /> 
<path d="M6826 3761 L6820 3770" /> 
<path d="M6820 3770 L6814 3776" /> 
<path d="M6814 3776 L6808 3778" /> 
<g style = "stroke-linecap:round;" > 
<path d="M6808 3778 L6808 3778" /> 
</g><path d="M6637 3917 L6640 3914" /> 
<path d="M6640 3914 L6646 3911" /> 
<path d="M6646 3911 L6660 3911" /> 
<path d="M6660 3911 L6666 3914" /> 
<path d="M6666 3914 L6669 3917" /> 
<path d="M6669 3917 L6672 3923" /> 
<path d="M6672 3923 L6672 3928" /> 
<path d="M6672 3928 L6669 3937" /> 
<path d="M6669 3937 L6635 3971" /> 
<path d="M6635 3971 L6672 3971" /> 
<g style = "stroke-linecap:round;" > 
<path d="M6672 3971 L6672 3971" /> 
</g><path d="M6697 3971 L6697 3911" /> 
<path d="M6697 3911 L6732 3971" /> 
<path d="M6732 3971 L6732 3911" /> 
<g style = "stroke-linecap:round;" > 
<path d="M6732 3911 L6732 3911" /> 
</g><path d="M6755 3911 L6795 3911" /> 
<path d="M6795 3911 L6769 3971" /> 
<g style = "stroke-linecap:round;" > 
<path d="M6769 3971 L6769 3971" /> 
</g><path d="M6829 3911 L6834 3911" /> 
<path d="M6834 3911 L6840 3914" /> 
<path d="M6840 3914 L6843 3917" /> 
<path d="M6843 3917 L6846 3923" /> 
<path d="M6846 3923 L6849 3934" /> 
<path d="M6849 3934 L6849 3948" /> 
<path d="M6849 3948 L6846 3960" /> 
<path d="M6846 3960 L6843 3966" /> 
<path d="M6843 3966 L6840 3968" /> 
<path d="M6840 3968 L6834 3971" /> 
<path d="M6834 3971 L6829 3971" /> 
<path d="M6829 3971 L6823 3968" /> 
<path d="M6823 3968 L6820 3966" /> 
<path d="M6820 3966 L6817 3960" /> 
<path d="M6817 3960 L6814 3948" /> 
<path d="M6814 3948 L6814 3934" /> 
<path d="M6814 3934 L6817 3923" /> 
<path d="M6817 3923 L6820 3917" /> 
<path d="M6820 3917 L6823 3914" /> 
<path d="M6823 3914 L6829 3911" /> 
<path d="M6886 3911 L6891 3911" /> 
<path d="M6891 3911 L6897 3914" /> 
<path d="M6897 3914 L6900 3917" /> 
<path d="M6900 3917 L6903 3923" /> 
<path d="M6903 3923 L6906 3934" /> 
<path d="M6906 3934 L6906 3948" /> 
<path d="M6906 3948 L6903 3960" /> 
<path d="M6903 3960 L6900 3966" /> 
<path d="M6900 3966 L6897 3968" /> 
<path d="M6897 3968 L6891 3971" /> 
<path d="M6891 3971 L6886 3971" /> 
<path d="M6886 3971 L6880 3968" /> 
<path d="M6880 3968 L6877 3966" /> 
<path d="M6877 3966 L6874 3960" /> 
<path d="M6874 3960 L6871 3948" /> 
<path d="M6871 3948 L6871 3934" /> 
<path d="M6871 3934 L6874 3923" /> 
<path d="M6874 3923 L6877 3917" /> 
<path d="M6877 3917 L6880 3914" /> 
<path d="M6880 3914 L6886 3911" /> 
<path d="M6943 3911 L6948 3911" /> 
<path d="M6948 3911 L6954 3914" /> 
<path d="M6954 3914 L6957 3917" /> 
<path d="M6957 3917 L6960 3923" /> 
<path d="M6960 3923 L6963 3934" /> 
<path d="M6963 3934 L6963 3948" /> 
<path d="M6963 3948 L6960 3960" /> 
<path d="M6960 3960 L6957 3966" /> 
<path d="M6957 3966 L6954 3968" /> 
<path d="M6954 3968 L6948 3971" /> 
<path d="M6948 3971 L6943 3971" /> 
<path d="M6943 3971 L6937 3968" /> 
<path d="M6937 3968 L6934 3966" /> 
<path d="M6934 3966 L6931 3960" /> 
<path d="M6931 3960 L6928 3948" /> 
<path d="M6928 3948 L6928 3934" /> 
<path d="M6928 3934 L6931 3923" /> 
<path d="M6931 3923 L6934 3917" /> 
<path d="M6934 3917 L6937 3914" /> 
<path d="M6937 3914 L6943 3911" /> 
</g> 
</svg> 
