<?xml version="1.0" standalone="no"?>
<!DOCTYPE svg PUBLIC "-//W3C//DTD SVG 1.1//EN" 
"http://www.w3.org/Graphics/SVG/1.1/DTD/svg11.dtd"> 
<svg
  xmlns="http://www.w3.org/2000/svg"
  version="1.1"
  width="11.7in" height="8.267in" viewBox="0 0 11700 8267 "
>
  <title>SVG Picture created as led1.svg </title>
  <desc>Picture generated by wxSVG v0101 </desc>
  <g style="fill:black; stroke:black; stroke-width:1">
</g>
<g style="fill:#00A000; fill-opacity:1.0; 
  stroke:#00A000; stroke-linecap:round; stroke-linejoin:round; stroke-opacity:1.0; stroke-opacity:1.0; stroke-width:0" 
   transform="translate(0 0) scale(1 1)">
<ellipse cx="3950" cy="3550" rx="16" ry="16"  /> 
</g>
<g style="fill:#00A000; fill-opacity:1.0; 
  stroke:#00A000; stroke-linecap:round; stroke-linejoin:round; stroke-opacity:1.0; stroke-opacity:1.0; stroke-width:6" 
   transform="translate(0 0) scale(1 1)">
<path d="M3950 3300 L3950 3550" /> 
<path d="M3950 2250 L3950 2700" /> 
<path d="M5300 1700 L5300 1400" /> 
<path d="M5300 1400 L2550 1400" /> 
<path d="M5300 3300 L5300 3550" /> 
<path d="M5300 3550 L2550 3550" /> 
<path d="M3950 1650 L3950 1400" /> 
</g>
<g style="fill:#00A000; fill-opacity:1.0; 
  stroke:#00A000; stroke-linecap:round; stroke-linejoin:round; stroke-opacity:1.0; stroke-opacity:1.0; stroke-width:0" 
   transform="translate(0 0) scale(1 1)">
<ellipse cx="3950" cy="1400" rx="16" ry="16"  /> 
</g>
<g style="fill:#00A000; fill-opacity:1.0; 
  stroke:#00A000; stroke-linecap:round; stroke-linejoin:round; stroke-opacity:1.0; stroke-opacity:1.0; stroke-width:6" 
   transform="translate(0 0) scale(1 1)">
<path d="M5300 2300 L5300 2650" /> 
</g>
<g style="fill:#0000FF; fill-opacity:0.0; 
  stroke:#0000FF; stroke-linecap:round; stroke-linejoin:round; stroke-opacity:1.0; stroke-opacity:1.0; stroke-width:6" 
   transform="translate(0 0) scale(1 1)">
<path d="M2309 2891 L2360 2891" /> 
<g style = "stroke-linecap:round;" > 
<path d="M2360 2891 L2360 2891" /> 
</g><path d="M2334 2981 L2334 2891" /> 
<g style = "stroke-linecap:round;" > 
<path d="M2334 2891 L2334 2891" /> 
</g><path d="M2403 2981 L2395 2977" /> 
<path d="M2395 2977 L2390 2973" /> 
<path d="M2390 2973 L2386 2964" /> 
<path d="M2386 2964 L2386 2939" /> 
<path d="M2386 2939 L2390 2930" /> 
<path d="M2390 2930 L2395 2926" /> 
<path d="M2395 2926 L2403 2921" /> 
<path d="M2403 2921 L2416 2921" /> 
<path d="M2416 2921 L2425 2926" /> 
<path d="M2425 2926 L2429 2930" /> 
<path d="M2429 2930 L2433 2939" /> 
<path d="M2433 2939 L2433 2964" /> 
<path d="M2433 2964 L2429 2973" /> 
<path d="M2429 2973 L2425 2977" /> 
<path d="M2425 2977 L2416 2981" /> 
<path d="M2416 2981 L2403 2981" /> 
<path d="M2471 2921 L2471 2981" /> 
<g style = "stroke-linecap:round;" > 
<path d="M2471 2981 L2471 2981" /> 
</g><path d="M2480 2947 L2506 2981" /> 
<g style = "stroke-linecap:round;" > 
<path d="M2506 2981 L2506 2981" /> 
</g><path d="M2506 2921 L2471 2956" /> 
<g style = "stroke-linecap:round;" > 
<path d="M2471 2956 L2471 2956" /> 
</g><path d="M2557 2981 L2549 2977" /> 
<path d="M2549 2977 L2544 2973" /> 
<path d="M2544 2973 L2540 2964" /> 
<path d="M2540 2964 L2540 2939" /> 
<path d="M2540 2939 L2544 2930" /> 
<path d="M2544 2930 L2549 2926" /> 
<path d="M2549 2926 L2557 2921" /> 
<path d="M2557 2921 L2570 2921" /> 
<path d="M2570 2921 L2579 2926" /> 
<path d="M2579 2926 L2583 2930" /> 
<path d="M2583 2930 L2587 2939" /> 
<path d="M2587 2939 L2587 2964" /> 
<path d="M2587 2964 L2583 2973" /> 
<path d="M2583 2973 L2579 2977" /> 
<path d="M2579 2977 L2570 2981" /> 
<path d="M2570 2981 L2557 2981" /> 
<path d="M2638 2981 L2630 2977" /> 
<path d="M2630 2977 L2625 2973" /> 
<path d="M2625 2973 L2621 2964" /> 
<path d="M2621 2964 L2621 2939" /> 
<path d="M2621 2939 L2625 2930" /> 
<path d="M2625 2930 L2630 2926" /> 
<path d="M2630 2926 L2638 2921" /> 
<path d="M2638 2921 L2651 2921" /> 
<path d="M2651 2921 L2660 2926" /> 
<path d="M2660 2926 L2664 2930" /> 
<path d="M2664 2930 L2668 2939" /> 
<path d="M2668 2939 L2668 2964" /> 
<path d="M2668 2964 L2664 2973" /> 
<path d="M2664 2973 L2660 2977" /> 
<path d="M2660 2977 L2651 2981" /> 
<path d="M2651 2981 L2638 2981" /> 
<path d="M2706 2981 L2706 2921" /> 
<path d="M2706 2921 L2741 2921" /> 
<g style = "stroke-linecap:round;" > 
<path d="M2741 2921 L2741 2921" /> 
</g><path d="M2770 2921 L2770 3011" /> 
<g style = "stroke-linecap:round;" > 
<path d="M2770 3011 L2770 3011" /> 
</g><path d="M2770 2926 L2779 2921" /> 
<path d="M2779 2921 L2796 2921" /> 
<path d="M2796 2921 L2805 2926" /> 
<path d="M2805 2926 L2809 2930" /> 
<path d="M2809 2930 L2813 2939" /> 
<path d="M2813 2939 L2813 2964" /> 
<path d="M2813 2964 L2809 2973" /> 
<path d="M2809 2973 L2805 2977" /> 
<path d="M2805 2977 L2796 2981" /> 
<path d="M2796 2981 L2779 2981" /> 
<path d="M2779 2981 L2770 2977" /> 
<g style = "stroke-linecap:round;" > 
<path d="M2770 2977 L2770 2977" /> 
</g><path d="M2890 2981 L2890 2934" /> 
<path d="M2890 2934 L2886 2926" /> 
<path d="M2886 2926 L2877 2921" /> 
<path d="M2877 2921 L2860 2921" /> 
<path d="M2860 2921 L2851 2926" /> 
<g style = "stroke-linecap:round;" > 
<path d="M2851 2926 L2851 2926" /> 
</g><path d="M2890 2977 L2881 2981" /> 
<path d="M2881 2981 L2860 2981" /> 
<path d="M2860 2981 L2851 2977" /> 
<path d="M2851 2977 L2847 2969" /> 
<path d="M2847 2969 L2847 2960" /> 
<path d="M2847 2960 L2851 2951" /> 
<path d="M2851 2951 L2860 2947" /> 
<path d="M2860 2947 L2881 2947" /> 
<path d="M2881 2947 L2890 2943" /> 
<g style = "stroke-linecap:round;" > 
<path d="M2890 2943 L2890 2943" /> 
</g><path d="M2932 2951 L2971 2951" /> 
<g style = "stroke-linecap:round;" > 
<path d="M2971 2951 L2971 2951" /> 
</g><path d="M2932 2921 L2932 2981" /> 
<g style = "stroke-linecap:round;" > 
<path d="M2932 2981 L2932 2981" /> 
</g><path d="M2971 2921 L2971 2981" /> 
<g style = "stroke-linecap:round;" > 
<path d="M2971 2981 L2971 2981" /> 
</g><path d="M3013 2921 L3013 2981" /> 
<path d="M3013 2981 L3056 2921" /> 
<path d="M3056 2921 L3056 2981" /> 
<g style = "stroke-linecap:round;" > 
<path d="M3056 2981 L3056 2981" /> 
</g><path d="M3129 2921 L3129 2981" /> 
<g style = "stroke-linecap:round;" > 
<path d="M3129 2981 L3129 2981" /> 
</g><path d="M3095 2921 L3095 2943" /> 
<path d="M3095 2943 L3099 2951" /> 
<path d="M3099 2951 L3108 2956" /> 
<path d="M3108 2956 L3129 2956" /> 
<g style = "stroke-linecap:round;" > 
<path d="M3129 2956 L3129 2956" /> 
</g><path d="M3176 2921 L3176 2981" /> 
<path d="M3176 2981 L3219 2921" /> 
<path d="M3219 2921 L3219 2981" /> 
<g style = "stroke-linecap:round;" > 
<path d="M3219 2981 L3219 2981" /> 
</g><path d="M3284 2951 L3297 2956" /> 
<path d="M3297 2956 L3301 2964" /> 
<path d="M3301 2964 L3301 2969" /> 
<path d="M3301 2969 L3297 2977" /> 
<path d="M3297 2977 L3288 2981" /> 
<path d="M3288 2981 L3262 2981" /> 
<path d="M3262 2981 L3262 2921" /> 
<path d="M3262 2921 L3284 2921" /> 
<path d="M3284 2921 L3292 2926" /> 
<path d="M3292 2926 L3297 2934" /> 
<path d="M3297 2934 L3297 2939" /> 
<path d="M3297 2939 L3292 2947" /> 
<path d="M3292 2947 L3284 2951" /> 
<path d="M3284 2951 L3262 2951" /> 
<g style = "stroke-linecap:round;" > 
<path d="M3262 2951 L3262 2951" /> 
</g><path d="M3378 2981 L3378 2934" /> 
<path d="M3378 2934 L3374 2926" /> 
<path d="M3374 2926 L3365 2921" /> 
<path d="M3365 2921 L3348 2921" /> 
<path d="M3348 2921 L3339 2926" /> 
<g style = "stroke-linecap:round;" > 
<path d="M3339 2926 L3339 2926" /> 
</g><path d="M3378 2977 L3369 2981" /> 
<path d="M3369 2981 L3348 2981" /> 
<path d="M3348 2981 L3339 2977" /> 
<path d="M3339 2977 L3335 2969" /> 
<path d="M3335 2969 L3335 2960" /> 
<path d="M3335 2960 L3339 2951" /> 
<path d="M3339 2951 L3348 2947" /> 
<path d="M3348 2947 L3369 2947" /> 
<path d="M3369 2947 L3378 2943" /> 
<g style = "stroke-linecap:round;" > 
<path d="M3378 2943 L3378 2943" /> 
</g><path d="M3420 2951 L3446 2951" /> 
<g style = "stroke-linecap:round;" > 
<path d="M3446 2951 L3446 2951" /> 
</g><path d="M3420 2921 L3420 2981" /> 
<g style = "stroke-linecap:round;" > 
<path d="M3420 2981 L3420 2981" /> 
</g><path d="M3463 2981 L3455 2977" /> 
<path d="M3455 2977 L3450 2973" /> 
<path d="M3450 2973 L3446 2964" /> 
<path d="M3446 2964 L3446 2939" /> 
<path d="M3446 2939 L3450 2930" /> 
<path d="M3450 2930 L3455 2926" /> 
<path d="M3455 2926 L3463 2921" /> 
<path d="M3463 2921 L3476 2921" /> 
<path d="M3476 2921 L3485 2926" /> 
<path d="M3485 2926 L3489 2930" /> 
<path d="M3489 2930 L3493 2939" /> 
<path d="M3493 2939 L3493 2964" /> 
<path d="M3493 2964 L3489 2973" /> 
<path d="M3489 2973 L3485 2977" /> 
<path d="M3485 2977 L3476 2981" /> 
<path d="M3476 2981 L3463 2981" /> 
<path d="M3561 2921 L3561 2981" /> 
<g style = "stroke-linecap:round;" > 
<path d="M3561 2981 L3561 2981" /> 
</g><path d="M3531 2921 L3531 2981" /> 
<path d="M3531 2981 L3591 2981" /> 
<path d="M3591 2981 L3591 2921" /> 
<g style = "stroke-linecap:round;" > 
<path d="M3591 2921 L3591 2921" /> 
</g><path d="M3591 2981 L3600 2981" /> 
<path d="M3600 2981 L3600 3003" /> 
<g style = "stroke-linecap:round;" > 
<path d="M3600 3003 L3600 3003" /> 
</g><path d="M3634 2921 L3634 2981" /> 
<path d="M3634 2981 L3677 2921" /> 
<path d="M3677 2921 L3677 2981" /> 
<g style = "stroke-linecap:round;" > 
<path d="M3677 2981 L3677 2981" /> 
</g><path d="M3720 2921 L3720 2981" /> 
<path d="M3720 2981 L3763 2921" /> 
<path d="M3763 2921 L3763 2981" /> 
<g style = "stroke-linecap:round;" > 
<path d="M3763 2981 L3763 2981" /> 
</g><path d="M3725 2887 L3729 2896" /> 
<path d="M3729 2896 L3738 2900" /> 
<path d="M3738 2900 L3746 2900" /> 
<path d="M3746 2900 L3755 2896" /> 
<path d="M3755 2896 L3759 2887" /> 
<g style = "stroke-linecap:round;" > 
<path d="M3759 2887 L3759 2887" /> 
</g><path d="M2321 3053 L2321 3143" /> 
<g style = "stroke-linecap:round;" > 
<path d="M2321 3143 L2321 3143" /> 
</g><path d="M2321 3058 L2330 3053" /> 
<path d="M2330 3053 L2347 3053" /> 
<path d="M2347 3053 L2356 3058" /> 
<path d="M2356 3058 L2360 3062" /> 
<path d="M2360 3062 L2364 3071" /> 
<path d="M2364 3071 L2364 3096" /> 
<path d="M2364 3096 L2360 3105" /> 
<path d="M2360 3105 L2356 3109" /> 
<path d="M2356 3109 L2347 3113" /> 
<path d="M2347 3113 L2330 3113" /> 
<path d="M2330 3113 L2321 3109" /> 
<g style = "stroke-linecap:round;" > 
<path d="M2321 3109 L2321 3109" /> 
</g><path d="M2437 3109 L2428 3113" /> 
<path d="M2428 3113 L2411 3113" /> 
<path d="M2411 3113 L2402 3109" /> 
<path d="M2402 3109 L2398 3101" /> 
<path d="M2398 3101 L2398 3066" /> 
<path d="M2398 3066 L2402 3058" /> 
<path d="M2402 3058 L2411 3053" /> 
<path d="M2411 3053 L2428 3053" /> 
<path d="M2428 3053 L2437 3058" /> 
<path d="M2437 3058 L2441 3066" /> 
<path d="M2441 3066 L2441 3075" /> 
<path d="M2441 3075 L2398 3083" /> 
<g style = "stroke-linecap:round;" > 
<path d="M2398 3083 L2398 3083" /> 
</g><path d="M2488 3083 L2497 3083" /> 
<g style = "stroke-linecap:round;" > 
<path d="M2497 3083 L2497 3083" /> 
</g><path d="M2471 3058 L2479 3053" /> 
<path d="M2479 3053 L2497 3053" /> 
<path d="M2497 3053 L2505 3058" /> 
<path d="M2505 3058 L2509 3066" /> 
<path d="M2509 3066 L2509 3071" /> 
<path d="M2509 3071 L2505 3079" /> 
<path d="M2505 3079 L2497 3083" /> 
<path d="M2497 3083 L2505 3088" /> 
<path d="M2505 3088 L2509 3096" /> 
<path d="M2509 3096 L2509 3101" /> 
<path d="M2509 3101 L2505 3109" /> 
<path d="M2505 3109 L2497 3113" /> 
<path d="M2497 3113 L2479 3113" /> 
<path d="M2479 3113 L2471 3109" /> 
<g style = "stroke-linecap:round;" > 
<path d="M2471 3109 L2471 3109" /> 
</g><path d="M2548 3053 L2548 3113" /> 
<path d="M2548 3113 L2591 3053" /> 
<path d="M2591 3053 L2591 3113" /> 
<g style = "stroke-linecap:round;" > 
<path d="M2591 3113 L2591 3113" /> 
</g><path d="M2673 3109 L2664 3113" /> 
<path d="M2664 3113 L2647 3113" /> 
<path d="M2647 3113 L2639 3109" /> 
<path d="M2639 3109 L2634 3105" /> 
<path d="M2634 3105 L2630 3096" /> 
<path d="M2630 3096 L2630 3071" /> 
<path d="M2630 3071 L2634 3062" /> 
<path d="M2634 3062 L2639 3058" /> 
<path d="M2639 3058 L2647 3053" /> 
<path d="M2647 3053 L2664 3053" /> 
<path d="M2664 3053 L2673 3058" /> 
<g style = "stroke-linecap:round;" > 
<path d="M2673 3058 L2673 3058" /> 
</g><path d="M2699 3053 L2741 3053" /> 
<g style = "stroke-linecap:round;" > 
<path d="M2741 3053 L2741 3053" /> 
</g><path d="M2720 3053 L2720 3113" /> 
<g style = "stroke-linecap:round;" > 
<path d="M2720 3113 L2720 3113" /> 
</g><path d="M2784 3113 L2776 3109" /> 
<path d="M2776 3109 L2771 3105" /> 
<path d="M2771 3105 L2767 3096" /> 
<path d="M2767 3096 L2767 3071" /> 
<path d="M2767 3071 L2771 3062" /> 
<path d="M2771 3062 L2776 3058" /> 
<path d="M2776 3058 L2784 3053" /> 
<path d="M2784 3053 L2797 3053" /> 
<path d="M2797 3053 L2806 3058" /> 
<path d="M2806 3058 L2810 3062" /> 
<path d="M2810 3062 L2814 3071" /> 
<path d="M2814 3071 L2814 3096" /> 
<path d="M2814 3096 L2810 3105" /> 
<path d="M2810 3105 L2806 3109" /> 
<path d="M2806 3109 L2797 3113" /> 
<path d="M2797 3113 L2784 3113" /> 
<path d="M2852 3053 L2852 3143" /> 
<g style = "stroke-linecap:round;" > 
<path d="M2852 3143 L2852 3143" /> 
</g><path d="M2852 3058 L2861 3053" /> 
<path d="M2861 3053 L2878 3053" /> 
<path d="M2878 3053 L2887 3058" /> 
<path d="M2887 3058 L2891 3062" /> 
<path d="M2891 3062 L2895 3071" /> 
<path d="M2895 3071 L2895 3096" /> 
<path d="M2895 3096 L2891 3105" /> 
<path d="M2891 3105 L2887 3109" /> 
<path d="M2887 3109 L2878 3113" /> 
<path d="M2878 3113 L2861 3113" /> 
<path d="M2861 3113 L2852 3109" /> 
<g style = "stroke-linecap:round;" > 
<path d="M2852 3109 L2852 3109" /> 
</g></g>
<g style="fill:#000000; fill-opacity:0.0; 
  stroke:#A00000; stroke-linecap:round; stroke-linejoin:round; stroke-opacity:1.0; stroke-opacity:1.0; stroke-width:6" 
   transform="translate(0 0) scale(1 1)">
<polygon style="fill-rule:evenodd; " 
points="4025,2800
4025,2800
4025,3200
3875,3200
3875,2800
" /> 
<path d="M3950 2800 L3950 2700" /> 
</g>
<g style="fill:#A00000; fill-opacity:0.0; 
  stroke:#A00000; stroke-linecap:round; stroke-linejoin:round; stroke-opacity:1.0; stroke-opacity:1.0; stroke-width:6" 
   transform="translate(0 0) scale(1 1)">
<path d="M3935 2736 L3935 2764" /> 
<g style = "stroke-linecap:round;" > 
<path d="M3935 2764 L3935 2764" /> 
</g><path d="M3935 2750 L3885 2750" /> 
<path d="M3885 2750 L3892 2755" /> 
<path d="M3892 2755 L3897 2760" /> 
<path d="M3897 2760 L3900 2764" /> 
<g style = "stroke-linecap:round;" > 
<path d="M3900 2764 L3900 2764" /> 
</g><path d="M3950 3200 L3950 3300" /> 
<path d="M3890 3264 L3888 3262" /> 
<path d="M3888 3262 L3885 3257" /> 
<path d="M3885 3257 L3885 3245" /> 
<path d="M3885 3245 L3888 3241" /> 
<path d="M3888 3241 L3890 3238" /> 
<path d="M3890 3238 L3895 3236" /> 
<path d="M3895 3236 L3900 3236" /> 
<path d="M3900 3236 L3907 3238" /> 
<path d="M3907 3238 L3935 3267" /> 
<path d="M3935 3267 L3935 3236" /> 
<g style = "stroke-linecap:round;" > 
<path d="M3935 3236 L3935 3236" /> 
</g></g>
<g style="fill:#00A0A0; fill-opacity:0.0; 
  stroke:#00A0A0; stroke-linecap:round; stroke-linejoin:round; stroke-opacity:1.0; stroke-opacity:1.0; stroke-width:6" 
   transform="translate(0 0) scale(1 1)">
<path d="M4191 2921 L4171 2893" /> 
<g style = "stroke-linecap:round;" > 
<path d="M4171 2893 L4171 2893" /> 
</g><path d="M4156 2921 L4156 2861" /> 
<path d="M4156 2861 L4179 2861" /> 
<path d="M4179 2861 L4185 2864" /> 
<path d="M4185 2864 L4188 2867" /> 
<path d="M4188 2867 L4191 2873" /> 
<path d="M4191 2873 L4191 2881" /> 
<path d="M4191 2881 L4188 2887" /> 
<path d="M4188 2887 L4185 2890" /> 
<path d="M4185 2890 L4179 2893" /> 
<path d="M4179 2893 L4156 2893" /> 
<g style = "stroke-linecap:round;" > 
<path d="M4156 2893 L4156 2893" /> 
</g><path d="M4248 2921 L4213 2921" /> 
<g style = "stroke-linecap:round;" > 
<path d="M4213 2921 L4213 2921" /> 
</g><path d="M4231 2921 L4231 2861" /> 
<path d="M4231 2861 L4225 2870" /> 
<path d="M4225 2870 L4219 2876" /> 
<path d="M4219 2876 L4213 2878" /> 
<g style = "stroke-linecap:round;" > 
<path d="M4213 2878 L4213 2878" /> 
</g><path d="M4193 3071 L4158 3071" /> 
<g style = "stroke-linecap:round;" > 
<path d="M4158 3071 L4158 3071" /> 
</g><path d="M4176 3071 L4176 3011" /> 
<path d="M4176 3011 L4170 3020" /> 
<path d="M4170 3020 L4164 3026" /> 
<path d="M4164 3026 L4158 3028" /> 
<g style = "stroke-linecap:round;" > 
<path d="M4158 3028 L4158 3028" /> 
</g><path d="M4218 3071 L4218 3011" /> 
<g style = "stroke-linecap:round;" > 
<path d="M4218 3011 L4218 3011" /> 
</g><path d="M4224 3048 L4241 3071" /> 
<g style = "stroke-linecap:round;" > 
<path d="M4241 3071 L4241 3071" /> 
</g><path d="M4241 3031 L4218 3054" /> 
<g style = "stroke-linecap:round;" > 
<path d="M4218 3054 L4218 3054" /> 
</g></g>
<g style="fill:#A00000; fill-opacity:0.0; 
  stroke:#A00000; stroke-linecap:round; stroke-linejoin:round; stroke-opacity:1.0; stroke-opacity:1.0; stroke-width:6" 
   transform="translate(0 0) scale(1 1)">
<path d="M4050 2050 L3850 2050" /> 
<g style = "stroke-linecap:round;" > 
<path d="M3850 2050 L3850 2050" /> 
</g><path d="M3840 1930 L3705 2035" /> 
<path d="M3705 2035 L3745 1975" /> 
<g style = "stroke-linecap:round;" > 
<path d="M3745 1975 L3745 1975" /> 
</g><path d="M3870 1990 L3740 2090" /> 
<path d="M3740 2090 L3785 2025" /> 
<g style = "stroke-linecap:round;" > 
<path d="M3785 2025 L3785 2025" /> 
</g><path d="M4050 1850 L3850 1850" /> 
<path d="M3850 1850 L3950 2050" /> 
<path d="M3950 2050 L4050 1850" /> 
<path d="M3950 1850 L3950 1650" /> 
<path d="M3935 1736 L3935 1764" /> 
<g style = "stroke-linecap:round;" > 
<path d="M3935 1764 L3935 1764" /> 
</g><path d="M3935 1750 L3885 1750" /> 
<path d="M3885 1750 L3892 1755" /> 
<path d="M3892 1755 L3897 1760" /> 
<path d="M3897 1760 L3900 1764" /> 
<g style = "stroke-linecap:round;" > 
<path d="M3900 1764 L3900 1764" /> 
</g><path d="M3950 2050 L3950 2250" /> 
<path d="M3890 2164 L3888 2162" /> 
<path d="M3888 2162 L3885 2157" /> 
<path d="M3885 2157 L3885 2145" /> 
<path d="M3885 2145 L3888 2141" /> 
<path d="M3888 2141 L3890 2138" /> 
<path d="M3890 2138 L3895 2136" /> 
<path d="M3895 2136 L3900 2136" /> 
<path d="M3900 2136 L3907 2138" /> 
<path d="M3907 2138 L3935 2167" /> 
<path d="M3935 2167 L3935 2136" /> 
<g style = "stroke-linecap:round;" > 
<path d="M3935 2136 L3935 2136" /> 
</g></g>
<g style="fill:#00A0A0; fill-opacity:0.0; 
  stroke:#00A0A0; stroke-linecap:round; stroke-linejoin:round; stroke-opacity:1.0; stroke-opacity:1.0; stroke-width:6" 
   transform="translate(0 0) scale(1 1)">
<path d="M4130 1871 L4130 1811" /> 
<g style = "stroke-linecap:round;" > 
<path d="M4130 1811 L4130 1811" /> 
</g><path d="M4130 1840 L4165 1840" /> 
<g style = "stroke-linecap:round;" > 
<path d="M4165 1840 L4165 1840" /> 
</g><path d="M4165 1871 L4165 1811" /> 
<g style = "stroke-linecap:round;" > 
<path d="M4165 1811 L4165 1811" /> 
</g><path d="M4222 1871 L4193 1871" /> 
<path d="M4193 1871 L4193 1811" /> 
<g style = "stroke-linecap:round;" > 
<path d="M4193 1811 L4193 1811" /> 
</g><path d="M4274 1871 L4239 1871" /> 
<g style = "stroke-linecap:round;" > 
<path d="M4239 1871 L4239 1871" /> 
</g><path d="M4257 1871 L4257 1811" /> 
<path d="M4257 1811 L4251 1820" /> 
<path d="M4251 1820 L4245 1826" /> 
<path d="M4245 1826 L4239 1828" /> 
<g style = "stroke-linecap:round;" > 
<path d="M4239 1828 L4239 1828" /> 
</g><path d="M4162 2021 L4133 2021" /> 
<path d="M4133 2021 L4133 1961" /> 
<g style = "stroke-linecap:round;" > 
<path d="M4133 1961 L4133 1961" /> 
</g><path d="M4182 1990 L4202 1990" /> 
<g style = "stroke-linecap:round;" > 
<path d="M4202 1990 L4202 1990" /> 
</g><path d="M4211 2021 L4182 2021" /> 
<path d="M4182 2021 L4182 1961" /> 
<path d="M4182 1961 L4211 1961" /> 
<g style = "stroke-linecap:round;" > 
<path d="M4211 1961 L4211 1961" /> 
</g><path d="M4236 2021 L4236 1961" /> 
<path d="M4236 1961 L4251 1961" /> 
<path d="M4251 1961 L4259 1964" /> 
<path d="M4259 1964 L4265 1970" /> 
<path d="M4265 1970 L4268 1976" /> 
<path d="M4268 1976 L4271 1987" /> 
<path d="M4271 1987 L4271 1996" /> 
<path d="M4271 1996 L4268 2007" /> 
<path d="M4268 2007 L4265 2013" /> 
<path d="M4265 2013 L4259 2018" /> 
<path d="M4259 2018 L4251 2021" /> 
<path d="M4251 2021 L4236 2021" /> 
</g>
<g style="fill:#0000FF; fill-opacity:0.0; 
  stroke:#0000FF; stroke-linecap:round; stroke-linejoin:round; stroke-opacity:1.0; stroke-opacity:1.0; stroke-width:6" 
   transform="translate(0 0) scale(1 1)">
<path d="M2873 1973 L2869 1977" /> 
<path d="M2869 1977 L2856 1981" /> 
<path d="M2856 1981 L2847 1981" /> 
<path d="M2847 1981 L2834 1977" /> 
<path d="M2834 1977 L2826 1969" /> 
<path d="M2826 1969 L2821 1960" /> 
<path d="M2821 1960 L2817 1943" /> 
<path d="M2817 1943 L2817 1930" /> 
<path d="M2817 1930 L2821 1913" /> 
<path d="M2821 1913 L2826 1904" /> 
<path d="M2826 1904 L2834 1896" /> 
<path d="M2834 1896 L2847 1891" /> 
<path d="M2847 1891 L2856 1891" /> 
<path d="M2856 1891 L2869 1896" /> 
<path d="M2869 1896 L2873 1900" /> 
<g style = "stroke-linecap:round;" > 
<path d="M2873 1900 L2873 1900" /> 
</g><path d="M2933 1951 L2946 1956" /> 
<path d="M2946 1956 L2950 1964" /> 
<path d="M2950 1964 L2950 1969" /> 
<path d="M2950 1969 L2946 1977" /> 
<path d="M2946 1977 L2937 1981" /> 
<path d="M2937 1981 L2911 1981" /> 
<path d="M2911 1981 L2911 1921" /> 
<path d="M2911 1921 L2933 1921" /> 
<path d="M2933 1921 L2941 1926" /> 
<path d="M2941 1926 L2946 1934" /> 
<path d="M2946 1934 L2946 1939" /> 
<path d="M2946 1939 L2941 1947" /> 
<path d="M2941 1947 L2933 1951" /> 
<path d="M2933 1951 L2911 1951" /> 
<g style = "stroke-linecap:round;" > 
<path d="M2911 1951 L2911 1951" /> 
</g><path d="M3023 1977 L3014 1981" /> 
<path d="M3014 1981 L2997 1981" /> 
<path d="M2997 1981 L2988 1977" /> 
<path d="M2988 1977 L2984 1969" /> 
<path d="M2984 1969 L2984 1934" /> 
<path d="M2984 1934 L2988 1926" /> 
<path d="M2988 1926 L2997 1921" /> 
<path d="M2997 1921 L3014 1921" /> 
<path d="M3014 1921 L3023 1926" /> 
<path d="M3023 1926 L3027 1934" /> 
<path d="M3027 1934 L3027 1943" /> 
<path d="M3027 1943 L2984 1951" /> 
<g style = "stroke-linecap:round;" > 
<path d="M2984 1951 L2984 1951" /> 
</g><path d="M3053 1921 L3095 1921" /> 
<g style = "stroke-linecap:round;" > 
<path d="M3095 1921 L3095 1921" /> 
</g><path d="M3074 1921 L3074 1981" /> 
<g style = "stroke-linecap:round;" > 
<path d="M3074 1981 L3074 1981" /> 
</g><path d="M3138 1981 L3130 1977" /> 
<path d="M3130 1977 L3125 1973" /> 
<path d="M3125 1973 L3121 1964" /> 
<path d="M3121 1964 L3121 1939" /> 
<path d="M3121 1939 L3125 1930" /> 
<path d="M3125 1930 L3130 1926" /> 
<path d="M3130 1926 L3138 1921" /> 
<path d="M3138 1921 L3151 1921" /> 
<path d="M3151 1921 L3160 1926" /> 
<path d="M3160 1926 L3164 1930" /> 
<path d="M3164 1930 L3168 1939" /> 
<path d="M3168 1939 L3168 1964" /> 
<path d="M3168 1964 L3164 1973" /> 
<path d="M3164 1973 L3160 1977" /> 
<path d="M3160 1977 L3151 1981" /> 
<path d="M3151 1981 L3138 1981" /> 
<path d="M3249 1930 L3245 1926" /> 
<path d="M3245 1926 L3236 1921" /> 
<path d="M3236 1921 L3219 1921" /> 
<path d="M3219 1921 L3211 1926" /> 
<path d="M3211 1926 L3206 1930" /> 
<path d="M3206 1930 L3202 1939" /> 
<path d="M3202 1939 L3202 1964" /> 
<path d="M3202 1964 L3206 1973" /> 
<path d="M3206 1973 L3211 1977" /> 
<path d="M3211 1977 L3219 1981" /> 
<path d="M3219 1981 L3232 1981" /> 
<path d="M3232 1981 L3241 1977" /> 
<path d="M3241 1977 L3245 1973" /> 
<path d="M3245 1973 L3249 1964" /> 
<path d="M3249 1964 L3249 1909" /> 
<path d="M3249 1909 L3245 1900" /> 
<path d="M3245 1900 L3241 1896" /> 
<path d="M3241 1896 L3232 1891" /> 
<path d="M3232 1891 L3215 1891" /> 
<path d="M3215 1891 L3206 1896" /> 
<g style = "stroke-linecap:round;" > 
<path d="M3206 1896 L3206 1896" /> 
</g><path d="M3287 1921 L3287 1981" /> 
<path d="M3287 1981 L3330 1921" /> 
<path d="M3330 1921 L3330 1981" /> 
<g style = "stroke-linecap:round;" > 
<path d="M3330 1981 L3330 1981" /> 
</g><path d="M3386 1981 L3378 1977" /> 
<path d="M3378 1977 L3373 1973" /> 
<path d="M3373 1973 L3369 1964" /> 
<path d="M3369 1964 L3369 1939" /> 
<path d="M3369 1939 L3373 1930" /> 
<path d="M3373 1930 L3378 1926" /> 
<path d="M3378 1926 L3386 1921" /> 
<path d="M3386 1921 L3399 1921" /> 
<path d="M3399 1921 L3408 1926" /> 
<path d="M3408 1926 L3412 1930" /> 
<path d="M3412 1930 L3416 1939" /> 
<path d="M3416 1939 L3416 1964" /> 
<path d="M3416 1964 L3412 1973" /> 
<path d="M3412 1973 L3408 1977" /> 
<path d="M3408 1977 L3399 1981" /> 
<path d="M3399 1981 L3386 1981" /> 
<path d="M3497 1930 L3493 1926" /> 
<path d="M3493 1926 L3484 1921" /> 
<path d="M3484 1921 L3467 1921" /> 
<path d="M3467 1921 L3459 1926" /> 
<path d="M3459 1926 L3454 1930" /> 
<path d="M3454 1930 L3450 1939" /> 
<path d="M3450 1939 L3450 1964" /> 
<path d="M3450 1964 L3454 1973" /> 
<path d="M3454 1973 L3459 1977" /> 
<path d="M3459 1977 L3467 1981" /> 
<path d="M3467 1981 L3480 1981" /> 
<path d="M3480 1981 L3489 1977" /> 
<path d="M3489 1977 L3493 1973" /> 
<path d="M3493 1973 L3497 1964" /> 
<path d="M3497 1964 L3497 1909" /> 
<path d="M3497 1909 L3493 1900" /> 
<path d="M3493 1900 L3489 1896" /> 
<path d="M3489 1896 L3480 1891" /> 
<path d="M3480 1891 L3463 1891" /> 
<path d="M3463 1891 L3454 1896" /> 
<g style = "stroke-linecap:round;" > 
<path d="M3454 1896 L3454 1896" /> 
</g></g>
<g style="fill:#A00000; fill-opacity:0.0; 
  stroke:#A00000; stroke-linecap:round; stroke-linejoin:round; stroke-opacity:1.0; stroke-opacity:1.0; stroke-width:6" 
   transform="translate(0 0) scale(1 1)">
<path d="M5380 2800 L5380 2840" /> 
<g style = "stroke-linecap:round;" > 
<path d="M5380 2840 L5380 2840" /> 
</g><path d="M5400 2820 L5360 2820" /> 
<g style = "stroke-linecap:round;" > 
<path d="M5360 2820 L5360 2820" /> 
</g><path d="M5400 2850 L5200 2850" /> 
<g style = "stroke-linecap:round;" > 
<path d="M5200 2850 L5200 2850" /> 
</g><path d="M5300 2900 L5300 2950" /> 
<g style = "stroke-linecap:round;" > 
<path d="M5300 2950 L5300 2950" /> 
</g><path d="M5350 2900 L5250 2900" /> 
<g style = "stroke-linecap:round;" > 
<path d="M5250 2900 L5250 2900" /> 
</g><path d="M5300 3000 L5300 3050" /> 
<g style = "stroke-linecap:round;" > 
<path d="M5300 3050 L5300 3050" /> 
</g><path d="M5300 3100 L5300 3150" /> 
<g style = "stroke-linecap:round;" > 
<path d="M5300 3150 L5300 3150" /> 
</g><path d="M5400 3150 L5200 3150" /> 
<g style = "stroke-linecap:round;" > 
<path d="M5200 3150 L5200 3150" /> 
</g><path d="M5350 3200 L5250 3200" /> 
<g style = "stroke-linecap:round;" > 
<path d="M5250 3200 L5250 3200" /> 
</g><path d="M5300 2850 L5300 2650" /> 
<path d="M5285 2736 L5285 2764" /> 
<g style = "stroke-linecap:round;" > 
<path d="M5285 2764 L5285 2764" /> 
</g><path d="M5285 2750 L5235 2750" /> 
<path d="M5235 2750 L5242 2755" /> 
<path d="M5242 2755 L5247 2760" /> 
<path d="M5247 2760 L5250 2764" /> 
<g style = "stroke-linecap:round;" > 
<path d="M5250 2764 L5250 2764" /> 
</g><path d="M5300 3200 L5300 3300" /> 
<path d="M5240 3264 L5238 3262" /> 
<path d="M5238 3262 L5235 3257" /> 
<path d="M5235 3257 L5235 3245" /> 
<path d="M5235 3245 L5238 3241" /> 
<path d="M5238 3241 L5240 3238" /> 
<path d="M5240 3238 L5245 3236" /> 
<path d="M5245 3236 L5250 3236" /> 
<path d="M5250 3236 L5257 3238" /> 
<path d="M5257 3238 L5285 3267" /> 
<path d="M5285 3267 L5285 3236" /> 
<g style = "stroke-linecap:round;" > 
<path d="M5285 3236 L5285 3236" /> 
</g></g>
<g style="fill:#00A0A0; fill-opacity:0.0; 
  stroke:#00A0A0; stroke-linecap:round; stroke-linejoin:round; stroke-opacity:1.0; stroke-opacity:1.0; stroke-width:6" 
   transform="translate(0 0) scale(1 1)">
<path d="M5508 2864 L5502 2861" /> 
<path d="M5502 2861 L5493 2861" /> 
<path d="M5493 2861 L5485 2864" /> 
<path d="M5485 2864 L5479 2870" /> 
<path d="M5479 2870 L5476 2876" /> 
<path d="M5476 2876 L5473 2887" /> 
<path d="M5473 2887 L5473 2896" /> 
<path d="M5473 2896 L5476 2907" /> 
<path d="M5476 2907 L5479 2913" /> 
<path d="M5479 2913 L5485 2918" /> 
<path d="M5485 2918 L5493 2921" /> 
<path d="M5493 2921 L5499 2921" /> 
<path d="M5499 2921 L5508 2918" /> 
<path d="M5508 2918 L5511 2916" /> 
<path d="M5511 2916 L5511 2896" /> 
<path d="M5511 2896 L5499 2896" /> 
<g style = "stroke-linecap:round;" > 
<path d="M5499 2896 L5499 2896" /> 
</g><path d="M5556 2890 L5565 2893" /> 
<path d="M5565 2893 L5568 2896" /> 
<path d="M5568 2896 L5571 2901" /> 
<path d="M5571 2901 L5571 2910" /> 
<path d="M5571 2910 L5568 2916" /> 
<path d="M5568 2916 L5565 2918" /> 
<path d="M5565 2918 L5559 2921" /> 
<path d="M5559 2921 L5536 2921" /> 
<path d="M5536 2921 L5536 2861" /> 
<path d="M5536 2861 L5556 2861" /> 
<path d="M5556 2861 L5562 2864" /> 
<path d="M5562 2864 L5565 2867" /> 
<path d="M5565 2867 L5568 2873" /> 
<path d="M5568 2873 L5568 2878" /> 
<path d="M5568 2878 L5565 2884" /> 
<path d="M5565 2884 L5562 2887" /> 
<path d="M5562 2887 L5556 2890" /> 
<path d="M5556 2890 L5536 2890" /> 
<g style = "stroke-linecap:round;" > 
<path d="M5536 2890 L5536 2890" /> 
</g><path d="M5628 2921 L5593 2921" /> 
<g style = "stroke-linecap:round;" > 
<path d="M5593 2921 L5593 2921" /> 
</g><path d="M5611 2921 L5611 2861" /> 
<path d="M5611 2861 L5605 2870" /> 
<path d="M5605 2870 L5599 2876" /> 
<path d="M5599 2876 L5593 2878" /> 
<g style = "stroke-linecap:round;" > 
<path d="M5593 2878 L5593 2878" /> 
</g><path d="M5513 3071 L5525 3071" /> 
<path d="M5525 3071 L5530 3068" /> 
<path d="M5530 3068 L5533 3066" /> 
<path d="M5533 3066 L5539 3057" /> 
<path d="M5539 3057 L5542 3046" /> 
<path d="M5542 3046 L5542 3023" /> 
<path d="M5542 3023 L5539 3017" /> 
<path d="M5539 3017 L5536 3014" /> 
<path d="M5536 3014 L5530 3011" /> 
<path d="M5530 3011 L5519 3011" /> 
<path d="M5519 3011 L5513 3014" /> 
<path d="M5513 3014 L5510 3017" /> 
<path d="M5510 3017 L5507 3023" /> 
<path d="M5507 3023 L5507 3037" /> 
<path d="M5507 3037 L5510 3043" /> 
<path d="M5510 3043 L5513 3046" /> 
<path d="M5513 3046 L5519 3048" /> 
<path d="M5519 3048 L5530 3048" /> 
<path d="M5530 3048 L5536 3046" /> 
<path d="M5536 3046 L5539 3043" /> 
<path d="M5539 3043 L5542 3037" /> 
<g style = "stroke-linecap:round;" > 
<path d="M5542 3037 L5542 3037" /> 
</g><path d="M5559 3011 L5579 3071" /> 
<path d="M5579 3071 L5599 3011" /> 
<g style = "stroke-linecap:round;" > 
<path d="M5599 3011 L5599 3011" /> 
</g></g>
<g style="fill:#0000FF; fill-opacity:0.0; 
  stroke:#0000FF; stroke-linecap:round; stroke-linejoin:round; stroke-opacity:1.0; stroke-opacity:1.0; stroke-width:6" 
   transform="translate(0 0) scale(1 1)">
<path d="M4564 2841 L4521 2841" /> 
<path d="M4521 2841 L4521 2931" /> 
<path d="M4521 2931 L4547 2931" /> 
<path d="M4547 2931 L4560 2927" /> 
<path d="M4560 2927 L4569 2919" /> 
<path d="M4569 2919 L4573 2910" /> 
<path d="M4573 2910 L4573 2897" /> 
<path d="M4573 2897 L4569 2889" /> 
<path d="M4569 2889 L4560 2880" /> 
<path d="M4560 2880 L4547 2876" /> 
<path d="M4547 2876 L4521 2876" /> 
<g style = "stroke-linecap:round;" > 
<path d="M4521 2876 L4521 2876" /> 
</g><path d="M4650 2931 L4650 2884" /> 
<path d="M4650 2884 L4646 2876" /> 
<path d="M4646 2876 L4637 2871" /> 
<path d="M4637 2871 L4620 2871" /> 
<path d="M4620 2871 L4611 2876" /> 
<g style = "stroke-linecap:round;" > 
<path d="M4611 2876 L4611 2876" /> 
</g><path d="M4650 2927 L4641 2931" /> 
<path d="M4641 2931 L4620 2931" /> 
<path d="M4620 2931 L4611 2927" /> 
<path d="M4611 2927 L4607 2919" /> 
<path d="M4607 2919 L4607 2910" /> 
<path d="M4607 2910 L4611 2901" /> 
<path d="M4611 2901 L4620 2897" /> 
<path d="M4620 2897 L4641 2897" /> 
<path d="M4641 2897 L4650 2893" /> 
<g style = "stroke-linecap:round;" > 
<path d="M4650 2893 L4650 2893" /> 
</g><path d="M4680 2871 L4722 2871" /> 
<g style = "stroke-linecap:round;" > 
<path d="M4722 2871 L4722 2871" /> 
</g><path d="M4701 2871 L4701 2931" /> 
<g style = "stroke-linecap:round;" > 
<path d="M4701 2931 L4701 2931" /> 
</g><path d="M4791 2931 L4791 2884" /> 
<path d="M4791 2884 L4787 2876" /> 
<path d="M4787 2876 L4778 2871" /> 
<path d="M4778 2871 L4761 2871" /> 
<path d="M4761 2871 L4752 2876" /> 
<g style = "stroke-linecap:round;" > 
<path d="M4752 2876 L4752 2876" /> 
</g><path d="M4791 2927 L4782 2931" /> 
<path d="M4782 2931 L4761 2931" /> 
<path d="M4761 2931 L4752 2927" /> 
<path d="M4752 2927 L4748 2919" /> 
<path d="M4748 2919 L4748 2910" /> 
<path d="M4748 2910 L4752 2901" /> 
<path d="M4752 2901 L4761 2897" /> 
<path d="M4761 2897 L4782 2897" /> 
<path d="M4782 2897 L4791 2893" /> 
<g style = "stroke-linecap:round;" > 
<path d="M4791 2893 L4791 2893" /> 
</g><path d="M4833 2871 L4833 2961" /> 
<g style = "stroke-linecap:round;" > 
<path d="M4833 2961 L4833 2961" /> 
</g><path d="M4833 2876 L4842 2871" /> 
<path d="M4842 2871 L4859 2871" /> 
<path d="M4859 2871 L4868 2876" /> 
<path d="M4868 2876 L4872 2880" /> 
<path d="M4872 2880 L4876 2889" /> 
<path d="M4876 2889 L4876 2914" /> 
<path d="M4876 2914 L4872 2923" /> 
<path d="M4872 2923 L4868 2927" /> 
<path d="M4868 2927 L4859 2931" /> 
<path d="M4859 2931 L4842 2931" /> 
<path d="M4842 2931 L4833 2927" /> 
<g style = "stroke-linecap:round;" > 
<path d="M4833 2927 L4833 2927" /> 
</g><path d="M4949 2927 L4940 2931" /> 
<path d="M4940 2931 L4923 2931" /> 
<path d="M4923 2931 L4914 2927" /> 
<path d="M4914 2927 L4910 2919" /> 
<path d="M4910 2919 L4910 2884" /> 
<path d="M4910 2884 L4914 2876" /> 
<path d="M4914 2876 L4923 2871" /> 
<path d="M4923 2871 L4940 2871" /> 
<path d="M4940 2871 L4949 2876" /> 
<path d="M4949 2876 L4953 2884" /> 
<path d="M4953 2884 L4953 2893" /> 
<path d="M4953 2893 L4910 2901" /> 
<g style = "stroke-linecap:round;" > 
<path d="M4910 2901 L4910 2901" /> 
</g><path d="M5009 2906 L4987 2931" /> 
<g style = "stroke-linecap:round;" > 
<path d="M4987 2931 L4987 2931" /> 
</g><path d="M5026 2931 L5026 2871" /> 
<path d="M5026 2871 L5000 2871" /> 
<path d="M5000 2871 L4991 2876" /> 
<path d="M4991 2876 L4987 2884" /> 
<path d="M4987 2884 L4987 2893" /> 
<path d="M4987 2893 L4991 2901" /> 
<path d="M4991 2901 L5000 2906" /> 
<path d="M5000 2906 L5026 2906" /> 
<g style = "stroke-linecap:round;" > 
<path d="M5026 2906 L5026 2906" /> 
</g><path d="M4526 3063 L4543 3063" /> 
<path d="M4543 3063 L4551 3059" /> 
<path d="M4551 3059 L4556 3055" /> 
<path d="M4556 3055 L4564 3042" /> 
<path d="M4564 3042 L4569 3025" /> 
<path d="M4569 3025 L4569 2991" /> 
<path d="M4569 2991 L4564 2982" /> 
<path d="M4564 2982 L4560 2978" /> 
<path d="M4560 2978 L4551 2973" /> 
<path d="M4551 2973 L4534 2973" /> 
<path d="M4534 2973 L4526 2978" /> 
<path d="M4526 2978 L4521 2982" /> 
<path d="M4521 2982 L4517 2991" /> 
<path d="M4517 2991 L4517 3012" /> 
<path d="M4517 3012 L4521 3021" /> 
<path d="M4521 3021 L4526 3025" /> 
<path d="M4526 3025 L4534 3029" /> 
<path d="M4534 3029 L4551 3029" /> 
<path d="M4551 3029 L4560 3025" /> 
<path d="M4560 3025 L4564 3021" /> 
<path d="M4564 3021 L4569 3012" /> 
<g style = "stroke-linecap:round;" > 
<path d="M4569 3012 L4569 3012" /> 
</g><path d="M4698 3033 L4711 3038" /> 
<path d="M4711 3038 L4715 3046" /> 
<path d="M4715 3046 L4715 3051" /> 
<path d="M4715 3051 L4711 3059" /> 
<path d="M4711 3059 L4702 3063" /> 
<path d="M4702 3063 L4676 3063" /> 
<path d="M4676 3063 L4676 3003" /> 
<path d="M4676 3003 L4698 3003" /> 
<path d="M4698 3003 L4706 3008" /> 
<path d="M4706 3008 L4711 3016" /> 
<path d="M4711 3016 L4711 3021" /> 
<path d="M4711 3021 L4706 3029" /> 
<path d="M4706 3029 L4698 3033" /> 
<path d="M4698 3033 L4676 3033" /> 
<g style = "stroke-linecap:round;" > 
<path d="M4676 3033 L4676 3033" /> 
</g><path d="M4766 3063 L4758 3059" /> 
<path d="M4758 3059 L4753 3055" /> 
<path d="M4753 3055 L4749 3046" /> 
<path d="M4749 3046 L4749 3021" /> 
<path d="M4749 3021 L4753 3012" /> 
<path d="M4753 3012 L4758 3008" /> 
<path d="M4758 3008 L4766 3003" /> 
<path d="M4766 3003 L4779 3003" /> 
<path d="M4779 3003 L4788 3008" /> 
<path d="M4788 3008 L4792 3012" /> 
<path d="M4792 3012 L4796 3021" /> 
<path d="M4796 3021 L4796 3046" /> 
<path d="M4796 3046 L4792 3055" /> 
<path d="M4792 3055 L4788 3059" /> 
<path d="M4788 3059 L4779 3063" /> 
<path d="M4779 3063 L4766 3063" /> 
<path d="M4869 3063 L4869 3003" /> 
<path d="M4869 3003 L4856 3003" /> 
<path d="M4856 3003 L4847 3008" /> 
<path d="M4847 3008 L4843 3016" /> 
<path d="M4843 3016 L4839 3051" /> 
<path d="M4839 3051 L4834 3059" /> 
<path d="M4834 3059 L4826 3063" /> 
<g style = "stroke-linecap:round;" > 
<path d="M4826 3063 L4826 3063" /> 
</g><path d="M4911 3003 L4911 3063" /> 
<path d="M4911 3063 L4933 3063" /> 
<path d="M4933 3063 L4941 3059" /> 
<path d="M4941 3059 L4946 3051" /> 
<path d="M4946 3051 L4946 3038" /> 
<path d="M4946 3038 L4941 3029" /> 
<path d="M4941 3029 L4933 3025" /> 
<path d="M4933 3025 L4911 3025" /> 
<g style = "stroke-linecap:round;" > 
<path d="M4911 3025 L4911 3025" /> 
</g><path d="M4972 3003 L5014 3003" /> 
<g style = "stroke-linecap:round;" > 
<path d="M5014 3003 L5014 3003" /> 
</g><path d="M4993 3003 L4993 3063" /> 
<g style = "stroke-linecap:round;" > 
<path d="M4993 3063 L4993 3063" /> 
</g></g>
<g style="fill:#A00000; fill-opacity:0.0; 
  stroke:#A00000; stroke-linecap:round; stroke-linejoin:round; stroke-opacity:1.0; stroke-opacity:1.0; stroke-width:6" 
   transform="translate(0 0) scale(1 1)">
<path d="M5300 2100 L5200 1900" /> 
<g style = "stroke-linecap:round;" > 
<path d="M5200 1900 L5200 1900" /> 
</g><path d="M5300 2100 L5300 2300" /> 
<path d="M5285 2186 L5285 2214" /> 
<g style = "stroke-linecap:round;" > 
<path d="M5285 2214 L5285 2214" /> 
</g><path d="M5285 2200 L5235 2200" /> 
<path d="M5235 2200 L5242 2205" /> 
<path d="M5242 2205 L5247 2210" /> 
<path d="M5247 2210 L5250 2214" /> 
<g style = "stroke-linecap:round;" > 
<path d="M5250 2214 L5250 2214" /> 
</g><path d="M5300 1900 L5300 1700" /> 
<path d="M5240 1814 L5238 1812" /> 
<path d="M5238 1812 L5235 1807" /> 
<path d="M5235 1807 L5235 1795" /> 
<path d="M5235 1795 L5238 1791" /> 
<path d="M5238 1791 L5240 1788" /> 
<path d="M5240 1788 L5245 1786" /> 
<path d="M5245 1786 L5250 1786" /> 
<path d="M5250 1786 L5257 1788" /> 
<path d="M5257 1788 L5285 1817" /> 
<path d="M5285 1817 L5285 1786" /> 
<g style = "stroke-linecap:round;" > 
<path d="M5285 1786 L5285 1786" /> 
</g></g>
<g style="fill:#00A0A0; fill-opacity:0.0; 
  stroke:#00A0A0; stroke-linecap:round; stroke-linejoin:round; stroke-opacity:1.0; stroke-opacity:1.0; stroke-width:6" 
   transform="translate(0 0) scale(1 1)">
<path d="M5428 1924 L5437 1927" /> 
<path d="M5437 1927 L5451 1927" /> 
<path d="M5451 1927 L5457 1924" /> 
<path d="M5457 1924 L5460 1922" /> 
<path d="M5460 1922 L5463 1916" /> 
<path d="M5463 1916 L5463 1910" /> 
<path d="M5463 1910 L5460 1904" /> 
<path d="M5460 1904 L5457 1902" /> 
<path d="M5457 1902 L5451 1899" /> 
<path d="M5451 1899 L5440 1896" /> 
<path d="M5440 1896 L5434 1893" /> 
<path d="M5434 1893 L5431 1890" /> 
<path d="M5431 1890 L5428 1884" /> 
<path d="M5428 1884 L5428 1879" /> 
<path d="M5428 1879 L5431 1873" /> 
<path d="M5431 1873 L5434 1870" /> 
<path d="M5434 1870 L5440 1867" /> 
<path d="M5440 1867 L5454 1867" /> 
<path d="M5454 1867 L5463 1870" /> 
<g style = "stroke-linecap:round;" > 
<path d="M5463 1870 L5463 1870" /> 
</g><path d="M5485 1910 L5514 1910" /> 
<g style = "stroke-linecap:round;" > 
<path d="M5514 1910 L5514 1910" /> 
</g><path d="M5480 1927 L5500 1867" /> 
<path d="M5500 1867 L5520 1927" /> 
<g style = "stroke-linecap:round;" > 
<path d="M5520 1927 L5520 1927" /> 
</g><path d="M5571 1927 L5536 1927" /> 
<g style = "stroke-linecap:round;" > 
<path d="M5536 1927 L5536 1927" /> 
</g><path d="M5554 1927 L5554 1867" /> 
<path d="M5554 1867 L5548 1876" /> 
<path d="M5548 1876 L5542 1882" /> 
<path d="M5542 1882 L5536 1884" /> 
<g style = "stroke-linecap:round;" > 
<path d="M5536 1884 L5536 1884" /> 
</g><path d="M5457 2124 L5466 2127" /> 
<path d="M5466 2127 L5480 2127" /> 
<path d="M5480 2127 L5486 2124" /> 
<path d="M5486 2124 L5489 2122" /> 
<path d="M5489 2122 L5492 2116" /> 
<path d="M5492 2116 L5492 2110" /> 
<path d="M5492 2110 L5489 2104" /> 
<path d="M5489 2104 L5486 2102" /> 
<path d="M5486 2102 L5480 2099" /> 
<path d="M5480 2099 L5469 2096" /> 
<path d="M5469 2096 L5463 2093" /> 
<path d="M5463 2093 L5460 2090" /> 
<path d="M5460 2090 L5457 2084" /> 
<path d="M5457 2084 L5457 2079" /> 
<path d="M5457 2079 L5460 2073" /> 
<path d="M5460 2073 L5463 2070" /> 
<path d="M5463 2070 L5469 2067" /> 
<path d="M5469 2067 L5483 2067" /> 
<path d="M5483 2067 L5492 2070" /> 
<g style = "stroke-linecap:round;" > 
<path d="M5492 2070 L5492 2070" /> 
</g><path d="M5514 2110 L5543 2110" /> 
<g style = "stroke-linecap:round;" > 
<path d="M5543 2110 L5543 2110" /> 
</g><path d="M5509 2127 L5529 2067" /> 
<path d="M5529 2067 L5549 2127" /> 
<g style = "stroke-linecap:round;" > 
<path d="M5549 2127 L5549 2127" /> 
</g></g>
<g style="fill:#0000FF; fill-opacity:0.0; 
  stroke:#0000FF; stroke-linecap:round; stroke-linejoin:round; stroke-opacity:1.0; stroke-opacity:1.0; stroke-width:6" 
   transform="translate(0 0) scale(1 1)">
<path d="M4301 2184 L4314 2189" /> 
<path d="M4314 2189 L4319 2193" /> 
<path d="M4319 2193 L4323 2201" /> 
<path d="M4323 2201 L4323 2214" /> 
<path d="M4323 2214 L4319 2223" /> 
<path d="M4319 2223 L4314 2227" /> 
<path d="M4314 2227 L4306 2231" /> 
<path d="M4306 2231 L4271 2231" /> 
<path d="M4271 2231 L4271 2141" /> 
<path d="M4271 2141 L4301 2141" /> 
<path d="M4301 2141 L4310 2146" /> 
<path d="M4310 2146 L4314 2150" /> 
<path d="M4314 2150 L4319 2159" /> 
<path d="M4319 2159 L4319 2167" /> 
<path d="M4319 2167 L4314 2176" /> 
<path d="M4314 2176 L4310 2180" /> 
<path d="M4310 2180 L4301 2184" /> 
<path d="M4301 2184 L4271 2184" /> 
<g style = "stroke-linecap:round;" > 
<path d="M4271 2184 L4271 2184" /> 
</g><path d="M4421 2171 L4421 2231" /> 
<g style = "stroke-linecap:round;" > 
<path d="M4421 2231 L4421 2231" /> 
</g><path d="M4361 2171 L4361 2231" /> 
<path d="M4361 2231 L4383 2231" /> 
<path d="M4383 2231 L4391 2227" /> 
<path d="M4391 2227 L4396 2219" /> 
<path d="M4396 2219 L4396 2206" /> 
<path d="M4396 2206 L4391 2197" /> 
<path d="M4391 2197 L4383 2193" /> 
<path d="M4383 2193 L4361 2193" /> 
<g style = "stroke-linecap:round;" > 
<path d="M4361 2193 L4361 2193" /> 
</g><path d="M4464 2171 L4464 2231" /> 
<g style = "stroke-linecap:round;" > 
<path d="M4464 2231 L4464 2231" /> 
</g><path d="M4473 2197 L4499 2231" /> 
<g style = "stroke-linecap:round;" > 
<path d="M4499 2231 L4499 2231" /> 
</g><path d="M4499 2171 L4464 2206" /> 
<g style = "stroke-linecap:round;" > 
<path d="M4464 2206 L4464 2206" /> 
</g><path d="M4572 2231 L4572 2171" /> 
<path d="M4572 2171 L4559 2171" /> 
<path d="M4559 2171 L4550 2176" /> 
<path d="M4550 2176 L4546 2184" /> 
<path d="M4546 2184 L4542 2219" /> 
<path d="M4542 2219 L4537 2227" /> 
<path d="M4537 2227 L4529 2231" /> 
<g style = "stroke-linecap:round;" > 
<path d="M4529 2231 L4529 2231" /> 
</g><path d="M4614 2201 L4640 2201" /> 
<g style = "stroke-linecap:round;" > 
<path d="M4640 2201 L4640 2201" /> 
</g><path d="M4614 2171 L4614 2231" /> 
<g style = "stroke-linecap:round;" > 
<path d="M4614 2231 L4614 2231" /> 
</g><path d="M4657 2231 L4649 2227" /> 
<path d="M4649 2227 L4644 2223" /> 
<path d="M4644 2223 L4640 2214" /> 
<path d="M4640 2214 L4640 2189" /> 
<path d="M4640 2189 L4644 2180" /> 
<path d="M4644 2180 L4649 2176" /> 
<path d="M4649 2176 L4657 2171" /> 
<path d="M4657 2171 L4670 2171" /> 
<path d="M4670 2171 L4679 2176" /> 
<path d="M4679 2176 L4683 2180" /> 
<path d="M4683 2180 L4687 2189" /> 
<path d="M4687 2189 L4687 2214" /> 
<path d="M4687 2214 L4683 2223" /> 
<path d="M4683 2223 L4679 2227" /> 
<path d="M4679 2227 L4670 2231" /> 
<path d="M4670 2231 L4657 2231" /> 
<path d="M4755 2171 L4755 2231" /> 
<g style = "stroke-linecap:round;" > 
<path d="M4755 2231 L4755 2231" /> 
</g><path d="M4721 2171 L4721 2193" /> 
<path d="M4721 2193 L4725 2201" /> 
<path d="M4725 2201 L4734 2206" /> 
<path d="M4734 2206 L4755 2206" /> 
<g style = "stroke-linecap:round;" > 
<path d="M4755 2206 L4755 2206" /> 
</g><path d="M4841 2231 L4841 2184" /> 
<path d="M4841 2184 L4837 2176" /> 
<path d="M4837 2176 L4828 2171" /> 
<path d="M4828 2171 L4811 2171" /> 
<path d="M4811 2171 L4802 2176" /> 
<g style = "stroke-linecap:round;" > 
<path d="M4802 2176 L4802 2176" /> 
</g><path d="M4841 2227 L4832 2231" /> 
<path d="M4832 2231 L4811 2231" /> 
<path d="M4811 2231 L4802 2227" /> 
<path d="M4802 2227 L4798 2219" /> 
<path d="M4798 2219 L4798 2210" /> 
<path d="M4798 2210 L4802 2201" /> 
<path d="M4802 2201 L4811 2197" /> 
<path d="M4811 2197 L4832 2197" /> 
<path d="M4832 2197 L4841 2193" /> 
<g style = "stroke-linecap:round;" > 
<path d="M4841 2193 L4841 2193" /> 
</g><path d="M4871 2171 L4913 2171" /> 
<g style = "stroke-linecap:round;" > 
<path d="M4913 2171 L4913 2171" /> 
</g><path d="M4892 2171 L4892 2231" /> 
<g style = "stroke-linecap:round;" > 
<path d="M4892 2231 L4892 2231" /> 
</g><path d="M4978 2227 L4969 2231" /> 
<path d="M4969 2231 L4952 2231" /> 
<path d="M4952 2231 L4943 2227" /> 
<path d="M4943 2227 L4939 2219" /> 
<path d="M4939 2219 L4939 2184" /> 
<path d="M4939 2184 L4943 2176" /> 
<path d="M4943 2176 L4952 2171" /> 
<path d="M4952 2171 L4969 2171" /> 
<path d="M4969 2171 L4978 2176" /> 
<path d="M4978 2176 L4982 2184" /> 
<path d="M4982 2184 L4982 2193" /> 
<path d="M4982 2193 L4939 2201" /> 
<g style = "stroke-linecap:round;" > 
<path d="M4939 2201 L4939 2201" /> 
</g><path d="M5055 2231 L5055 2171" /> 
<path d="M5055 2171 L5042 2171" /> 
<path d="M5042 2171 L5033 2176" /> 
<path d="M5033 2176 L5029 2184" /> 
<path d="M5029 2184 L5025 2219" /> 
<path d="M5025 2219 L5020 2227" /> 
<path d="M5020 2227 L5012 2231" /> 
<g style = "stroke-linecap:round;" > 
<path d="M5012 2231 L5012 2231" /> 
</g><path d="M5097 2171 L5097 2231" /> 
<path d="M5097 2231 L5119 2231" /> 
<path d="M5119 2231 L5127 2227" /> 
<path d="M5127 2227 L5132 2219" /> 
<path d="M5132 2219 L5132 2206" /> 
<path d="M5132 2206 L5127 2197" /> 
<path d="M5127 2197 L5119 2193" /> 
<path d="M5119 2193 L5097 2193" /> 
<g style = "stroke-linecap:round;" > 
<path d="M5097 2193 L5097 2193" /> 
</g></g> 
</svg> 
