<?xml version="1.0" standalone="no"?>
<!DOCTYPE svg PUBLIC "-//W3C//DTD SVG 1.1//EN" 
"http://www.w3.org/Graphics/SVG/1.1/DTD/svg11.dtd"> 
<svg
  xmlns="http://www.w3.org/2000/svg"
  version="1.1"
  width="11.7in" height="8.267in" viewBox="0 0 11700 8267 "
>
  <title>SVG Picture created as led2.svg </title>
  <desc>Picture generated by wxSVG v0101 </desc>
  <g style="fill:black; stroke:black; stroke-width:1">
</g>
<g style="fill:#000000; fill-opacity:0.0; 
  stroke:#00A000; stroke-linecap:round; stroke-linejoin:round; stroke-opacity:1.0; stroke-opacity:1.0; stroke-width:6" 
   transform="translate(0 0) scale(1 1)">
<path d="M5300 3300 L5300 3750" /> 
<path d="M5300 3750 L3950 3750" /> 
<path d="M3950 3750 L3950 3650" /> 
<path d="M3950 2950 L3950 3050" /> 
<path d="M3950 2350 L3950 2250" /> 
<path d="M3950 1650 L3950 1600" /> 
<path d="M3950 1600 L5300 1600" /> 
<path d="M5300 1600 L5300 2650" /> 
</g>
<g style="fill:#000000; fill-opacity:0.0; 
  stroke:#A00000; stroke-linecap:round; stroke-linejoin:round; stroke-opacity:1.0; stroke-opacity:1.0; stroke-width:6" 
   transform="translate(0 0) scale(1 1)">
<polygon style="fill-rule:evenodd; " 
points="4025,2450
4025,2450
4025,2850
3875,2850
3875,2450
" /> 
<path d="M3950 2450 L3950 2350" /> 
</g>
<g style="fill:#A00000; fill-opacity:0.0; 
  stroke:#A00000; stroke-linecap:round; stroke-linejoin:round; stroke-opacity:1.0; stroke-opacity:1.0; stroke-width:6" 
   transform="translate(0 0) scale(1 1)">
<path d="M3935 2386 L3935 2414" /> 
<g style = "stroke-linecap:round;" > 
<path d="M3935 2414 L3935 2414" /> 
</g><path d="M3935 2400 L3885 2400" /> 
<path d="M3885 2400 L3892 2405" /> 
<path d="M3892 2405 L3897 2410" /> 
<path d="M3897 2410 L3900 2414" /> 
<g style = "stroke-linecap:round;" > 
<path d="M3900 2414 L3900 2414" /> 
</g><path d="M3950 2850 L3950 2950" /> 
<path d="M3890 2914 L3888 2912" /> 
<path d="M3888 2912 L3885 2907" /> 
<path d="M3885 2907 L3885 2895" /> 
<path d="M3885 2895 L3888 2891" /> 
<path d="M3888 2891 L3890 2888" /> 
<path d="M3890 2888 L3895 2886" /> 
<path d="M3895 2886 L3900 2886" /> 
<path d="M3900 2886 L3907 2888" /> 
<path d="M3907 2888 L3935 2917" /> 
<path d="M3935 2917 L3935 2886" /> 
<g style = "stroke-linecap:round;" > 
<path d="M3935 2886 L3935 2886" /> 
</g></g>
<g style="fill:#00A0A0; fill-opacity:0.0; 
  stroke:#00A0A0; stroke-linecap:round; stroke-linejoin:round; stroke-opacity:1.0; stroke-opacity:1.0; stroke-width:6" 
   transform="translate(0 0) scale(1 1)">
<path d="M4191 2571 L4171 2543" /> 
<g style = "stroke-linecap:round;" > 
<path d="M4171 2543 L4171 2543" /> 
</g><path d="M4156 2571 L4156 2511" /> 
<path d="M4156 2511 L4179 2511" /> 
<path d="M4179 2511 L4185 2514" /> 
<path d="M4185 2514 L4188 2517" /> 
<path d="M4188 2517 L4191 2523" /> 
<path d="M4191 2523 L4191 2531" /> 
<path d="M4191 2531 L4188 2537" /> 
<path d="M4188 2537 L4185 2540" /> 
<path d="M4185 2540 L4179 2543" /> 
<path d="M4179 2543 L4156 2543" /> 
<g style = "stroke-linecap:round;" > 
<path d="M4156 2543 L4156 2543" /> 
</g><path d="M4248 2571 L4213 2571" /> 
<g style = "stroke-linecap:round;" > 
<path d="M4213 2571 L4213 2571" /> 
</g><path d="M4231 2571 L4231 2511" /> 
<path d="M4231 2511 L4225 2520" /> 
<path d="M4225 2520 L4219 2526" /> 
<path d="M4219 2526 L4213 2528" /> 
<g style = "stroke-linecap:round;" > 
<path d="M4213 2528 L4213 2528" /> 
</g><path d="M4193 2721 L4158 2721" /> 
<g style = "stroke-linecap:round;" > 
<path d="M4158 2721 L4158 2721" /> 
</g><path d="M4176 2721 L4176 2661" /> 
<path d="M4176 2661 L4170 2670" /> 
<path d="M4170 2670 L4164 2676" /> 
<path d="M4164 2676 L4158 2678" /> 
<g style = "stroke-linecap:round;" > 
<path d="M4158 2678 L4158 2678" /> 
</g><path d="M4218 2721 L4218 2661" /> 
<g style = "stroke-linecap:round;" > 
<path d="M4218 2661 L4218 2661" /> 
</g><path d="M4224 2698 L4241 2721" /> 
<g style = "stroke-linecap:round;" > 
<path d="M4241 2721 L4241 2721" /> 
</g><path d="M4241 2681 L4218 2704" /> 
<g style = "stroke-linecap:round;" > 
<path d="M4218 2704 L4218 2704" /> 
</g></g>
<g style="fill:#0000FF; fill-opacity:0.0; 
  stroke:#0000FF; stroke-linecap:round; stroke-linejoin:round; stroke-opacity:1.0; stroke-opacity:1.0; stroke-width:6" 
   transform="translate(0 0) scale(1 1)">
<path d="M2309 2541 L2360 2541" /> 
<g style = "stroke-linecap:round;" > 
<path d="M2360 2541 L2360 2541" /> 
</g><path d="M2334 2631 L2334 2541" /> 
<g style = "stroke-linecap:round;" > 
<path d="M2334 2541 L2334 2541" /> 
</g><path d="M2403 2631 L2395 2627" /> 
<path d="M2395 2627 L2390 2623" /> 
<path d="M2390 2623 L2386 2614" /> 
<path d="M2386 2614 L2386 2589" /> 
<path d="M2386 2589 L2390 2580" /> 
<path d="M2390 2580 L2395 2576" /> 
<path d="M2395 2576 L2403 2571" /> 
<path d="M2403 2571 L2416 2571" /> 
<path d="M2416 2571 L2425 2576" /> 
<path d="M2425 2576 L2429 2580" /> 
<path d="M2429 2580 L2433 2589" /> 
<path d="M2433 2589 L2433 2614" /> 
<path d="M2433 2614 L2429 2623" /> 
<path d="M2429 2623 L2425 2627" /> 
<path d="M2425 2627 L2416 2631" /> 
<path d="M2416 2631 L2403 2631" /> 
<path d="M2471 2571 L2471 2631" /> 
<g style = "stroke-linecap:round;" > 
<path d="M2471 2631 L2471 2631" /> 
</g><path d="M2480 2597 L2506 2631" /> 
<g style = "stroke-linecap:round;" > 
<path d="M2506 2631 L2506 2631" /> 
</g><path d="M2506 2571 L2471 2606" /> 
<g style = "stroke-linecap:round;" > 
<path d="M2471 2606 L2471 2606" /> 
</g><path d="M2557 2631 L2549 2627" /> 
<path d="M2549 2627 L2544 2623" /> 
<path d="M2544 2623 L2540 2614" /> 
<path d="M2540 2614 L2540 2589" /> 
<path d="M2540 2589 L2544 2580" /> 
<path d="M2544 2580 L2549 2576" /> 
<path d="M2549 2576 L2557 2571" /> 
<path d="M2557 2571 L2570 2571" /> 
<path d="M2570 2571 L2579 2576" /> 
<path d="M2579 2576 L2583 2580" /> 
<path d="M2583 2580 L2587 2589" /> 
<path d="M2587 2589 L2587 2614" /> 
<path d="M2587 2614 L2583 2623" /> 
<path d="M2583 2623 L2579 2627" /> 
<path d="M2579 2627 L2570 2631" /> 
<path d="M2570 2631 L2557 2631" /> 
<path d="M2638 2631 L2630 2627" /> 
<path d="M2630 2627 L2625 2623" /> 
<path d="M2625 2623 L2621 2614" /> 
<path d="M2621 2614 L2621 2589" /> 
<path d="M2621 2589 L2625 2580" /> 
<path d="M2625 2580 L2630 2576" /> 
<path d="M2630 2576 L2638 2571" /> 
<path d="M2638 2571 L2651 2571" /> 
<path d="M2651 2571 L2660 2576" /> 
<path d="M2660 2576 L2664 2580" /> 
<path d="M2664 2580 L2668 2589" /> 
<path d="M2668 2589 L2668 2614" /> 
<path d="M2668 2614 L2664 2623" /> 
<path d="M2664 2623 L2660 2627" /> 
<path d="M2660 2627 L2651 2631" /> 
<path d="M2651 2631 L2638 2631" /> 
<path d="M2706 2631 L2706 2571" /> 
<path d="M2706 2571 L2741 2571" /> 
<g style = "stroke-linecap:round;" > 
<path d="M2741 2571 L2741 2571" /> 
</g><path d="M2770 2571 L2770 2661" /> 
<g style = "stroke-linecap:round;" > 
<path d="M2770 2661 L2770 2661" /> 
</g><path d="M2770 2576 L2779 2571" /> 
<path d="M2779 2571 L2796 2571" /> 
<path d="M2796 2571 L2805 2576" /> 
<path d="M2805 2576 L2809 2580" /> 
<path d="M2809 2580 L2813 2589" /> 
<path d="M2813 2589 L2813 2614" /> 
<path d="M2813 2614 L2809 2623" /> 
<path d="M2809 2623 L2805 2627" /> 
<path d="M2805 2627 L2796 2631" /> 
<path d="M2796 2631 L2779 2631" /> 
<path d="M2779 2631 L2770 2627" /> 
<g style = "stroke-linecap:round;" > 
<path d="M2770 2627 L2770 2627" /> 
</g><path d="M2890 2631 L2890 2584" /> 
<path d="M2890 2584 L2886 2576" /> 
<path d="M2886 2576 L2877 2571" /> 
<path d="M2877 2571 L2860 2571" /> 
<path d="M2860 2571 L2851 2576" /> 
<g style = "stroke-linecap:round;" > 
<path d="M2851 2576 L2851 2576" /> 
</g><path d="M2890 2627 L2881 2631" /> 
<path d="M2881 2631 L2860 2631" /> 
<path d="M2860 2631 L2851 2627" /> 
<path d="M2851 2627 L2847 2619" /> 
<path d="M2847 2619 L2847 2610" /> 
<path d="M2847 2610 L2851 2601" /> 
<path d="M2851 2601 L2860 2597" /> 
<path d="M2860 2597 L2881 2597" /> 
<path d="M2881 2597 L2890 2593" /> 
<g style = "stroke-linecap:round;" > 
<path d="M2890 2593 L2890 2593" /> 
</g><path d="M2932 2601 L2971 2601" /> 
<g style = "stroke-linecap:round;" > 
<path d="M2971 2601 L2971 2601" /> 
</g><path d="M2932 2571 L2932 2631" /> 
<g style = "stroke-linecap:round;" > 
<path d="M2932 2631 L2932 2631" /> 
</g><path d="M2971 2571 L2971 2631" /> 
<g style = "stroke-linecap:round;" > 
<path d="M2971 2631 L2971 2631" /> 
</g><path d="M3013 2571 L3013 2631" /> 
<path d="M3013 2631 L3056 2571" /> 
<path d="M3056 2571 L3056 2631" /> 
<g style = "stroke-linecap:round;" > 
<path d="M3056 2631 L3056 2631" /> 
</g><path d="M3129 2571 L3129 2631" /> 
<g style = "stroke-linecap:round;" > 
<path d="M3129 2631 L3129 2631" /> 
</g><path d="M3095 2571 L3095 2593" /> 
<path d="M3095 2593 L3099 2601" /> 
<path d="M3099 2601 L3108 2606" /> 
<path d="M3108 2606 L3129 2606" /> 
<g style = "stroke-linecap:round;" > 
<path d="M3129 2606 L3129 2606" /> 
</g><path d="M3176 2571 L3176 2631" /> 
<path d="M3176 2631 L3219 2571" /> 
<path d="M3219 2571 L3219 2631" /> 
<g style = "stroke-linecap:round;" > 
<path d="M3219 2631 L3219 2631" /> 
</g><path d="M3284 2601 L3297 2606" /> 
<path d="M3297 2606 L3301 2614" /> 
<path d="M3301 2614 L3301 2619" /> 
<path d="M3301 2619 L3297 2627" /> 
<path d="M3297 2627 L3288 2631" /> 
<path d="M3288 2631 L3262 2631" /> 
<path d="M3262 2631 L3262 2571" /> 
<path d="M3262 2571 L3284 2571" /> 
<path d="M3284 2571 L3292 2576" /> 
<path d="M3292 2576 L3297 2584" /> 
<path d="M3297 2584 L3297 2589" /> 
<path d="M3297 2589 L3292 2597" /> 
<path d="M3292 2597 L3284 2601" /> 
<path d="M3284 2601 L3262 2601" /> 
<g style = "stroke-linecap:round;" > 
<path d="M3262 2601 L3262 2601" /> 
</g><path d="M3378 2631 L3378 2584" /> 
<path d="M3378 2584 L3374 2576" /> 
<path d="M3374 2576 L3365 2571" /> 
<path d="M3365 2571 L3348 2571" /> 
<path d="M3348 2571 L3339 2576" /> 
<g style = "stroke-linecap:round;" > 
<path d="M3339 2576 L3339 2576" /> 
</g><path d="M3378 2627 L3369 2631" /> 
<path d="M3369 2631 L3348 2631" /> 
<path d="M3348 2631 L3339 2627" /> 
<path d="M3339 2627 L3335 2619" /> 
<path d="M3335 2619 L3335 2610" /> 
<path d="M3335 2610 L3339 2601" /> 
<path d="M3339 2601 L3348 2597" /> 
<path d="M3348 2597 L3369 2597" /> 
<path d="M3369 2597 L3378 2593" /> 
<g style = "stroke-linecap:round;" > 
<path d="M3378 2593 L3378 2593" /> 
</g><path d="M3420 2601 L3446 2601" /> 
<g style = "stroke-linecap:round;" > 
<path d="M3446 2601 L3446 2601" /> 
</g><path d="M3420 2571 L3420 2631" /> 
<g style = "stroke-linecap:round;" > 
<path d="M3420 2631 L3420 2631" /> 
</g><path d="M3463 2631 L3455 2627" /> 
<path d="M3455 2627 L3450 2623" /> 
<path d="M3450 2623 L3446 2614" /> 
<path d="M3446 2614 L3446 2589" /> 
<path d="M3446 2589 L3450 2580" /> 
<path d="M3450 2580 L3455 2576" /> 
<path d="M3455 2576 L3463 2571" /> 
<path d="M3463 2571 L3476 2571" /> 
<path d="M3476 2571 L3485 2576" /> 
<path d="M3485 2576 L3489 2580" /> 
<path d="M3489 2580 L3493 2589" /> 
<path d="M3493 2589 L3493 2614" /> 
<path d="M3493 2614 L3489 2623" /> 
<path d="M3489 2623 L3485 2627" /> 
<path d="M3485 2627 L3476 2631" /> 
<path d="M3476 2631 L3463 2631" /> 
<path d="M3561 2571 L3561 2631" /> 
<g style = "stroke-linecap:round;" > 
<path d="M3561 2631 L3561 2631" /> 
</g><path d="M3531 2571 L3531 2631" /> 
<path d="M3531 2631 L3591 2631" /> 
<path d="M3591 2631 L3591 2571" /> 
<g style = "stroke-linecap:round;" > 
<path d="M3591 2571 L3591 2571" /> 
</g><path d="M3591 2631 L3600 2631" /> 
<path d="M3600 2631 L3600 2653" /> 
<g style = "stroke-linecap:round;" > 
<path d="M3600 2653 L3600 2653" /> 
</g><path d="M3634 2571 L3634 2631" /> 
<path d="M3634 2631 L3677 2571" /> 
<path d="M3677 2571 L3677 2631" /> 
<g style = "stroke-linecap:round;" > 
<path d="M3677 2631 L3677 2631" /> 
</g><path d="M3720 2571 L3720 2631" /> 
<path d="M3720 2631 L3763 2571" /> 
<path d="M3763 2571 L3763 2631" /> 
<g style = "stroke-linecap:round;" > 
<path d="M3763 2631 L3763 2631" /> 
</g><path d="M3725 2537 L3729 2546" /> 
<path d="M3729 2546 L3738 2550" /> 
<path d="M3738 2550 L3746 2550" /> 
<path d="M3746 2550 L3755 2546" /> 
<path d="M3755 2546 L3759 2537" /> 
<g style = "stroke-linecap:round;" > 
<path d="M3759 2537 L3759 2537" /> 
</g><path d="M2321 2703 L2321 2793" /> 
<g style = "stroke-linecap:round;" > 
<path d="M2321 2793 L2321 2793" /> 
</g><path d="M2321 2708 L2330 2703" /> 
<path d="M2330 2703 L2347 2703" /> 
<path d="M2347 2703 L2356 2708" /> 
<path d="M2356 2708 L2360 2712" /> 
<path d="M2360 2712 L2364 2721" /> 
<path d="M2364 2721 L2364 2746" /> 
<path d="M2364 2746 L2360 2755" /> 
<path d="M2360 2755 L2356 2759" /> 
<path d="M2356 2759 L2347 2763" /> 
<path d="M2347 2763 L2330 2763" /> 
<path d="M2330 2763 L2321 2759" /> 
<g style = "stroke-linecap:round;" > 
<path d="M2321 2759 L2321 2759" /> 
</g><path d="M2437 2759 L2428 2763" /> 
<path d="M2428 2763 L2411 2763" /> 
<path d="M2411 2763 L2402 2759" /> 
<path d="M2402 2759 L2398 2751" /> 
<path d="M2398 2751 L2398 2716" /> 
<path d="M2398 2716 L2402 2708" /> 
<path d="M2402 2708 L2411 2703" /> 
<path d="M2411 2703 L2428 2703" /> 
<path d="M2428 2703 L2437 2708" /> 
<path d="M2437 2708 L2441 2716" /> 
<path d="M2441 2716 L2441 2725" /> 
<path d="M2441 2725 L2398 2733" /> 
<g style = "stroke-linecap:round;" > 
<path d="M2398 2733 L2398 2733" /> 
</g><path d="M2488 2733 L2497 2733" /> 
<g style = "stroke-linecap:round;" > 
<path d="M2497 2733 L2497 2733" /> 
</g><path d="M2471 2708 L2479 2703" /> 
<path d="M2479 2703 L2497 2703" /> 
<path d="M2497 2703 L2505 2708" /> 
<path d="M2505 2708 L2509 2716" /> 
<path d="M2509 2716 L2509 2721" /> 
<path d="M2509 2721 L2505 2729" /> 
<path d="M2505 2729 L2497 2733" /> 
<path d="M2497 2733 L2505 2738" /> 
<path d="M2505 2738 L2509 2746" /> 
<path d="M2509 2746 L2509 2751" /> 
<path d="M2509 2751 L2505 2759" /> 
<path d="M2505 2759 L2497 2763" /> 
<path d="M2497 2763 L2479 2763" /> 
<path d="M2479 2763 L2471 2759" /> 
<g style = "stroke-linecap:round;" > 
<path d="M2471 2759 L2471 2759" /> 
</g><path d="M2548 2703 L2548 2763" /> 
<path d="M2548 2763 L2591 2703" /> 
<path d="M2591 2703 L2591 2763" /> 
<g style = "stroke-linecap:round;" > 
<path d="M2591 2763 L2591 2763" /> 
</g><path d="M2673 2759 L2664 2763" /> 
<path d="M2664 2763 L2647 2763" /> 
<path d="M2647 2763 L2639 2759" /> 
<path d="M2639 2759 L2634 2755" /> 
<path d="M2634 2755 L2630 2746" /> 
<path d="M2630 2746 L2630 2721" /> 
<path d="M2630 2721 L2634 2712" /> 
<path d="M2634 2712 L2639 2708" /> 
<path d="M2639 2708 L2647 2703" /> 
<path d="M2647 2703 L2664 2703" /> 
<path d="M2664 2703 L2673 2708" /> 
<g style = "stroke-linecap:round;" > 
<path d="M2673 2708 L2673 2708" /> 
</g><path d="M2699 2703 L2741 2703" /> 
<g style = "stroke-linecap:round;" > 
<path d="M2741 2703 L2741 2703" /> 
</g><path d="M2720 2703 L2720 2763" /> 
<g style = "stroke-linecap:round;" > 
<path d="M2720 2763 L2720 2763" /> 
</g><path d="M2784 2763 L2776 2759" /> 
<path d="M2776 2759 L2771 2755" /> 
<path d="M2771 2755 L2767 2746" /> 
<path d="M2767 2746 L2767 2721" /> 
<path d="M2767 2721 L2771 2712" /> 
<path d="M2771 2712 L2776 2708" /> 
<path d="M2776 2708 L2784 2703" /> 
<path d="M2784 2703 L2797 2703" /> 
<path d="M2797 2703 L2806 2708" /> 
<path d="M2806 2708 L2810 2712" /> 
<path d="M2810 2712 L2814 2721" /> 
<path d="M2814 2721 L2814 2746" /> 
<path d="M2814 2746 L2810 2755" /> 
<path d="M2810 2755 L2806 2759" /> 
<path d="M2806 2759 L2797 2763" /> 
<path d="M2797 2763 L2784 2763" /> 
<path d="M2852 2703 L2852 2793" /> 
<g style = "stroke-linecap:round;" > 
<path d="M2852 2793 L2852 2793" /> 
</g><path d="M2852 2708 L2861 2703" /> 
<path d="M2861 2703 L2878 2703" /> 
<path d="M2878 2703 L2887 2708" /> 
<path d="M2887 2708 L2891 2712" /> 
<path d="M2891 2712 L2895 2721" /> 
<path d="M2895 2721 L2895 2746" /> 
<path d="M2895 2746 L2891 2755" /> 
<path d="M2891 2755 L2887 2759" /> 
<path d="M2887 2759 L2878 2763" /> 
<path d="M2878 2763 L2861 2763" /> 
<path d="M2861 2763 L2852 2759" /> 
<g style = "stroke-linecap:round;" > 
<path d="M2852 2759 L2852 2759" /> 
</g></g>
<g style="fill:#A00000; fill-opacity:0.0; 
  stroke:#A00000; stroke-linecap:round; stroke-linejoin:round; stroke-opacity:1.0; stroke-opacity:1.0; stroke-width:6" 
   transform="translate(0 0) scale(1 1)">
<path d="M4050 2050 L3850 2050" /> 
<g style = "stroke-linecap:round;" > 
<path d="M3850 2050 L3850 2050" /> 
</g><path d="M3840 1930 L3705 2035" /> 
<path d="M3705 2035 L3745 1975" /> 
<g style = "stroke-linecap:round;" > 
<path d="M3745 1975 L3745 1975" /> 
</g><path d="M3870 1990 L3740 2090" /> 
<path d="M3740 2090 L3785 2025" /> 
<g style = "stroke-linecap:round;" > 
<path d="M3785 2025 L3785 2025" /> 
</g><path d="M4050 1850 L3850 1850" /> 
<path d="M3850 1850 L3950 2050" /> 
<path d="M3950 2050 L4050 1850" /> 
<path d="M3950 1850 L3950 1650" /> 
<path d="M3935 1736 L3935 1764" /> 
<g style = "stroke-linecap:round;" > 
<path d="M3935 1764 L3935 1764" /> 
</g><path d="M3935 1750 L3885 1750" /> 
<path d="M3885 1750 L3892 1755" /> 
<path d="M3892 1755 L3897 1760" /> 
<path d="M3897 1760 L3900 1764" /> 
<g style = "stroke-linecap:round;" > 
<path d="M3900 1764 L3900 1764" /> 
</g><path d="M3950 2050 L3950 2250" /> 
<path d="M3890 2164 L3888 2162" /> 
<path d="M3888 2162 L3885 2157" /> 
<path d="M3885 2157 L3885 2145" /> 
<path d="M3885 2145 L3888 2141" /> 
<path d="M3888 2141 L3890 2138" /> 
<path d="M3890 2138 L3895 2136" /> 
<path d="M3895 2136 L3900 2136" /> 
<path d="M3900 2136 L3907 2138" /> 
<path d="M3907 2138 L3935 2167" /> 
<path d="M3935 2167 L3935 2136" /> 
<g style = "stroke-linecap:round;" > 
<path d="M3935 2136 L3935 2136" /> 
</g></g>
<g style="fill:#00A0A0; fill-opacity:0.0; 
  stroke:#00A0A0; stroke-linecap:round; stroke-linejoin:round; stroke-opacity:1.0; stroke-opacity:1.0; stroke-width:6" 
   transform="translate(0 0) scale(1 1)">
<path d="M4130 1871 L4130 1811" /> 
<g style = "stroke-linecap:round;" > 
<path d="M4130 1811 L4130 1811" /> 
</g><path d="M4130 1840 L4165 1840" /> 
<g style = "stroke-linecap:round;" > 
<path d="M4165 1840 L4165 1840" /> 
</g><path d="M4165 1871 L4165 1811" /> 
<g style = "stroke-linecap:round;" > 
<path d="M4165 1811 L4165 1811" /> 
</g><path d="M4222 1871 L4193 1871" /> 
<path d="M4193 1871 L4193 1811" /> 
<g style = "stroke-linecap:round;" > 
<path d="M4193 1811 L4193 1811" /> 
</g><path d="M4274 1871 L4239 1871" /> 
<g style = "stroke-linecap:round;" > 
<path d="M4239 1871 L4239 1871" /> 
</g><path d="M4257 1871 L4257 1811" /> 
<path d="M4257 1811 L4251 1820" /> 
<path d="M4251 1820 L4245 1826" /> 
<path d="M4245 1826 L4239 1828" /> 
<g style = "stroke-linecap:round;" > 
<path d="M4239 1828 L4239 1828" /> 
</g><path d="M4162 2021 L4133 2021" /> 
<path d="M4133 2021 L4133 1961" /> 
<g style = "stroke-linecap:round;" > 
<path d="M4133 1961 L4133 1961" /> 
</g><path d="M4182 1990 L4202 1990" /> 
<g style = "stroke-linecap:round;" > 
<path d="M4202 1990 L4202 1990" /> 
</g><path d="M4211 2021 L4182 2021" /> 
<path d="M4182 2021 L4182 1961" /> 
<path d="M4182 1961 L4211 1961" /> 
<g style = "stroke-linecap:round;" > 
<path d="M4211 1961 L4211 1961" /> 
</g><path d="M4236 2021 L4236 1961" /> 
<path d="M4236 1961 L4251 1961" /> 
<path d="M4251 1961 L4259 1964" /> 
<path d="M4259 1964 L4265 1970" /> 
<path d="M4265 1970 L4268 1976" /> 
<path d="M4268 1976 L4271 1987" /> 
<path d="M4271 1987 L4271 1996" /> 
<path d="M4271 1996 L4268 2007" /> 
<path d="M4268 2007 L4265 2013" /> 
<path d="M4265 2013 L4259 2018" /> 
<path d="M4259 2018 L4251 2021" /> 
<path d="M4251 2021 L4236 2021" /> 
</g>
<g style="fill:#0000FF; fill-opacity:0.0; 
  stroke:#0000FF; stroke-linecap:round; stroke-linejoin:round; stroke-opacity:1.0; stroke-opacity:1.0; stroke-width:6" 
   transform="translate(0 0) scale(1 1)">
<path d="M2873 1973 L2869 1977" /> 
<path d="M2869 1977 L2856 1981" /> 
<path d="M2856 1981 L2847 1981" /> 
<path d="M2847 1981 L2834 1977" /> 
<path d="M2834 1977 L2826 1969" /> 
<path d="M2826 1969 L2821 1960" /> 
<path d="M2821 1960 L2817 1943" /> 
<path d="M2817 1943 L2817 1930" /> 
<path d="M2817 1930 L2821 1913" /> 
<path d="M2821 1913 L2826 1904" /> 
<path d="M2826 1904 L2834 1896" /> 
<path d="M2834 1896 L2847 1891" /> 
<path d="M2847 1891 L2856 1891" /> 
<path d="M2856 1891 L2869 1896" /> 
<path d="M2869 1896 L2873 1900" /> 
<g style = "stroke-linecap:round;" > 
<path d="M2873 1900 L2873 1900" /> 
</g><path d="M2933 1951 L2946 1956" /> 
<path d="M2946 1956 L2950 1964" /> 
<path d="M2950 1964 L2950 1969" /> 
<path d="M2950 1969 L2946 1977" /> 
<path d="M2946 1977 L2937 1981" /> 
<path d="M2937 1981 L2911 1981" /> 
<path d="M2911 1981 L2911 1921" /> 
<path d="M2911 1921 L2933 1921" /> 
<path d="M2933 1921 L2941 1926" /> 
<path d="M2941 1926 L2946 1934" /> 
<path d="M2946 1934 L2946 1939" /> 
<path d="M2946 1939 L2941 1947" /> 
<path d="M2941 1947 L2933 1951" /> 
<path d="M2933 1951 L2911 1951" /> 
<g style = "stroke-linecap:round;" > 
<path d="M2911 1951 L2911 1951" /> 
</g><path d="M3023 1977 L3014 1981" /> 
<path d="M3014 1981 L2997 1981" /> 
<path d="M2997 1981 L2988 1977" /> 
<path d="M2988 1977 L2984 1969" /> 
<path d="M2984 1969 L2984 1934" /> 
<path d="M2984 1934 L2988 1926" /> 
<path d="M2988 1926 L2997 1921" /> 
<path d="M2997 1921 L3014 1921" /> 
<path d="M3014 1921 L3023 1926" /> 
<path d="M3023 1926 L3027 1934" /> 
<path d="M3027 1934 L3027 1943" /> 
<path d="M3027 1943 L2984 1951" /> 
<g style = "stroke-linecap:round;" > 
<path d="M2984 1951 L2984 1951" /> 
</g><path d="M3053 1921 L3095 1921" /> 
<g style = "stroke-linecap:round;" > 
<path d="M3095 1921 L3095 1921" /> 
</g><path d="M3074 1921 L3074 1981" /> 
<g style = "stroke-linecap:round;" > 
<path d="M3074 1981 L3074 1981" /> 
</g><path d="M3138 1981 L3130 1977" /> 
<path d="M3130 1977 L3125 1973" /> 
<path d="M3125 1973 L3121 1964" /> 
<path d="M3121 1964 L3121 1939" /> 
<path d="M3121 1939 L3125 1930" /> 
<path d="M3125 1930 L3130 1926" /> 
<path d="M3130 1926 L3138 1921" /> 
<path d="M3138 1921 L3151 1921" /> 
<path d="M3151 1921 L3160 1926" /> 
<path d="M3160 1926 L3164 1930" /> 
<path d="M3164 1930 L3168 1939" /> 
<path d="M3168 1939 L3168 1964" /> 
<path d="M3168 1964 L3164 1973" /> 
<path d="M3164 1973 L3160 1977" /> 
<path d="M3160 1977 L3151 1981" /> 
<path d="M3151 1981 L3138 1981" /> 
<path d="M3249 1930 L3245 1926" /> 
<path d="M3245 1926 L3236 1921" /> 
<path d="M3236 1921 L3219 1921" /> 
<path d="M3219 1921 L3211 1926" /> 
<path d="M3211 1926 L3206 1930" /> 
<path d="M3206 1930 L3202 1939" /> 
<path d="M3202 1939 L3202 1964" /> 
<path d="M3202 1964 L3206 1973" /> 
<path d="M3206 1973 L3211 1977" /> 
<path d="M3211 1977 L3219 1981" /> 
<path d="M3219 1981 L3232 1981" /> 
<path d="M3232 1981 L3241 1977" /> 
<path d="M3241 1977 L3245 1973" /> 
<path d="M3245 1973 L3249 1964" /> 
<path d="M3249 1964 L3249 1909" /> 
<path d="M3249 1909 L3245 1900" /> 
<path d="M3245 1900 L3241 1896" /> 
<path d="M3241 1896 L3232 1891" /> 
<path d="M3232 1891 L3215 1891" /> 
<path d="M3215 1891 L3206 1896" /> 
<g style = "stroke-linecap:round;" > 
<path d="M3206 1896 L3206 1896" /> 
</g><path d="M3287 1921 L3287 1981" /> 
<path d="M3287 1981 L3330 1921" /> 
<path d="M3330 1921 L3330 1981" /> 
<g style = "stroke-linecap:round;" > 
<path d="M3330 1981 L3330 1981" /> 
</g><path d="M3386 1981 L3378 1977" /> 
<path d="M3378 1977 L3373 1973" /> 
<path d="M3373 1973 L3369 1964" /> 
<path d="M3369 1964 L3369 1939" /> 
<path d="M3369 1939 L3373 1930" /> 
<path d="M3373 1930 L3378 1926" /> 
<path d="M3378 1926 L3386 1921" /> 
<path d="M3386 1921 L3399 1921" /> 
<path d="M3399 1921 L3408 1926" /> 
<path d="M3408 1926 L3412 1930" /> 
<path d="M3412 1930 L3416 1939" /> 
<path d="M3416 1939 L3416 1964" /> 
<path d="M3416 1964 L3412 1973" /> 
<path d="M3412 1973 L3408 1977" /> 
<path d="M3408 1977 L3399 1981" /> 
<path d="M3399 1981 L3386 1981" /> 
<path d="M3497 1930 L3493 1926" /> 
<path d="M3493 1926 L3484 1921" /> 
<path d="M3484 1921 L3467 1921" /> 
<path d="M3467 1921 L3459 1926" /> 
<path d="M3459 1926 L3454 1930" /> 
<path d="M3454 1930 L3450 1939" /> 
<path d="M3450 1939 L3450 1964" /> 
<path d="M3450 1964 L3454 1973" /> 
<path d="M3454 1973 L3459 1977" /> 
<path d="M3459 1977 L3467 1981" /> 
<path d="M3467 1981 L3480 1981" /> 
<path d="M3480 1981 L3489 1977" /> 
<path d="M3489 1977 L3493 1973" /> 
<path d="M3493 1973 L3497 1964" /> 
<path d="M3497 1964 L3497 1909" /> 
<path d="M3497 1909 L3493 1900" /> 
<path d="M3493 1900 L3489 1896" /> 
<path d="M3489 1896 L3480 1891" /> 
<path d="M3480 1891 L3463 1891" /> 
<path d="M3463 1891 L3454 1896" /> 
<g style = "stroke-linecap:round;" > 
<path d="M3454 1896 L3454 1896" /> 
</g></g>
<g style="fill:#A00000; fill-opacity:0.0; 
  stroke:#A00000; stroke-linecap:round; stroke-linejoin:round; stroke-opacity:1.0; stroke-opacity:1.0; stroke-width:6" 
   transform="translate(0 0) scale(1 1)">
<path d="M5380 2800 L5380 2840" /> 
<g style = "stroke-linecap:round;" > 
<path d="M5380 2840 L5380 2840" /> 
</g><path d="M5400 2820 L5360 2820" /> 
<g style = "stroke-linecap:round;" > 
<path d="M5360 2820 L5360 2820" /> 
</g><path d="M5400 2850 L5200 2850" /> 
<g style = "stroke-linecap:round;" > 
<path d="M5200 2850 L5200 2850" /> 
</g><path d="M5300 2900 L5300 2950" /> 
<g style = "stroke-linecap:round;" > 
<path d="M5300 2950 L5300 2950" /> 
</g><path d="M5350 2900 L5250 2900" /> 
<g style = "stroke-linecap:round;" > 
<path d="M5250 2900 L5250 2900" /> 
</g><path d="M5300 3000 L5300 3050" /> 
<g style = "stroke-linecap:round;" > 
<path d="M5300 3050 L5300 3050" /> 
</g><path d="M5300 3100 L5300 3150" /> 
<g style = "stroke-linecap:round;" > 
<path d="M5300 3150 L5300 3150" /> 
</g><path d="M5400 3150 L5200 3150" /> 
<g style = "stroke-linecap:round;" > 
<path d="M5200 3150 L5200 3150" /> 
</g><path d="M5350 3200 L5250 3200" /> 
<g style = "stroke-linecap:round;" > 
<path d="M5250 3200 L5250 3200" /> 
</g><path d="M5300 2850 L5300 2650" /> 
<path d="M5285 2736 L5285 2764" /> 
<g style = "stroke-linecap:round;" > 
<path d="M5285 2764 L5285 2764" /> 
</g><path d="M5285 2750 L5235 2750" /> 
<path d="M5235 2750 L5242 2755" /> 
<path d="M5242 2755 L5247 2760" /> 
<path d="M5247 2760 L5250 2764" /> 
<g style = "stroke-linecap:round;" > 
<path d="M5250 2764 L5250 2764" /> 
</g><path d="M5300 3200 L5300 3300" /> 
<path d="M5240 3264 L5238 3262" /> 
<path d="M5238 3262 L5235 3257" /> 
<path d="M5235 3257 L5235 3245" /> 
<path d="M5235 3245 L5238 3241" /> 
<path d="M5238 3241 L5240 3238" /> 
<path d="M5240 3238 L5245 3236" /> 
<path d="M5245 3236 L5250 3236" /> 
<path d="M5250 3236 L5257 3238" /> 
<path d="M5257 3238 L5285 3267" /> 
<path d="M5285 3267 L5285 3236" /> 
<g style = "stroke-linecap:round;" > 
<path d="M5285 3236 L5285 3236" /> 
</g></g>
<g style="fill:#00A0A0; fill-opacity:0.0; 
  stroke:#00A0A0; stroke-linecap:round; stroke-linejoin:round; stroke-opacity:1.0; stroke-opacity:1.0; stroke-width:6" 
   transform="translate(0 0) scale(1 1)">
<path d="M5508 2864 L5502 2861" /> 
<path d="M5502 2861 L5493 2861" /> 
<path d="M5493 2861 L5485 2864" /> 
<path d="M5485 2864 L5479 2870" /> 
<path d="M5479 2870 L5476 2876" /> 
<path d="M5476 2876 L5473 2887" /> 
<path d="M5473 2887 L5473 2896" /> 
<path d="M5473 2896 L5476 2907" /> 
<path d="M5476 2907 L5479 2913" /> 
<path d="M5479 2913 L5485 2918" /> 
<path d="M5485 2918 L5493 2921" /> 
<path d="M5493 2921 L5499 2921" /> 
<path d="M5499 2921 L5508 2918" /> 
<path d="M5508 2918 L5511 2916" /> 
<path d="M5511 2916 L5511 2896" /> 
<path d="M5511 2896 L5499 2896" /> 
<g style = "stroke-linecap:round;" > 
<path d="M5499 2896 L5499 2896" /> 
</g><path d="M5556 2890 L5565 2893" /> 
<path d="M5565 2893 L5568 2896" /> 
<path d="M5568 2896 L5571 2901" /> 
<path d="M5571 2901 L5571 2910" /> 
<path d="M5571 2910 L5568 2916" /> 
<path d="M5568 2916 L5565 2918" /> 
<path d="M5565 2918 L5559 2921" /> 
<path d="M5559 2921 L5536 2921" /> 
<path d="M5536 2921 L5536 2861" /> 
<path d="M5536 2861 L5556 2861" /> 
<path d="M5556 2861 L5562 2864" /> 
<path d="M5562 2864 L5565 2867" /> 
<path d="M5565 2867 L5568 2873" /> 
<path d="M5568 2873 L5568 2878" /> 
<path d="M5568 2878 L5565 2884" /> 
<path d="M5565 2884 L5562 2887" /> 
<path d="M5562 2887 L5556 2890" /> 
<path d="M5556 2890 L5536 2890" /> 
<g style = "stroke-linecap:round;" > 
<path d="M5536 2890 L5536 2890" /> 
</g><path d="M5628 2921 L5593 2921" /> 
<g style = "stroke-linecap:round;" > 
<path d="M5593 2921 L5593 2921" /> 
</g><path d="M5611 2921 L5611 2861" /> 
<path d="M5611 2861 L5605 2870" /> 
<path d="M5605 2870 L5599 2876" /> 
<path d="M5599 2876 L5593 2878" /> 
<g style = "stroke-linecap:round;" > 
<path d="M5593 2878 L5593 2878" /> 
</g><path d="M5513 3071 L5525 3071" /> 
<path d="M5525 3071 L5530 3068" /> 
<path d="M5530 3068 L5533 3066" /> 
<path d="M5533 3066 L5539 3057" /> 
<path d="M5539 3057 L5542 3046" /> 
<path d="M5542 3046 L5542 3023" /> 
<path d="M5542 3023 L5539 3017" /> 
<path d="M5539 3017 L5536 3014" /> 
<path d="M5536 3014 L5530 3011" /> 
<path d="M5530 3011 L5519 3011" /> 
<path d="M5519 3011 L5513 3014" /> 
<path d="M5513 3014 L5510 3017" /> 
<path d="M5510 3017 L5507 3023" /> 
<path d="M5507 3023 L5507 3037" /> 
<path d="M5507 3037 L5510 3043" /> 
<path d="M5510 3043 L5513 3046" /> 
<path d="M5513 3046 L5519 3048" /> 
<path d="M5519 3048 L5530 3048" /> 
<path d="M5530 3048 L5536 3046" /> 
<path d="M5536 3046 L5539 3043" /> 
<path d="M5539 3043 L5542 3037" /> 
<g style = "stroke-linecap:round;" > 
<path d="M5542 3037 L5542 3037" /> 
</g><path d="M5559 3011 L5579 3071" /> 
<path d="M5579 3071 L5599 3011" /> 
<g style = "stroke-linecap:round;" > 
<path d="M5599 3011 L5599 3011" /> 
</g></g>
<g style="fill:#0000FF; fill-opacity:0.0; 
  stroke:#0000FF; stroke-linecap:round; stroke-linejoin:round; stroke-opacity:1.0; stroke-opacity:1.0; stroke-width:6" 
   transform="translate(0 0) scale(1 1)">
<path d="M4564 2841 L4521 2841" /> 
<path d="M4521 2841 L4521 2931" /> 
<path d="M4521 2931 L4547 2931" /> 
<path d="M4547 2931 L4560 2927" /> 
<path d="M4560 2927 L4569 2919" /> 
<path d="M4569 2919 L4573 2910" /> 
<path d="M4573 2910 L4573 2897" /> 
<path d="M4573 2897 L4569 2889" /> 
<path d="M4569 2889 L4560 2880" /> 
<path d="M4560 2880 L4547 2876" /> 
<path d="M4547 2876 L4521 2876" /> 
<g style = "stroke-linecap:round;" > 
<path d="M4521 2876 L4521 2876" /> 
</g><path d="M4650 2931 L4650 2884" /> 
<path d="M4650 2884 L4646 2876" /> 
<path d="M4646 2876 L4637 2871" /> 
<path d="M4637 2871 L4620 2871" /> 
<path d="M4620 2871 L4611 2876" /> 
<g style = "stroke-linecap:round;" > 
<path d="M4611 2876 L4611 2876" /> 
</g><path d="M4650 2927 L4641 2931" /> 
<path d="M4641 2931 L4620 2931" /> 
<path d="M4620 2931 L4611 2927" /> 
<path d="M4611 2927 L4607 2919" /> 
<path d="M4607 2919 L4607 2910" /> 
<path d="M4607 2910 L4611 2901" /> 
<path d="M4611 2901 L4620 2897" /> 
<path d="M4620 2897 L4641 2897" /> 
<path d="M4641 2897 L4650 2893" /> 
<g style = "stroke-linecap:round;" > 
<path d="M4650 2893 L4650 2893" /> 
</g><path d="M4680 2871 L4722 2871" /> 
<g style = "stroke-linecap:round;" > 
<path d="M4722 2871 L4722 2871" /> 
</g><path d="M4701 2871 L4701 2931" /> 
<g style = "stroke-linecap:round;" > 
<path d="M4701 2931 L4701 2931" /> 
</g><path d="M4791 2931 L4791 2884" /> 
<path d="M4791 2884 L4787 2876" /> 
<path d="M4787 2876 L4778 2871" /> 
<path d="M4778 2871 L4761 2871" /> 
<path d="M4761 2871 L4752 2876" /> 
<g style = "stroke-linecap:round;" > 
<path d="M4752 2876 L4752 2876" /> 
</g><path d="M4791 2927 L4782 2931" /> 
<path d="M4782 2931 L4761 2931" /> 
<path d="M4761 2931 L4752 2927" /> 
<path d="M4752 2927 L4748 2919" /> 
<path d="M4748 2919 L4748 2910" /> 
<path d="M4748 2910 L4752 2901" /> 
<path d="M4752 2901 L4761 2897" /> 
<path d="M4761 2897 L4782 2897" /> 
<path d="M4782 2897 L4791 2893" /> 
<g style = "stroke-linecap:round;" > 
<path d="M4791 2893 L4791 2893" /> 
</g><path d="M4833 2871 L4833 2961" /> 
<g style = "stroke-linecap:round;" > 
<path d="M4833 2961 L4833 2961" /> 
</g><path d="M4833 2876 L4842 2871" /> 
<path d="M4842 2871 L4859 2871" /> 
<path d="M4859 2871 L4868 2876" /> 
<path d="M4868 2876 L4872 2880" /> 
<path d="M4872 2880 L4876 2889" /> 
<path d="M4876 2889 L4876 2914" /> 
<path d="M4876 2914 L4872 2923" /> 
<path d="M4872 2923 L4868 2927" /> 
<path d="M4868 2927 L4859 2931" /> 
<path d="M4859 2931 L4842 2931" /> 
<path d="M4842 2931 L4833 2927" /> 
<g style = "stroke-linecap:round;" > 
<path d="M4833 2927 L4833 2927" /> 
</g><path d="M4949 2927 L4940 2931" /> 
<path d="M4940 2931 L4923 2931" /> 
<path d="M4923 2931 L4914 2927" /> 
<path d="M4914 2927 L4910 2919" /> 
<path d="M4910 2919 L4910 2884" /> 
<path d="M4910 2884 L4914 2876" /> 
<path d="M4914 2876 L4923 2871" /> 
<path d="M4923 2871 L4940 2871" /> 
<path d="M4940 2871 L4949 2876" /> 
<path d="M4949 2876 L4953 2884" /> 
<path d="M4953 2884 L4953 2893" /> 
<path d="M4953 2893 L4910 2901" /> 
<g style = "stroke-linecap:round;" > 
<path d="M4910 2901 L4910 2901" /> 
</g><path d="M5009 2906 L4987 2931" /> 
<g style = "stroke-linecap:round;" > 
<path d="M4987 2931 L4987 2931" /> 
</g><path d="M5026 2931 L5026 2871" /> 
<path d="M5026 2871 L5000 2871" /> 
<path d="M5000 2871 L4991 2876" /> 
<path d="M4991 2876 L4987 2884" /> 
<path d="M4987 2884 L4987 2893" /> 
<path d="M4987 2893 L4991 2901" /> 
<path d="M4991 2901 L5000 2906" /> 
<path d="M5000 2906 L5026 2906" /> 
<g style = "stroke-linecap:round;" > 
<path d="M5026 2906 L5026 2906" /> 
</g><path d="M4526 3063 L4543 3063" /> 
<path d="M4543 3063 L4551 3059" /> 
<path d="M4551 3059 L4556 3055" /> 
<path d="M4556 3055 L4564 3042" /> 
<path d="M4564 3042 L4569 3025" /> 
<path d="M4569 3025 L4569 2991" /> 
<path d="M4569 2991 L4564 2982" /> 
<path d="M4564 2982 L4560 2978" /> 
<path d="M4560 2978 L4551 2973" /> 
<path d="M4551 2973 L4534 2973" /> 
<path d="M4534 2973 L4526 2978" /> 
<path d="M4526 2978 L4521 2982" /> 
<path d="M4521 2982 L4517 2991" /> 
<path d="M4517 2991 L4517 3012" /> 
<path d="M4517 3012 L4521 3021" /> 
<path d="M4521 3021 L4526 3025" /> 
<path d="M4526 3025 L4534 3029" /> 
<path d="M4534 3029 L4551 3029" /> 
<path d="M4551 3029 L4560 3025" /> 
<path d="M4560 3025 L4564 3021" /> 
<path d="M4564 3021 L4569 3012" /> 
<g style = "stroke-linecap:round;" > 
<path d="M4569 3012 L4569 3012" /> 
</g><path d="M4698 3033 L4711 3038" /> 
<path d="M4711 3038 L4715 3046" /> 
<path d="M4715 3046 L4715 3051" /> 
<path d="M4715 3051 L4711 3059" /> 
<path d="M4711 3059 L4702 3063" /> 
<path d="M4702 3063 L4676 3063" /> 
<path d="M4676 3063 L4676 3003" /> 
<path d="M4676 3003 L4698 3003" /> 
<path d="M4698 3003 L4706 3008" /> 
<path d="M4706 3008 L4711 3016" /> 
<path d="M4711 3016 L4711 3021" /> 
<path d="M4711 3021 L4706 3029" /> 
<path d="M4706 3029 L4698 3033" /> 
<path d="M4698 3033 L4676 3033" /> 
<g style = "stroke-linecap:round;" > 
<path d="M4676 3033 L4676 3033" /> 
</g><path d="M4766 3063 L4758 3059" /> 
<path d="M4758 3059 L4753 3055" /> 
<path d="M4753 3055 L4749 3046" /> 
<path d="M4749 3046 L4749 3021" /> 
<path d="M4749 3021 L4753 3012" /> 
<path d="M4753 3012 L4758 3008" /> 
<path d="M4758 3008 L4766 3003" /> 
<path d="M4766 3003 L4779 3003" /> 
<path d="M4779 3003 L4788 3008" /> 
<path d="M4788 3008 L4792 3012" /> 
<path d="M4792 3012 L4796 3021" /> 
<path d="M4796 3021 L4796 3046" /> 
<path d="M4796 3046 L4792 3055" /> 
<path d="M4792 3055 L4788 3059" /> 
<path d="M4788 3059 L4779 3063" /> 
<path d="M4779 3063 L4766 3063" /> 
<path d="M4869 3063 L4869 3003" /> 
<path d="M4869 3003 L4856 3003" /> 
<path d="M4856 3003 L4847 3008" /> 
<path d="M4847 3008 L4843 3016" /> 
<path d="M4843 3016 L4839 3051" /> 
<path d="M4839 3051 L4834 3059" /> 
<path d="M4834 3059 L4826 3063" /> 
<g style = "stroke-linecap:round;" > 
<path d="M4826 3063 L4826 3063" /> 
</g><path d="M4911 3003 L4911 3063" /> 
<path d="M4911 3063 L4933 3063" /> 
<path d="M4933 3063 L4941 3059" /> 
<path d="M4941 3059 L4946 3051" /> 
<path d="M4946 3051 L4946 3038" /> 
<path d="M4946 3038 L4941 3029" /> 
<path d="M4941 3029 L4933 3025" /> 
<path d="M4933 3025 L4911 3025" /> 
<g style = "stroke-linecap:round;" > 
<path d="M4911 3025 L4911 3025" /> 
</g><path d="M4972 3003 L5014 3003" /> 
<g style = "stroke-linecap:round;" > 
<path d="M5014 3003 L5014 3003" /> 
</g><path d="M4993 3003 L4993 3063" /> 
<g style = "stroke-linecap:round;" > 
<path d="M4993 3063 L4993 3063" /> 
</g></g>
<g style="fill:#A00000; fill-opacity:0.0; 
  stroke:#A00000; stroke-linecap:round; stroke-linejoin:round; stroke-opacity:1.0; stroke-opacity:1.0; stroke-width:6" 
   transform="translate(0 0) scale(1 1)">
<path d="M3950 3450 L3850 3250" /> 
<g style = "stroke-linecap:round;" > 
<path d="M3850 3250 L3850 3250" /> 
</g><path d="M3950 3450 L3950 3650" /> 
<path d="M3935 3536 L3935 3564" /> 
<g style = "stroke-linecap:round;" > 
<path d="M3935 3564 L3935 3564" /> 
</g><path d="M3935 3550 L3885 3550" /> 
<path d="M3885 3550 L3892 3555" /> 
<path d="M3892 3555 L3897 3560" /> 
<path d="M3897 3560 L3900 3564" /> 
<g style = "stroke-linecap:round;" > 
<path d="M3900 3564 L3900 3564" /> 
</g><path d="M3950 3250 L3950 3050" /> 
<path d="M3890 3164 L3888 3162" /> 
<path d="M3888 3162 L3885 3157" /> 
<path d="M3885 3157 L3885 3145" /> 
<path d="M3885 3145 L3888 3141" /> 
<path d="M3888 3141 L3890 3138" /> 
<path d="M3890 3138 L3895 3136" /> 
<path d="M3895 3136 L3900 3136" /> 
<path d="M3900 3136 L3907 3138" /> 
<path d="M3907 3138 L3935 3167" /> 
<path d="M3935 3167 L3935 3136" /> 
<g style = "stroke-linecap:round;" > 
<path d="M3935 3136 L3935 3136" /> 
</g></g>
<g style="fill:#00A0A0; fill-opacity:0.0; 
  stroke:#00A0A0; stroke-linecap:round; stroke-linejoin:round; stroke-opacity:1.0; stroke-opacity:1.0; stroke-width:6" 
   transform="translate(0 0) scale(1 1)">
<path d="M4078 3274 L4087 3277" /> 
<path d="M4087 3277 L4101 3277" /> 
<path d="M4101 3277 L4107 3274" /> 
<path d="M4107 3274 L4110 3272" /> 
<path d="M4110 3272 L4113 3266" /> 
<path d="M4113 3266 L4113 3260" /> 
<path d="M4113 3260 L4110 3254" /> 
<path d="M4110 3254 L4107 3252" /> 
<path d="M4107 3252 L4101 3249" /> 
<path d="M4101 3249 L4090 3246" /> 
<path d="M4090 3246 L4084 3243" /> 
<path d="M4084 3243 L4081 3240" /> 
<path d="M4081 3240 L4078 3234" /> 
<path d="M4078 3234 L4078 3229" /> 
<path d="M4078 3229 L4081 3223" /> 
<path d="M4081 3223 L4084 3220" /> 
<path d="M4084 3220 L4090 3217" /> 
<path d="M4090 3217 L4104 3217" /> 
<path d="M4104 3217 L4113 3220" /> 
<g style = "stroke-linecap:round;" > 
<path d="M4113 3220 L4113 3220" /> 
</g><path d="M4135 3260 L4164 3260" /> 
<g style = "stroke-linecap:round;" > 
<path d="M4164 3260 L4164 3260" /> 
</g><path d="M4130 3277 L4150 3217" /> 
<path d="M4150 3217 L4170 3277" /> 
<g style = "stroke-linecap:round;" > 
<path d="M4170 3277 L4170 3277" /> 
</g><path d="M4221 3277 L4186 3277" /> 
<g style = "stroke-linecap:round;" > 
<path d="M4186 3277 L4186 3277" /> 
</g><path d="M4204 3277 L4204 3217" /> 
<path d="M4204 3217 L4198 3226" /> 
<path d="M4198 3226 L4192 3232" /> 
<path d="M4192 3232 L4186 3234" /> 
<g style = "stroke-linecap:round;" > 
<path d="M4186 3234 L4186 3234" /> 
</g><path d="M4107 3474 L4116 3477" /> 
<path d="M4116 3477 L4130 3477" /> 
<path d="M4130 3477 L4136 3474" /> 
<path d="M4136 3474 L4139 3472" /> 
<path d="M4139 3472 L4142 3466" /> 
<path d="M4142 3466 L4142 3460" /> 
<path d="M4142 3460 L4139 3454" /> 
<path d="M4139 3454 L4136 3452" /> 
<path d="M4136 3452 L4130 3449" /> 
<path d="M4130 3449 L4119 3446" /> 
<path d="M4119 3446 L4113 3443" /> 
<path d="M4113 3443 L4110 3440" /> 
<path d="M4110 3440 L4107 3434" /> 
<path d="M4107 3434 L4107 3429" /> 
<path d="M4107 3429 L4110 3423" /> 
<path d="M4110 3423 L4113 3420" /> 
<path d="M4113 3420 L4119 3417" /> 
<path d="M4119 3417 L4133 3417" /> 
<path d="M4133 3417 L4142 3420" /> 
<g style = "stroke-linecap:round;" > 
<path d="M4142 3420 L4142 3420" /> 
</g><path d="M4164 3460 L4193 3460" /> 
<g style = "stroke-linecap:round;" > 
<path d="M4193 3460 L4193 3460" /> 
</g><path d="M4159 3477 L4179 3417" /> 
<path d="M4179 3417 L4199 3477" /> 
<g style = "stroke-linecap:round;" > 
<path d="M4199 3477 L4199 3477" /> 
</g></g>
<g style="fill:#0000FF; fill-opacity:0.0; 
  stroke:#0000FF; stroke-linecap:round; stroke-linejoin:round; stroke-opacity:1.0; stroke-opacity:1.0; stroke-width:6" 
   transform="translate(0 0) scale(1 1)">
<path d="M2751 3334 L2764 3339" /> 
<path d="M2764 3339 L2769 3343" /> 
<path d="M2769 3343 L2773 3351" /> 
<path d="M2773 3351 L2773 3364" /> 
<path d="M2773 3364 L2769 3373" /> 
<path d="M2769 3373 L2764 3377" /> 
<path d="M2764 3377 L2756 3381" /> 
<path d="M2756 3381 L2721 3381" /> 
<path d="M2721 3381 L2721 3291" /> 
<path d="M2721 3291 L2751 3291" /> 
<path d="M2751 3291 L2760 3296" /> 
<path d="M2760 3296 L2764 3300" /> 
<path d="M2764 3300 L2769 3309" /> 
<path d="M2769 3309 L2769 3317" /> 
<path d="M2769 3317 L2764 3326" /> 
<path d="M2764 3326 L2760 3330" /> 
<path d="M2760 3330 L2751 3334" /> 
<path d="M2751 3334 L2721 3334" /> 
<g style = "stroke-linecap:round;" > 
<path d="M2721 3334 L2721 3334" /> 
</g><path d="M2871 3321 L2871 3381" /> 
<g style = "stroke-linecap:round;" > 
<path d="M2871 3381 L2871 3381" /> 
</g><path d="M2811 3321 L2811 3381" /> 
<path d="M2811 3381 L2833 3381" /> 
<path d="M2833 3381 L2841 3377" /> 
<path d="M2841 3377 L2846 3369" /> 
<path d="M2846 3369 L2846 3356" /> 
<path d="M2846 3356 L2841 3347" /> 
<path d="M2841 3347 L2833 3343" /> 
<path d="M2833 3343 L2811 3343" /> 
<g style = "stroke-linecap:round;" > 
<path d="M2811 3343 L2811 3343" /> 
</g><path d="M2914 3321 L2914 3381" /> 
<g style = "stroke-linecap:round;" > 
<path d="M2914 3381 L2914 3381" /> 
</g><path d="M2923 3347 L2949 3381" /> 
<g style = "stroke-linecap:round;" > 
<path d="M2949 3381 L2949 3381" /> 
</g><path d="M2949 3321 L2914 3356" /> 
<g style = "stroke-linecap:round;" > 
<path d="M2914 3356 L2914 3356" /> 
</g><path d="M3022 3381 L3022 3321" /> 
<path d="M3022 3321 L3009 3321" /> 
<path d="M3009 3321 L3000 3326" /> 
<path d="M3000 3326 L2996 3334" /> 
<path d="M2996 3334 L2992 3369" /> 
<path d="M2992 3369 L2987 3377" /> 
<path d="M2987 3377 L2979 3381" /> 
<g style = "stroke-linecap:round;" > 
<path d="M2979 3381 L2979 3381" /> 
</g><path d="M3064 3351 L3090 3351" /> 
<g style = "stroke-linecap:round;" > 
<path d="M3090 3351 L3090 3351" /> 
</g><path d="M3064 3321 L3064 3381" /> 
<g style = "stroke-linecap:round;" > 
<path d="M3064 3381 L3064 3381" /> 
</g><path d="M3107 3381 L3099 3377" /> 
<path d="M3099 3377 L3094 3373" /> 
<path d="M3094 3373 L3090 3364" /> 
<path d="M3090 3364 L3090 3339" /> 
<path d="M3090 3339 L3094 3330" /> 
<path d="M3094 3330 L3099 3326" /> 
<path d="M3099 3326 L3107 3321" /> 
<path d="M3107 3321 L3120 3321" /> 
<path d="M3120 3321 L3129 3326" /> 
<path d="M3129 3326 L3133 3330" /> 
<path d="M3133 3330 L3137 3339" /> 
<path d="M3137 3339 L3137 3364" /> 
<path d="M3137 3364 L3133 3373" /> 
<path d="M3133 3373 L3129 3377" /> 
<path d="M3129 3377 L3120 3381" /> 
<path d="M3120 3381 L3107 3381" /> 
<path d="M3205 3321 L3205 3381" /> 
<g style = "stroke-linecap:round;" > 
<path d="M3205 3381 L3205 3381" /> 
</g><path d="M3171 3321 L3171 3343" /> 
<path d="M3171 3343 L3175 3351" /> 
<path d="M3175 3351 L3184 3356" /> 
<path d="M3184 3356 L3205 3356" /> 
<g style = "stroke-linecap:round;" > 
<path d="M3205 3356 L3205 3356" /> 
</g><path d="M3291 3381 L3291 3334" /> 
<path d="M3291 3334 L3287 3326" /> 
<path d="M3287 3326 L3278 3321" /> 
<path d="M3278 3321 L3261 3321" /> 
<path d="M3261 3321 L3252 3326" /> 
<g style = "stroke-linecap:round;" > 
<path d="M3252 3326 L3252 3326" /> 
</g><path d="M3291 3377 L3282 3381" /> 
<path d="M3282 3381 L3261 3381" /> 
<path d="M3261 3381 L3252 3377" /> 
<path d="M3252 3377 L3248 3369" /> 
<path d="M3248 3369 L3248 3360" /> 
<path d="M3248 3360 L3252 3351" /> 
<path d="M3252 3351 L3261 3347" /> 
<path d="M3261 3347 L3282 3347" /> 
<path d="M3282 3347 L3291 3343" /> 
<g style = "stroke-linecap:round;" > 
<path d="M3291 3343 L3291 3343" /> 
</g><path d="M3321 3321 L3363 3321" /> 
<g style = "stroke-linecap:round;" > 
<path d="M3363 3321 L3363 3321" /> 
</g><path d="M3342 3321 L3342 3381" /> 
<g style = "stroke-linecap:round;" > 
<path d="M3342 3381 L3342 3381" /> 
</g><path d="M3428 3377 L3419 3381" /> 
<path d="M3419 3381 L3402 3381" /> 
<path d="M3402 3381 L3393 3377" /> 
<path d="M3393 3377 L3389 3369" /> 
<path d="M3389 3369 L3389 3334" /> 
<path d="M3389 3334 L3393 3326" /> 
<path d="M3393 3326 L3402 3321" /> 
<path d="M3402 3321 L3419 3321" /> 
<path d="M3419 3321 L3428 3326" /> 
<path d="M3428 3326 L3432 3334" /> 
<path d="M3432 3334 L3432 3343" /> 
<path d="M3432 3343 L3389 3351" /> 
<g style = "stroke-linecap:round;" > 
<path d="M3389 3351 L3389 3351" /> 
</g><path d="M3505 3381 L3505 3321" /> 
<path d="M3505 3321 L3492 3321" /> 
<path d="M3492 3321 L3483 3326" /> 
<path d="M3483 3326 L3479 3334" /> 
<path d="M3479 3334 L3475 3369" /> 
<path d="M3475 3369 L3470 3377" /> 
<path d="M3470 3377 L3462 3381" /> 
<g style = "stroke-linecap:round;" > 
<path d="M3462 3381 L3462 3381" /> 
</g><path d="M3547 3321 L3547 3381" /> 
<path d="M3547 3381 L3569 3381" /> 
<path d="M3569 3381 L3577 3377" /> 
<path d="M3577 3377 L3582 3369" /> 
<path d="M3582 3369 L3582 3356" /> 
<path d="M3582 3356 L3577 3347" /> 
<path d="M3577 3347 L3569 3343" /> 
<path d="M3569 3343 L3547 3343" /> 
<g style = "stroke-linecap:round;" > 
<path d="M3547 3343 L3547 3343" /> 
</g></g> 
</svg> 
